<svg width="375" height="36" viewBox="0 0 375 36" fill="none" xmlns="http://www.w3.org/2000/svg">
<path d="M0.3125 2.57812H5.71875L12.3438 18.3438L13.875 22.1562L15.0781 18.3438L17.5156 12.5938L13.125 2.57812H18.2188L20.0156 7.34375L21.6875 2.57812H26.7812L22.3906 12.5938L24.875 18.4688L26.375 22.1562L27.5312 18.4062L34.1875 2.57812H39.5938L28.8125 27H23.9062L21.7344 22.1562L19.9688 17.4531L18.2031 22.1562L16 27H11.0938L0.3125 2.57812ZM41.9219 21.1875C41.9219 20.3021 42.1146 19.4948 42.5 18.7656C42.8854 18.0365 43.4635 17.4115 44.2344 16.8906C45.0052 16.3594 45.9635 15.9531 47.1094 15.6719C48.2656 15.3802 49.6094 15.2344 51.1406 15.2344C52.276 15.2344 53.4688 15.3177 54.7188 15.4844C55.9792 15.651 57.276 15.9062 58.6094 16.25C58.5573 15.6667 58.3802 15.1302 58.0781 14.6406C57.776 14.1406 57.3542 13.7135 56.8125 13.3594C56.2812 12.9948 55.6354 12.7135 54.875 12.5156C54.125 12.3177 53.2708 12.2188 52.3125 12.2188C51.7917 12.2188 51.2188 12.25 50.5938 12.3125C49.9688 12.375 49.3229 12.4688 48.6562 12.5938C47.9896 12.7188 47.3281 12.875 46.6719 13.0625C46.026 13.25 45.4219 13.474 44.8594 13.7344L43.4531 9.9375C44.151 9.6875 44.8958 9.45833 45.6875 9.25C46.4896 9.04167 47.3073 8.86458 48.1406 8.71875C48.974 8.5625 49.8073 8.44271 50.6406 8.35938C51.474 8.27604 52.2812 8.23438 53.0625 8.23438C56.5104 8.23438 59.0729 9.11458 60.75 10.875C62.4271 12.6354 63.2656 15.3333 63.2656 18.9688V27H58.6406V25.2656C58.1615 25.5469 57.6354 25.8125 57.0625 26.0625C56.5 26.3125 55.8854 26.5312 55.2188 26.7188C54.5521 26.9062 53.8333 27.0521 53.0625 27.1562C52.3021 27.2708 51.4948 27.3281 50.6406 27.3281C49.2031 27.3281 47.9375 27.1719 46.8438 26.8594C45.7604 26.5469 44.8542 26.1146 44.125 25.5625C43.3958 25.0104 42.8438 24.3646 42.4688 23.625C42.1042 22.875 41.9219 22.0625 41.9219 21.1875ZM46.7969 21.0312C46.7969 21.3333 46.875 21.625 47.0312 21.9062C47.1875 22.1771 47.4375 22.4219 47.7812 22.6406C48.125 22.849 48.5625 23.0208 49.0938 23.1562C49.6354 23.2812 50.2865 23.3438 51.0469 23.3438C51.8594 23.3438 52.6458 23.2708 53.4062 23.125C54.1667 22.9792 54.875 22.7865 55.5312 22.5469C56.1875 22.3073 56.7812 22.0312 57.3125 21.7188C57.8438 21.4062 58.2865 21.0833 58.6406 20.75V19.9375C57.9323 19.7396 57.2292 19.5729 56.5312 19.4375C55.8438 19.3021 55.1823 19.1979 54.5469 19.125C53.9219 19.0417 53.3281 18.9844 52.7656 18.9531C52.2135 18.9219 51.7292 18.9062 51.3125 18.9062C50.4479 18.9062 49.7292 18.9635 49.1562 19.0781C48.5833 19.1927 48.1198 19.349 47.7656 19.5469C47.4115 19.7344 47.1615 19.9583 47.0156 20.2188C46.8698 20.4792 46.7969 20.75 46.7969 21.0312ZM69.3906 8.5625H74.0156V11.2188C75.0365 10.4583 76.1146 9.80208 77.25 9.25C78.3854 8.69792 79.5156 8.27604 80.6406 7.98438L82 12.2188C80.2188 12.3958 78.651 12.7969 77.2969 13.4219C75.9531 14.0365 74.8594 14.9062 74.0156 16.0312V27H69.3906V8.5625ZM98.0938 12.0312H94.9375V8.5625H98.0938C98.0938 7.3125 98.2708 6.20312 98.625 5.23438C98.9792 4.25521 99.4896 3.43229 100.156 2.76562C100.833 2.08854 101.651 1.57292 102.609 1.21875C103.578 0.864583 104.667 0.6875 105.875 0.6875C106.719 0.6875 107.547 0.770833 108.359 0.9375C109.172 1.09375 109.891 1.32292 110.516 1.625L108.875 5.51562C108.625 5.36979 108.271 5.23438 107.812 5.10938C107.365 4.98438 106.87 4.92188 106.328 4.92188C105.266 4.92188 104.406 5.22396 103.75 5.82812C103.104 6.42188 102.76 7.33333 102.719 8.5625H108.547V12.0312H102.719V27H98.0938V12.0312ZM111 17.7812C111 16.4583 111.266 15.2188 111.797 14.0625C112.339 12.9062 113.104 11.8958 114.094 11.0312C115.094 10.1667 116.297 9.48438 117.703 8.98438C119.12 8.48438 120.708 8.23438 122.469 8.23438C124.229 8.23438 125.812 8.48438 127.219 8.98438C128.635 9.48438 129.839 10.1667 130.828 11.0312C131.828 11.8958 132.594 12.9062 133.125 14.0625C133.667 15.2188 133.938 16.4583 133.938 17.7812C133.938 19.1042 133.667 20.3438 133.125 21.5C132.594 22.6562 131.828 23.6667 130.828 24.5312C129.839 25.3958 128.635 26.0781 127.219 26.5781C125.812 27.0781 124.229 27.3281 122.469 27.3281C120.708 27.3281 119.12 27.0781 117.703 26.5781C116.297 26.0781 115.094 25.3958 114.094 24.5312C113.104 23.6667 112.339 22.6562 111.797 21.5C111.266 20.3438 111 19.1042 111 17.7812ZM115.859 17.7812C115.859 18.5208 116.005 19.224 116.297 19.8906C116.599 20.5469 117.031 21.1302 117.594 21.6406C118.167 22.1406 118.859 22.5417 119.672 22.8438C120.495 23.1354 121.427 23.2812 122.469 23.2812C123.51 23.2812 124.438 23.1354 125.25 22.8438C126.073 22.5417 126.766 22.1406 127.328 21.6406C127.901 21.1302 128.333 20.5469 128.625 19.8906C128.927 19.224 129.078 18.5208 129.078 17.7812C129.078 17.0417 128.927 16.3385 128.625 15.6719C128.333 15.0052 127.901 14.4219 127.328 13.9219C126.766 13.4115 126.073 13.0104 125.25 12.7188C124.438 12.4167 123.51 12.2656 122.469 12.2656C121.427 12.2656 120.495 12.4167 119.672 12.7188C118.859 13.0104 118.167 13.4115 117.594 13.9219C117.031 14.4219 116.599 15.0052 116.297 15.6719C116.005 16.3385 115.859 17.0417 115.859 17.7812ZM138.609 8.5625H143.234V11.2188C144.255 10.4583 145.333 9.80208 146.469 9.25C147.604 8.69792 148.734 8.27604 149.859 7.98438L151.219 12.2188C149.438 12.3958 147.87 12.7969 146.516 13.4219C145.172 14.0365 144.078 14.9062 143.234 16.0312V27H138.609V8.5625ZM165.875 2.57812H174.828C177.443 2.57812 179.714 2.85938 181.641 3.42188C183.568 3.98438 185.161 4.79167 186.422 5.84375C187.693 6.88542 188.635 8.15625 189.25 9.65625C189.875 11.1458 190.188 12.8229 190.188 14.6875C190.188 16.4583 189.88 18.099 189.266 19.6094C188.651 21.1094 187.714 22.4115 186.453 23.5156C185.193 24.6094 183.599 25.4688 181.672 26.0938C179.745 26.7083 177.474 27.0156 174.859 27.0156L165.875 27V2.57812ZM176.047 22.7188C177.526 22.7188 178.823 22.5312 179.938 22.1562C181.052 21.7708 181.979 21.2292 182.719 20.5312C183.469 19.8333 184.031 18.9896 184.406 18C184.781 17.0104 184.969 15.9062 184.969 14.6875C184.969 13.4896 184.781 12.4115 184.406 11.4531C184.031 10.4844 183.469 9.66667 182.719 9C181.979 8.32292 181.052 7.80208 179.938 7.4375C178.823 7.07292 177.526 6.89062 176.047 6.89062H170.828V22.7188H176.047ZM194.578 8.54688H199.188V17.5469C199.188 18.401 199.281 19.1823 199.469 19.8906C199.656 20.5885 199.974 21.1875 200.422 21.6875C200.88 22.1875 201.484 22.5781 202.234 22.8594C202.995 23.1302 203.938 23.2656 205.062 23.2656C205.594 23.2656 206.13 23.2083 206.672 23.0938C207.224 22.9792 207.75 22.8229 208.25 22.625C208.75 22.4167 209.214 22.1719 209.641 21.8906C210.078 21.6094 210.453 21.3021 210.766 20.9688V8.54688H215.391V27H210.766V25.4219C209.63 26.099 208.49 26.5833 207.344 26.875C206.198 27.1667 205.109 27.3125 204.078 27.3125C202.391 27.3125 200.943 27.1094 199.734 26.7031C198.536 26.2969 197.552 25.7083 196.781 24.9375C196.021 24.1562 195.464 23.2031 195.109 22.0781C194.755 20.9427 194.578 19.651 194.578 18.2031V8.54688ZM221.266 8.5625H225.891V10.125C227.12 9.42708 228.292 8.9375 229.406 8.65625C230.531 8.375 231.63 8.23438 232.703 8.23438C234.109 8.23438 235.411 8.44271 236.609 8.85938C237.807 9.26562 238.844 9.875 239.719 10.6875C240.594 11.5 241.276 12.5156 241.766 13.7344C242.266 14.9427 242.516 16.3438 242.516 17.9375V27H237.906V18.6875C237.906 17.6771 237.76 16.776 237.469 15.9844C237.188 15.1823 236.776 14.5104 236.234 13.9688C235.703 13.4167 235.052 13 234.281 12.7188C233.521 12.4271 232.667 12.2812 231.719 12.2812C231.219 12.2812 230.703 12.3333 230.172 12.4375C229.651 12.5417 229.135 12.6927 228.625 12.8906C228.125 13.0781 227.641 13.3177 227.172 13.6094C226.703 13.8906 226.276 14.2135 225.891 14.5781V27H221.266V8.5625ZM251.094 30.125C251.677 30.3333 252.271 30.5052 252.875 30.6406C253.479 30.7865 254.062 30.901 254.625 30.9844C255.198 31.0781 255.745 31.1406 256.266 31.1719C256.786 31.2135 257.25 31.2344 257.656 31.2344C258.885 31.2344 259.953 31.0833 260.859 30.7812C261.776 30.4896 262.536 30.0938 263.141 29.5938C263.755 29.0938 264.214 28.5104 264.516 27.8438C264.818 27.1875 264.969 26.4896 264.969 25.75V24.9531C264.573 25.224 264.109 25.4844 263.578 25.7344C263.047 25.9844 262.464 26.2031 261.828 26.3906C261.193 26.5781 260.516 26.7292 259.797 26.8438C259.089 26.9583 258.354 27.0156 257.594 27.0156C256.083 27.0156 254.688 26.7917 253.406 26.3438C252.125 25.8854 251.016 25.25 250.078 24.4375C249.141 23.6146 248.406 22.6302 247.875 21.4844C247.354 20.3385 247.094 19.0677 247.094 17.6719C247.094 16.2448 247.37 14.9531 247.922 13.7969C248.474 12.6302 249.234 11.6354 250.203 10.8125C251.182 9.98958 252.339 9.35417 253.672 8.90625C255.005 8.45833 256.453 8.23438 258.016 8.23438C258.682 8.23438 259.344 8.27604 260 8.35938C260.656 8.44271 261.281 8.55729 261.875 8.70312C262.479 8.84896 263.042 9.02604 263.562 9.23438C264.094 9.43229 264.562 9.65104 264.969 9.89062V8.5625H269.594V24.8906C269.594 26.5677 269.339 28.0521 268.828 29.3438C268.318 30.6354 267.568 31.7188 266.578 32.5938C265.599 33.4792 264.38 34.1458 262.922 34.5938C261.464 35.0521 259.792 35.2812 257.906 35.2812C257.229 35.2812 256.526 35.25 255.797 35.1875C255.068 35.1354 254.333 35.0521 253.594 34.9375C252.865 34.8333 252.141 34.7031 251.422 34.5469C250.714 34.401 250.031 34.2292 249.375 34.0312L251.094 30.125ZM251.953 17.625C251.953 18.3646 252.099 19.0625 252.391 19.7188C252.693 20.3646 253.12 20.9323 253.672 21.4219C254.224 21.901 254.891 22.2812 255.672 22.5625C256.453 22.8333 257.333 22.9688 258.312 22.9688C258.948 22.9688 259.578 22.9115 260.203 22.7969C260.839 22.6719 261.443 22.5 262.016 22.2812C262.599 22.0625 263.141 21.7969 263.641 21.4844C264.151 21.1719 264.594 20.8229 264.969 20.4375V14.3594C264.5 13.9844 264.005 13.6667 263.484 13.4062C262.964 13.1458 262.432 12.9323 261.891 12.7656C261.349 12.599 260.802 12.4792 260.25 12.4062C259.698 12.3229 259.161 12.2812 258.641 12.2812C257.578 12.2812 256.63 12.4219 255.797 12.7031C254.974 12.9844 254.276 13.3698 253.703 13.8594C253.141 14.3385 252.708 14.901 252.406 15.5469C252.104 16.1927 251.953 16.8854 251.953 17.625ZM273.984 17.7188C273.984 16.4688 274.24 15.276 274.75 14.1406C275.26 12.9948 275.995 11.9844 276.953 11.1094C277.911 10.2344 279.083 9.53646 280.469 9.01562C281.865 8.49479 283.448 8.23438 285.219 8.23438C286.979 8.23438 288.562 8.5 289.969 9.03125C291.385 9.55208 292.583 10.2708 293.562 11.1875C294.552 12.1042 295.307 13.1823 295.828 14.4219C296.359 15.6615 296.625 16.9896 296.625 18.4062C296.625 18.5833 296.62 18.776 296.609 18.9844C296.609 19.1823 296.599 19.3646 296.578 19.5312H279.141C279.339 20.0833 279.656 20.5885 280.094 21.0469C280.542 21.5052 281.099 21.901 281.766 22.2344C282.432 22.5677 283.203 22.8281 284.078 23.0156C284.953 23.1927 285.922 23.2812 286.984 23.2812C288.047 23.2812 289.104 23.1719 290.156 22.9531C291.208 22.724 292.214 22.4375 293.172 22.0938L294.734 25.625C294.13 25.9062 293.516 26.1562 292.891 26.375C292.276 26.5833 291.63 26.7604 290.953 26.9062C290.286 27.0417 289.583 27.1458 288.844 27.2188C288.115 27.2917 287.344 27.3281 286.531 27.3281C284.458 27.3281 282.641 27.0781 281.078 26.5781C279.516 26.0781 278.208 25.3958 277.156 24.5312C276.104 23.6667 275.312 22.651 274.781 21.4844C274.25 20.3177 273.984 19.0625 273.984 17.7188ZM291.719 15.9219C291.552 15.4115 291.292 14.9375 290.938 14.5C290.594 14.0521 290.161 13.6667 289.641 13.3438C289.12 13.0104 288.516 12.75 287.828 12.5625C287.141 12.375 286.385 12.2812 285.562 12.2812C284.688 12.2812 283.891 12.3802 283.172 12.5781C282.453 12.776 281.823 13.0417 281.281 13.375C280.74 13.7083 280.286 14.0938 279.922 14.5312C279.568 14.9688 279.307 15.4323 279.141 15.9219H291.719ZM300.5 17.7812C300.5 16.4583 300.766 15.2188 301.297 14.0625C301.839 12.9062 302.604 11.8958 303.594 11.0312C304.594 10.1667 305.797 9.48438 307.203 8.98438C308.62 8.48438 310.208 8.23438 311.969 8.23438C313.729 8.23438 315.312 8.48438 316.719 8.98438C318.135 9.48438 319.339 10.1667 320.328 11.0312C321.328 11.8958 322.094 12.9062 322.625 14.0625C323.167 15.2188 323.438 16.4583 323.438 17.7812C323.438 19.1042 323.167 20.3438 322.625 21.5C322.094 22.6562 321.328 23.6667 320.328 24.5312C319.339 25.3958 318.135 26.0781 316.719 26.5781C315.312 27.0781 313.729 27.3281 311.969 27.3281C310.208 27.3281 308.62 27.0781 307.203 26.5781C305.797 26.0781 304.594 25.3958 303.594 24.5312C302.604 23.6667 301.839 22.6562 301.297 21.5C300.766 20.3438 300.5 19.1042 300.5 17.7812ZM305.359 17.7812C305.359 18.5208 305.505 19.224 305.797 19.8906C306.099 20.5469 306.531 21.1302 307.094 21.6406C307.667 22.1406 308.359 22.5417 309.172 22.8438C309.995 23.1354 310.927 23.2812 311.969 23.2812C313.01 23.2812 313.938 23.1354 314.75 22.8438C315.573 22.5417 316.266 22.1406 316.828 21.6406C317.401 21.1302 317.833 20.5469 318.125 19.8906C318.427 19.224 318.578 18.5208 318.578 17.7812C318.578 17.0417 318.427 16.3385 318.125 15.6719C317.833 15.0052 317.401 14.4219 316.828 13.9219C316.266 13.4115 315.573 13.0104 314.75 12.7188C313.938 12.4167 313.01 12.2656 311.969 12.2656C310.927 12.2656 309.995 12.4167 309.172 12.7188C308.359 13.0104 307.667 13.4115 307.094 13.9219C306.531 14.4219 306.099 15.0052 305.797 15.6719C305.505 16.3385 305.359 17.0417 305.359 17.7812ZM328.109 8.5625H332.734V10.125C333.964 9.42708 335.135 8.9375 336.25 8.65625C337.375 8.375 338.474 8.23438 339.547 8.23438C340.953 8.23438 342.255 8.44271 343.453 8.85938C344.651 9.26562 345.688 9.875 346.562 10.6875C347.438 11.5 348.12 12.5156 348.609 13.7344C349.109 14.9427 349.359 16.3438 349.359 17.9375V27H344.75V18.6875C344.75 17.6771 344.604 16.776 344.312 15.9844C344.031 15.1823 343.62 14.5104 343.078 13.9688C342.547 13.4167 341.896 13 341.125 12.7188C340.365 12.4271 339.51 12.2812 338.562 12.2812C338.062 12.2812 337.547 12.3333 337.016 12.4375C336.495 12.5417 335.979 12.6927 335.469 12.8906C334.969 13.0781 334.484 13.3177 334.016 13.6094C333.547 13.8906 333.12 14.2135 332.734 14.5781V27H328.109V8.5625ZM355.781 21.3438C357.031 22.0938 358.406 22.6458 359.906 23C361.406 23.3542 362.943 23.5312 364.516 23.5312C365.578 23.5312 366.464 23.4583 367.172 23.3125C367.88 23.1667 368.448 22.9792 368.875 22.75C369.302 22.5208 369.604 22.2604 369.781 21.9688C369.958 21.6771 370.047 21.3802 370.047 21.0781C370.047 20.6406 369.854 20.2656 369.469 19.9531C369.094 19.6406 368.469 19.4844 367.594 19.4844C367.188 19.4844 366.75 19.5104 366.281 19.5625C365.812 19.6146 365.318 19.6719 364.797 19.7344C364.286 19.7865 363.75 19.8385 363.188 19.8906C362.635 19.9427 362.073 19.9688 361.5 19.9688C360.25 19.9688 359.182 19.8333 358.297 19.5625C357.422 19.2917 356.708 18.9219 356.156 18.4531C355.604 17.9844 355.203 17.4323 354.953 16.7969C354.703 16.151 354.578 15.4583 354.578 14.7188C354.578 13.7812 354.797 12.9167 355.234 12.125C355.672 11.3333 356.297 10.651 357.109 10.0781C357.922 9.49479 358.901 9.04167 360.047 8.71875C361.203 8.39583 362.49 8.23438 363.906 8.23438C364.646 8.23438 365.417 8.28125 366.219 8.375C367.031 8.45833 367.828 8.57292 368.609 8.71875C369.391 8.86458 370.141 9.03646 370.859 9.23438C371.578 9.42188 372.214 9.625 372.766 9.84375L371.312 13.4375C370.135 13 368.958 12.6562 367.781 12.4062C366.615 12.1458 365.411 12.0156 364.172 12.0156C363.307 12.0156 362.573 12.0833 361.969 12.2188C361.375 12.3438 360.891 12.5156 360.516 12.7344C360.141 12.9427 359.865 13.1875 359.688 13.4688C359.521 13.7396 359.438 14.026 359.438 14.3281C359.438 14.5469 359.479 14.7448 359.562 14.9219C359.656 15.099 359.802 15.2552 360 15.3906C360.208 15.5156 360.474 15.6146 360.797 15.6875C361.13 15.75 361.536 15.7812 362.016 15.7812C362.453 15.7812 362.917 15.7552 363.406 15.7031C363.896 15.651 364.406 15.599 364.938 15.5469C365.469 15.4844 366.016 15.4271 366.578 15.375C367.151 15.3229 367.734 15.2969 368.328 15.2969C369.432 15.2969 370.396 15.4271 371.219 15.6875C372.052 15.9479 372.74 16.3125 373.281 16.7812C373.823 17.25 374.229 17.8021 374.5 18.4375C374.771 19.0729 374.906 19.7656 374.906 20.5156C374.906 21.4844 374.682 22.3854 374.234 23.2188C373.786 24.0521 373.12 24.776 372.234 25.3906C371.349 25.9948 370.245 26.4688 368.922 26.8125C367.609 27.1562 366.089 27.3281 364.359 27.3281C363.297 27.3281 362.271 27.2604 361.281 27.125C360.292 27 359.349 26.8281 358.453 26.6094C357.557 26.3802 356.714 26.1146 355.922 25.8125C355.141 25.5104 354.427 25.1875 353.781 24.8438L355.781 21.3438Z" fill="#CBE6FF"/>
<path d="M0.3125 2.57812V0.578125H-2.75663L-1.51714 3.38584L0.3125 2.57812ZM5.71875 2.57812L7.56257 1.80332L7.04772 0.578125H5.71875V2.57812ZM12.3438 18.3438L14.1997 17.5983L14.1937 17.5836L14.1876 17.5689L12.3438 18.3438ZM13.875 22.1562L12.0191 22.9017L14.1011 28.0855L15.7823 22.7581L13.875 22.1562ZM15.0781 18.3438L13.2367 17.5632L13.1995 17.6509L13.1708 17.7419L15.0781 18.3438ZM17.5156 12.5938L19.357 13.3743L19.6935 12.5805L19.3473 11.7908L17.5156 12.5938ZM13.125 2.57812V0.578125H10.0645L11.2933 3.38111L13.125 2.57812ZM18.2188 2.57812L20.0901 1.87252L19.6021 0.578125H18.2188V2.57812ZM20.0156 7.34375L18.1442 8.04936L20.0834 13.1923L21.9029 8.00583L20.0156 7.34375ZM21.6875 2.57812V0.578125H20.2696L19.8003 1.91605L21.6875 2.57812ZM26.7812 2.57812L28.613 3.38111L29.8417 0.578125H26.7812V2.57812ZM22.3906 12.5938L20.5589 11.7908L20.2131 12.5795L20.5486 13.3727L22.3906 12.5938ZM24.875 18.4688L26.7276 17.7152L26.7224 17.7024L26.7171 17.6898L24.875 18.4688ZM26.375 22.1562L24.5224 22.9098L26.6346 28.1022L28.2862 22.7455L26.375 22.1562ZM27.5312 18.4062L25.6876 17.6309L25.6492 17.7223L25.62 17.817L27.5312 18.4062ZM34.1875 2.57812V0.578125H32.8589L32.3439 1.80282L34.1875 2.57812ZM39.5938 2.57812L41.4234 3.38584L42.6629 0.578125H39.5938V2.57812ZM28.8125 27V29H30.1158L30.6421 27.8077L28.8125 27ZM23.9062 27L22.0813 27.8183L22.6112 29H23.9062V27ZM21.7344 22.1562L19.862 22.8592L19.8839 22.9176L19.9094 22.9745L21.7344 22.1562ZM19.9688 17.4531L21.8412 16.7502L19.9688 11.7626L18.0963 16.7502L19.9688 17.4531ZM18.2031 22.1562L20.0237 22.9843L20.0517 22.9226L20.0755 22.8592L18.2031 22.1562ZM16 27V29H17.2875L17.8205 27.828L16 27ZM11.0938 27L9.26411 27.8077L9.79045 29H11.0938V27ZM0.3125 4.57812H5.71875V0.578125H0.3125V4.57812ZM3.87493 3.35293L10.4999 19.1186L14.1876 17.5689L7.56257 1.80332L3.87493 3.35293ZM10.4878 19.0892L12.0191 22.9017L15.7309 21.4108L14.1997 17.5983L10.4878 19.0892ZM15.7823 22.7581L16.9854 18.9456L13.1708 17.7419L11.9677 21.5544L15.7823 22.7581ZM16.9195 19.1243L19.357 13.3743L15.6742 11.8132L13.2367 17.5632L16.9195 19.1243ZM19.3473 11.7908L14.9567 1.77514L11.2933 3.38111L15.6839 13.3967L19.3473 11.7908ZM13.125 4.57812H18.2188V0.578125H13.125V4.57812ZM16.3474 3.28373L18.1442 8.04936L21.887 6.63814L20.0901 1.87252L16.3474 3.28373ZM21.9029 8.00583L23.5747 3.2402L19.8003 1.91605L18.1284 6.68167L21.9029 8.00583ZM21.6875 4.57812H26.7812V0.578125H21.6875V4.57812ZM24.9495 1.77514L20.5589 11.7908L24.2223 13.3967L28.613 3.38111L24.9495 1.77514ZM20.5486 13.3727L23.0329 19.2477L26.7171 17.6898L24.2327 11.8148L20.5486 13.3727ZM23.0224 19.2223L24.5224 22.9098L28.2276 21.4027L26.7276 17.7152L23.0224 19.2223ZM28.2862 22.7455L29.4425 18.9955L25.62 17.817L24.4638 21.567L28.2862 22.7455ZM29.3749 19.1816L36.0311 3.35343L32.3439 1.80282L25.6876 17.6309L29.3749 19.1816ZM34.1875 4.57812H39.5938V0.578125H34.1875V4.57812ZM37.7641 1.77041L26.9829 26.1923L30.6421 27.8077L41.4234 3.38584L37.7641 1.77041ZM28.8125 25H23.9062V29H28.8125V25ZM25.7312 26.1817L23.5593 21.338L19.9094 22.9745L22.0813 27.8183L25.7312 26.1817ZM23.6068 21.4533L21.8412 16.7502L18.0963 18.1561L19.862 22.8592L23.6068 21.4533ZM18.0963 16.7502L16.3307 21.4533L20.0755 22.8592L21.8412 18.1561L18.0963 16.7502ZM16.3826 21.3282L14.1795 26.172L17.8205 27.828L20.0237 22.9843L16.3826 21.3282ZM16 25H11.0938V29H16V25ZM12.9234 26.1923L2.14214 1.77041L-1.51714 3.38584L9.26411 27.8077L12.9234 26.1923ZM42.5 18.7656L40.7318 17.831L42.5 18.7656ZM44.2344 16.8906L45.3541 18.5478L45.3617 18.5426L45.3693 18.5374L44.2344 16.8906ZM47.1094 15.6719L47.5861 17.6143L47.5986 17.6111L47.1094 15.6719ZM54.7188 15.4844L54.4544 17.4668L54.4566 17.4671L54.7188 15.4844ZM58.6094 16.25L58.1101 18.1867L60.8534 18.8939L60.6015 16.0721L58.6094 16.25ZM58.0781 14.6406L56.3663 15.6749L56.3711 15.6829L56.3761 15.6908L58.0781 14.6406ZM56.8125 13.3594L55.6808 15.0084L55.6993 15.0211L55.718 15.0333L56.8125 13.3594ZM54.875 12.5156L54.3647 14.4494L54.3712 14.4511L54.875 12.5156ZM46.6719 13.0625L46.1224 11.1394L46.1143 11.1418L46.6719 13.0625ZM44.8594 13.7344L42.9839 14.429L43.7356 16.4586L45.6996 15.5493L44.8594 13.7344ZM43.4531 9.9375L42.7787 8.05465L40.8755 8.73639L41.5776 10.6321L43.4531 9.9375ZM45.6875 9.25L45.1847 7.31422L45.1785 7.31585L45.6875 9.25ZM48.1406 8.71875L48.4854 10.6888L48.4973 10.6867L48.5092 10.6845L48.1406 8.71875ZM60.75 10.875L59.3019 12.2545L60.75 10.875ZM63.2656 27V29H65.2656V27H63.2656ZM58.6406 27H56.6406V29H58.6406V27ZM58.6406 25.2656H60.6406V21.7726L57.6282 23.5408L58.6406 25.2656ZM57.0625 26.0625L56.2626 24.2294L56.2502 24.2349L57.0625 26.0625ZM53.0625 27.1562L52.7947 25.1743L52.7796 25.1763L52.7645 25.1786L53.0625 27.1562ZM46.8438 26.8594L46.2894 28.781L46.2943 28.7824L46.8438 26.8594ZM42.4688 23.625L40.67 24.4994L40.6774 24.5145L40.6849 24.5295L42.4688 23.625ZM47.0312 21.9062L45.2829 22.8775L45.2908 22.8917L45.2989 22.9057L47.0312 21.9062ZM47.7812 22.6406L46.7075 24.3279L46.7259 24.3397L46.7446 24.351L47.7812 22.6406ZM49.0938 23.1562L48.5997 25.0943L48.6218 25.0999L48.644 25.105L49.0938 23.1562ZM53.4062 23.125L53.0296 21.1608L53.4062 23.125ZM58.6406 20.75L60.0114 22.2064L60.6406 21.6141V20.75H58.6406ZM58.6406 19.9375H60.6406V18.4197L59.1788 18.0113L58.6406 19.9375ZM56.5312 19.4375L56.1447 21.3998L56.1503 21.4009L56.5312 19.4375ZM54.5469 19.125L54.2825 21.1075L54.3007 21.1099L54.3189 21.112L54.5469 19.125ZM52.7656 18.9531L52.6526 20.9499L52.6547 20.95L52.7656 18.9531ZM49.1562 19.0781L49.5485 21.0393L49.1562 19.0781ZM47.7656 19.5469L48.7014 21.3145L48.7215 21.3038L48.7413 21.2928L47.7656 19.5469ZM43.9219 21.1875C43.9219 20.6033 44.0461 20.1204 44.2682 19.7002L40.7318 17.831C40.1831 18.8692 39.9219 20.0009 39.9219 21.1875H43.9219ZM44.2682 19.7002C44.4813 19.297 44.8202 18.9085 45.3541 18.5478L43.1147 15.2334C42.1069 15.9144 41.2895 16.7759 40.7318 17.831L44.2682 19.7002ZM45.3693 18.5374C45.8961 18.1744 46.617 17.8521 47.5861 17.6142L46.6326 13.7295C45.3101 14.0542 44.1143 14.5444 43.0994 15.2438L45.3693 18.5374ZM47.5986 17.6111C48.5571 17.3693 49.7302 17.2344 51.1406 17.2344V13.2344C49.4885 13.2344 47.9741 13.3911 46.6202 13.7326L47.5986 17.6111ZM51.1406 17.2344C52.1786 17.2344 53.2826 17.3106 54.4544 17.4668L54.9831 13.5019C53.6549 13.3248 52.3735 13.2344 51.1406 13.2344V17.2344ZM54.4566 17.4671C55.6308 17.6224 56.8484 17.8614 58.1101 18.1867L59.1087 14.3133C57.7037 13.9511 56.3275 13.6797 54.9809 13.5016L54.4566 17.4671ZM60.6015 16.0721C60.5223 15.1852 60.2484 14.3492 59.7802 13.5904L56.3761 15.6908C56.512 15.9112 56.5923 16.1481 56.6173 16.4279L60.6015 16.0721ZM59.79 13.6064C59.3166 12.8229 58.6724 12.1859 57.907 11.6854L55.718 15.0333C56.0359 15.2412 56.2355 15.4583 56.3663 15.6749L59.79 13.6064ZM57.9442 11.7103C57.1851 11.1894 56.3159 10.824 55.3788 10.5801L54.3712 14.4511C54.955 14.6031 55.3774 14.8002 55.6808 15.0084L57.9442 11.7103ZM55.3853 10.5818C54.4351 10.3311 53.4044 10.2188 52.3125 10.2188V14.2188C53.1373 14.2188 53.8149 14.3043 54.3647 14.4494L55.3853 10.5818ZM52.3125 10.2188C51.7134 10.2188 51.0729 10.2546 50.3947 10.3224L50.7928 14.3026C51.3646 14.2454 51.87 14.2188 52.3125 14.2188V10.2188ZM50.3947 10.3224C49.7086 10.391 49.0061 10.4933 48.2877 10.628L49.0248 14.5595C49.6397 14.4442 50.2289 14.359 50.7928 14.3026L50.3947 10.3224ZM48.2877 10.628C47.5597 10.7645 46.8379 10.935 46.1224 11.1395L47.2213 14.9855C47.8183 14.815 48.4195 14.673 49.0248 14.5595L48.2877 10.628ZM46.1143 11.1418C45.3798 11.355 44.6804 11.6133 44.0191 11.9194L45.6996 15.5493C46.1634 15.3346 46.6723 15.145 47.2295 14.9832L46.1143 11.1418ZM46.7349 13.0397L45.3286 9.24287L41.5776 10.6321L42.9839 14.429L46.7349 13.0397ZM44.1276 11.8203C44.7658 11.5917 45.455 11.3793 46.1965 11.1841L45.1785 7.31585C44.3367 7.53739 43.5362 7.78329 42.7787 8.05465L44.1276 11.8203ZM46.1903 11.1858C46.9391 10.9913 47.7041 10.8255 48.4854 10.6888L47.7959 6.74869C46.9105 6.90363 46.0401 7.09206 45.1847 7.31423L46.1903 11.1858ZM48.5092 10.6845C49.2871 10.5386 50.0638 10.427 50.8396 10.3494L50.4416 6.3693C49.5507 6.45839 48.6608 6.58636 47.772 6.75301L48.5092 10.6845ZM50.8396 10.3494C51.6115 10.2723 52.3523 10.2344 53.0625 10.2344V6.23438C52.2102 6.23438 51.3364 6.27982 50.4416 6.3693L50.8396 10.3494ZM53.0625 10.2344C56.196 10.2344 58.1374 11.0321 59.3019 12.2545L62.1981 9.49548C60.0084 7.19704 56.8248 6.23438 53.0625 6.23438V10.2344ZM59.3019 12.2545C60.4834 13.4947 61.2656 15.5971 61.2656 18.9688H65.2656C65.2656 15.0695 64.3707 11.7761 62.1981 9.49548L59.3019 12.2545ZM61.2656 18.9688V27H65.2656V18.9688H61.2656ZM63.2656 25H58.6406V29H63.2656V25ZM60.6406 27V25.2656H56.6406V27H60.6406ZM57.6282 23.5408C57.2255 23.7772 56.7715 24.0074 56.2626 24.2294L57.8624 27.8956C58.4994 27.6176 59.0974 27.3166 59.653 26.9905L57.6282 23.5408ZM56.2502 24.2349C55.7856 24.4414 55.2627 24.6288 54.6773 24.7934L55.7602 28.6441C56.5081 28.4337 57.2144 28.1836 57.8748 27.8901L56.2502 24.2349ZM54.6773 24.7934C54.1105 24.9528 53.4841 25.0811 52.7947 25.1743L53.3303 29.1382C54.1825 29.0231 54.9936 28.8597 55.7602 28.6441L54.6773 24.7934ZM52.7645 25.1786C52.1128 25.2768 51.4058 25.3281 50.6406 25.3281V29.3281C51.5838 29.3281 52.4913 29.2649 53.3605 29.1339L52.7645 25.1786ZM50.6406 25.3281C49.3425 25.3281 48.2685 25.1864 47.3932 24.9363L46.2943 28.7824C47.6065 29.1573 49.0638 29.3281 50.6406 29.3281V25.3281ZM47.3981 24.9377C46.4975 24.678 45.826 24.3418 45.3323 23.968L42.9177 27.157C43.8823 27.8873 45.0233 28.4158 46.2894 28.781L47.3981 24.9377ZM45.3323 23.968C44.8199 23.5801 44.4766 23.1624 44.2526 22.7205L40.6849 24.5295C41.2109 25.5667 41.9717 26.4408 42.9177 27.157L45.3323 23.968ZM44.2675 22.7506C44.0419 22.2865 43.9219 21.7749 43.9219 21.1875H39.9219C39.9219 22.3501 40.1664 23.4635 40.67 24.4994L44.2675 22.7506ZM44.7969 21.0312C44.7969 21.6954 44.9727 22.3191 45.2829 22.8775L48.7796 20.935C48.7758 20.9282 48.7814 20.9367 48.7874 20.9591C48.7935 20.9821 48.7969 21.0076 48.7969 21.0312H44.7969ZM45.2989 22.9057C45.6574 23.5272 46.1716 23.9869 46.7075 24.3279L48.855 20.9533C48.7817 20.9066 48.7463 20.8748 48.7352 20.8639C48.725 20.854 48.7407 20.8671 48.7636 20.9068L45.2989 22.9057ZM46.7446 24.351C47.3058 24.6911 47.9418 24.9266 48.5997 25.0943L49.5878 21.2182C49.1832 21.1151 48.9442 21.0068 48.8179 20.9302L46.7446 24.351ZM48.644 25.105C49.3759 25.2739 50.1863 25.3438 51.0469 25.3438V21.3438C50.3866 21.3438 49.895 21.2886 49.5435 21.2075L48.644 25.105ZM51.0469 25.3438C51.9796 25.3438 52.8924 25.26 53.7829 25.0892L53.0296 21.1608C52.3992 21.2817 51.7392 21.3438 51.0469 21.3438V25.3438ZM53.7829 25.0892C54.6374 24.9253 55.4502 24.7056 56.2171 24.4256L54.8454 20.6682C54.2998 20.8673 53.6959 21.033 53.0296 21.1608L53.7829 25.0892ZM56.2171 24.4256C56.9724 24.1498 57.6781 23.8241 58.3265 23.4426L56.2985 19.9949C55.8844 20.2384 55.4026 20.4647 54.8454 20.6682L56.2171 24.4256ZM58.3265 23.4426C58.9539 23.0736 59.5243 22.6648 60.0114 22.2064L57.2699 19.2936C57.0486 19.5019 56.7336 19.7389 56.2985 19.9949L58.3265 23.4426ZM60.6406 20.75V19.9375H56.6406V20.75H60.6406ZM59.1788 18.0113C58.4204 17.7994 57.6648 17.6201 56.9122 17.4741L56.1503 21.4009C56.7935 21.5257 57.4442 21.6798 58.1024 21.8637L59.1788 18.0113ZM56.9178 17.4752C56.1827 17.3304 55.4682 17.2176 54.7749 17.138L54.3189 21.112C54.8964 21.1782 55.5048 21.2738 56.1447 21.3998L56.9178 17.4752ZM54.8112 17.1425C54.1412 17.0532 53.496 16.9906 52.8766 16.9562L52.6547 20.95C53.1603 20.9781 53.7026 21.0301 54.2825 21.1075L54.8112 17.1425ZM52.8787 16.9563C52.3003 16.9236 51.7767 16.9062 51.3125 16.9062V20.9062C51.6816 20.9062 52.1268 20.9202 52.6526 20.9499L52.8787 16.9563ZM51.3125 16.9062C50.3725 16.9062 49.5115 16.9675 48.764 17.117L49.5485 21.0393C49.9468 20.9596 50.5233 20.9062 51.3125 20.9062V16.9062ZM48.764 17.117C48.0685 17.2561 47.387 17.4673 46.79 17.801L48.7413 21.2928C48.8525 21.2306 49.0982 21.1293 49.5485 21.0393L48.764 17.117ZM46.8298 17.7793C46.2491 18.0868 45.6588 18.5484 45.2706 19.2415L48.7606 21.196C48.7134 21.2804 48.6659 21.3282 48.647 21.3451C48.6302 21.3602 48.6412 21.3463 48.7014 21.3145L46.8298 17.7793ZM45.2706 19.2415C44.9682 19.7816 44.7969 20.3868 44.7969 21.0312H48.7969C48.7969 21.0657 48.7921 21.1025 48.7828 21.1371C48.7736 21.1711 48.7633 21.1912 48.7606 21.196L45.2706 19.2415ZM69.3906 8.5625V6.5625H67.3906V8.5625H69.3906ZM74.0156 8.5625H76.0156V6.5625H74.0156V8.5625ZM74.0156 11.2188H72.0156V15.2024L75.2104 12.8227L74.0156 11.2188ZM80.6406 7.98438L82.5449 7.37304L81.9674 5.57426L80.1387 6.04838L80.6406 7.98438ZM82 12.2188L82.1979 14.2089L84.6608 13.9641L83.9043 11.6074L82 12.2188ZM77.2969 13.4219L78.1287 15.2407L78.135 15.2378L77.2969 13.4219ZM74.0156 16.0312L72.4156 14.8313L72.0156 15.3646V16.0312H74.0156ZM74.0156 27V29H76.0156V27H74.0156ZM69.3906 27H67.3906V29H69.3906V27ZM69.3906 10.5625H74.0156V6.5625H69.3906V10.5625ZM72.0156 8.5625V11.2188H76.0156V8.5625H72.0156ZM75.2104 12.8227C76.1316 12.1364 77.1027 11.5455 78.1246 11.0486L76.3754 7.45135C75.1265 8.05863 73.9413 8.78025 72.8209 9.61483L75.2104 12.8227ZM78.1246 11.0486C79.1508 10.5497 80.1565 10.176 81.1425 9.92037L80.1387 6.04838C78.8747 6.37607 77.62 6.84618 76.3754 7.45135L78.1246 11.0486ZM78.7363 8.59571L80.0957 12.8301L83.9043 11.6074L82.5449 7.37304L78.7363 8.59571ZM81.8021 10.2286C79.8423 10.4234 78.051 10.8711 76.4588 11.606L78.135 15.2378C79.2511 14.7227 80.5952 14.3683 82.1979 14.2089L81.8021 10.2286ZM76.465 11.6031C74.8335 12.3493 73.47 13.4254 72.4156 14.8313L75.6156 17.2312C76.2487 16.3871 77.0727 15.7237 78.1287 15.2407L76.465 11.6031ZM72.0156 16.0312V27H76.0156V16.0312H72.0156ZM74.0156 25H69.3906V29H74.0156V25ZM71.3906 27V8.5625H67.3906V27H71.3906ZM98.0938 12.0312H100.094V10.0312H98.0938V12.0312ZM94.9375 12.0312H92.9375V14.0312H94.9375V12.0312ZM94.9375 8.5625V6.5625H92.9375V8.5625H94.9375ZM98.0938 8.5625V10.5625H100.094V8.5625H98.0938ZM98.625 5.23438L100.503 5.92111L100.506 5.91465L98.625 5.23438ZM100.156 2.76562L98.742 1.35141L100.156 2.76562ZM102.609 1.21875L101.923 -0.659666L101.916 -0.657239L102.609 1.21875ZM108.359 0.9375L107.957 2.89671L107.97 2.89918L107.982 2.90151L108.359 0.9375ZM110.516 1.625L112.358 2.40211L113.097 0.65121L111.386 -0.175698L110.516 1.625ZM108.875 5.51562L107.867 7.24318L109.833 8.39011L110.718 6.29273L108.875 5.51562ZM107.812 5.10938L107.275 7.0358L107.286 7.0389L107.812 5.10938ZM103.75 5.82812L105.104 7.30046L105.105 7.29952L103.75 5.82812ZM102.719 8.5625L100.72 8.49474L100.65 10.5625H102.719V8.5625ZM108.547 8.5625H110.547V6.5625H108.547V8.5625ZM108.547 12.0312V14.0312H110.547V12.0312H108.547ZM102.719 12.0312V10.0312H100.719V12.0312H102.719ZM102.719 27V29H104.719V27H102.719ZM98.0938 27H96.0938V29H98.0938V27ZM98.0938 10.0312H94.9375V14.0312H98.0938V10.0312ZM96.9375 12.0312V8.5625H92.9375V12.0312H96.9375ZM94.9375 10.5625H98.0938V6.5625H94.9375V10.5625ZM100.094 8.5625C100.094 7.49864 100.245 6.62876 100.503 5.9211L96.7466 4.54765C96.297 5.77749 96.0938 7.12636 96.0938 8.5625H100.094ZM100.506 5.91465C100.771 5.18229 101.132 4.61822 101.57 4.17984L98.742 1.35141C97.8471 2.24636 97.1877 3.32813 96.7442 4.5541L100.506 5.91465ZM101.57 4.17984C102.03 3.7204 102.597 3.35565 103.303 3.09474L101.916 -0.657239C100.705 -0.209816 99.6368 0.456687 98.742 1.35141L101.57 4.17984ZM103.296 3.09715C104.011 2.83591 104.862 2.6875 105.875 2.6875V-1.3125C104.472 -1.3125 103.146 -1.10675 101.923 -0.659655L103.296 3.09715ZM105.875 2.6875C106.586 2.6875 107.28 2.75763 107.957 2.89671L108.761 -1.02171C107.814 -1.21597 106.851 -1.3125 105.875 -1.3125V2.6875ZM107.982 2.90151C108.655 3.03103 109.203 3.21204 109.645 3.4257L111.386 -0.175698C110.578 -0.566206 109.689 -0.843526 108.737 -1.02651L107.982 2.90151ZM108.673 0.847894L107.032 4.73852L110.718 6.29273L112.358 2.40211L108.673 0.847894ZM109.883 3.78807C109.417 3.51611 108.873 3.32548 108.339 3.17985L107.286 7.0389C107.669 7.14327 107.833 7.22348 107.867 7.24318L109.883 3.78807ZM108.35 3.18298C107.701 3.00189 107.022 2.92188 106.328 2.92188V6.92188C106.717 6.92188 107.028 6.96686 107.275 7.03577L108.35 3.18298ZM106.328 2.92188C104.865 2.92188 103.489 3.34956 102.395 4.35673L105.105 7.29952C105.323 7.09836 105.666 6.92188 106.328 6.92188V2.92188ZM102.396 4.35579C101.22 5.43775 100.772 6.94879 100.72 8.49474L104.718 8.63026C104.749 7.71787 104.989 7.406 105.104 7.30046L102.396 4.35579ZM102.719 10.5625H108.547V6.5625H102.719V10.5625ZM106.547 8.5625V12.0312H110.547V8.5625H106.547ZM108.547 10.0312H102.719V14.0312H108.547V10.0312ZM100.719 12.0312V27H104.719V12.0312H100.719ZM102.719 25H98.0938V29H102.719V25ZM100.094 27V12.0312H96.0938V27H100.094ZM111.797 14.0625L109.986 13.2141L109.983 13.2208L109.98 13.2275L111.797 14.0625ZM114.094 11.0312L112.786 9.51829L112.778 9.52511L114.094 11.0312ZM117.703 8.98438L117.037 7.09839L117.033 7.09995L117.703 8.98438ZM127.219 8.98438L126.549 10.8688L126.553 10.8704L127.219 8.98438ZM130.828 11.0312L129.512 12.5374L129.52 12.5442L130.828 11.0312ZM133.125 14.0625L131.308 14.8975L131.311 14.9042L131.314 14.9109L133.125 14.0625ZM133.125 21.5L131.314 20.6516L131.311 20.6583L131.308 20.665L133.125 21.5ZM130.828 24.5312L129.52 23.0183L129.512 23.0251L130.828 24.5312ZM127.219 26.5781L126.553 24.6921L126.549 24.6937L127.219 26.5781ZM117.703 26.5781L117.033 28.4626L117.037 28.4641L117.703 26.5781ZM114.094 24.5312L112.778 26.0374L112.786 26.0442L114.094 24.5312ZM111.797 21.5L109.98 22.335L109.983 22.3417L109.986 22.3484L111.797 21.5ZM116.297 19.8906L114.465 20.6923L114.472 20.7097L114.48 20.7269L116.297 19.8906ZM117.594 21.6406L116.25 23.1217L116.264 23.1347L116.279 23.1475L117.594 21.6406ZM119.672 22.8438L118.975 24.7184L118.989 24.7237L119.004 24.7288L119.672 22.8438ZM125.25 22.8438L125.926 24.7261L125.932 24.7237L125.939 24.7212L125.25 22.8438ZM127.328 21.6406L128.657 23.1354L128.659 23.1339L127.328 21.6406ZM128.625 19.8906L126.803 19.0652L126.8 19.0717L126.797 19.0783L128.625 19.8906ZM128.625 15.6719L126.793 16.4735L126.798 16.4855L126.803 16.4973L128.625 15.6719ZM127.328 13.9219L125.984 15.403L125.998 15.416L126.013 15.4287L127.328 13.9219ZM125.25 12.7188L124.553 14.5934L124.567 14.5987L124.582 14.6038L125.25 12.7188ZM119.672 12.7188L120.348 14.6011L120.354 14.5987L120.361 14.5962L119.672 12.7188ZM117.594 13.9219L118.922 15.4167L118.924 15.4152L117.594 13.9219ZM116.297 15.6719L114.475 14.8464L114.47 14.8583L114.465 14.8702L116.297 15.6719ZM113 17.7812C113 16.7349 113.208 15.7814 113.614 14.8975L109.98 13.2275C109.323 14.6561 109 16.1818 109 17.7812H113ZM113.608 14.9109C114.029 14.0133 114.623 13.2249 115.41 12.5374L112.778 9.52511C111.586 10.5668 110.649 11.7992 109.986 13.2141L113.608 14.9109ZM115.402 12.5442C116.191 11.8615 117.171 11.2963 118.373 10.8688L117.033 7.09995C115.423 7.67245 113.996 8.47179 112.786 9.51831L115.402 12.5442ZM118.369 10.8704C119.538 10.4575 120.897 10.2344 122.469 10.2344V6.23438C120.52 6.23438 118.701 6.51121 117.037 7.09839L118.369 10.8704ZM122.469 10.2344C124.041 10.2344 125.392 10.4576 126.549 10.8688L127.889 7.09995C126.233 6.51112 124.417 6.23438 122.469 6.23438V10.2344ZM126.553 10.8704C127.765 11.298 128.739 11.8616 129.512 12.5374L132.144 9.52511C130.938 8.47176 129.506 7.67073 127.884 7.09839L126.553 10.8704ZM129.52 12.5442C130.312 13.2292 130.9 14.0112 131.308 14.8975L134.942 13.2275C134.287 11.8013 133.344 10.5624 132.136 9.51831L129.52 12.5442ZM131.314 14.9109C131.727 15.792 131.938 16.7407 131.938 17.7812H135.938C135.938 16.176 135.607 14.6455 134.936 13.2141L131.314 14.9109ZM131.938 17.7812C131.938 18.8218 131.727 19.7705 131.314 20.6516L134.936 22.3484C135.607 20.917 135.938 19.3865 135.938 17.7812H131.938ZM131.308 20.665C130.9 21.5513 130.312 22.3333 129.52 23.0183L132.136 26.0442C133.344 25.0001 134.287 23.7612 134.942 22.335L131.308 20.665ZM129.512 23.0251C128.739 23.7009 127.765 24.2645 126.553 24.6921L127.884 28.4641C129.506 27.8918 130.938 27.0907 132.144 26.0374L129.512 23.0251ZM126.549 24.6937C125.392 25.1049 124.041 25.3281 122.469 25.3281V29.3281C124.417 29.3281 126.233 29.0514 127.889 28.4626L126.549 24.6937ZM122.469 25.3281C120.897 25.3281 119.538 25.105 118.369 24.6921L117.037 28.4641C118.701 29.0513 120.52 29.3281 122.469 29.3281V25.3281ZM118.373 24.6937C117.171 24.2662 116.191 23.701 115.402 23.0183L112.786 26.0442C113.996 27.0907 115.423 27.8901 117.033 28.4626L118.373 24.6937ZM115.41 23.0251C114.623 22.3376 114.029 21.5492 113.608 20.6516L109.986 22.3484C110.649 23.7633 111.586 24.9957 112.778 26.0374L115.41 23.0251ZM113.614 20.665C113.208 19.7811 113 18.8276 113 17.7812H109C109 19.3807 109.323 20.9064 109.98 22.335L113.614 20.665ZM113.859 17.7812C113.859 18.7921 114.06 19.7686 114.465 20.6923L118.129 19.089C117.95 18.6793 117.859 18.2496 117.859 17.7812H113.859ZM114.48 20.7269C114.901 21.6402 115.498 22.4399 116.25 23.1217L118.938 20.1595C118.564 19.8206 118.297 19.4535 118.114 19.0543L114.48 20.7269ZM116.279 23.1475C117.057 23.827 117.967 24.3437 118.975 24.7184L120.369 20.9691C119.752 20.7396 119.276 20.4542 118.909 20.1338L116.279 23.1475ZM119.004 24.7288C120.078 25.1096 121.242 25.2812 122.469 25.2812V21.2812C121.612 21.2812 120.911 21.1612 120.34 20.9587L119.004 24.7288ZM122.469 25.2812C123.695 25.2812 124.857 25.1098 125.926 24.7261L124.574 20.9614C124.018 21.161 123.326 21.2812 122.469 21.2812V25.2812ZM125.939 24.7212C126.959 24.3468 127.879 23.827 128.657 23.1354L125.999 20.1458C125.652 20.4543 125.187 20.7365 124.561 20.9663L125.939 24.7212ZM128.659 23.1339C129.429 22.4476 130.038 21.6364 130.453 20.7029L126.797 19.0783C126.629 19.4573 126.373 19.8128 125.998 20.1473L128.659 23.1339ZM130.447 20.7161C130.868 19.7873 131.078 18.8025 131.078 17.7812H127.078C127.078 18.2392 126.987 18.6606 126.803 19.0652L130.447 20.7161ZM131.078 17.7812C131.078 16.76 130.868 15.7752 130.447 14.8464L126.803 16.4973C126.987 16.9019 127.078 17.3233 127.078 17.7812H131.078ZM130.457 14.8702C130.042 13.921 129.428 13.1001 128.643 12.415L126.013 15.4287C126.374 15.7436 126.625 16.0894 126.793 16.4735L130.457 14.8702ZM128.672 12.4408C127.886 11.7276 126.954 11.2007 125.918 10.8337L124.582 14.6038C125.192 14.8201 125.645 15.0953 125.984 15.403L128.672 12.4408ZM125.947 10.8441C124.872 10.4443 123.702 10.2656 122.469 10.2656V14.2656C123.319 14.2656 124.003 14.3891 124.553 14.5934L125.947 10.8441ZM122.469 10.2656C121.235 10.2656 120.064 10.4445 118.983 10.8413L120.361 14.5962C120.926 14.3889 121.619 14.2656 122.469 14.2656V10.2656ZM118.996 10.8364C117.973 11.2038 117.05 11.7277 116.263 12.4286L118.924 15.4152C119.283 15.0952 119.746 14.817 120.348 14.6011L118.996 10.8364ZM116.265 12.4271C115.499 13.1078 114.896 13.9173 114.475 14.8464L118.119 16.4973C118.302 16.0932 118.563 15.736 118.922 15.4167L116.265 12.4271ZM114.465 14.8702C114.06 15.7939 113.859 16.7704 113.859 17.7812H117.859C117.859 17.3129 117.95 16.8832 118.129 16.4735L114.465 14.8702ZM138.609 8.5625V6.5625H136.609V8.5625H138.609ZM143.234 8.5625H145.234V6.5625H143.234V8.5625ZM143.234 11.2188H141.234V15.2024L144.429 12.8227L143.234 11.2188ZM149.859 7.98438L151.764 7.37304L151.186 5.57426L149.357 6.04838L149.859 7.98438ZM151.219 12.2188L151.417 14.2089L153.88 13.9641L153.123 11.6074L151.219 12.2188ZM146.516 13.4219L147.347 15.2407L147.354 15.2378L146.516 13.4219ZM143.234 16.0312L141.634 14.8313L141.234 15.3646V16.0312H143.234ZM143.234 27V29H145.234V27H143.234ZM138.609 27H136.609V29H138.609V27ZM138.609 10.5625H143.234V6.5625H138.609V10.5625ZM141.234 8.5625V11.2188H145.234V8.5625H141.234ZM144.429 12.8227C145.35 12.1364 146.321 11.5455 147.343 11.0486L145.594 7.45135C144.345 8.05863 143.16 8.78025 142.04 9.61483L144.429 12.8227ZM147.343 11.0486C148.37 10.5497 149.375 10.176 150.361 9.92037L149.357 6.04838C148.093 6.37607 146.839 6.84618 145.594 7.45135L147.343 11.0486ZM147.955 8.59571L149.314 12.8301L153.123 11.6074L151.764 7.37304L147.955 8.59571ZM151.021 10.2286C149.061 10.4234 147.27 10.8711 145.678 11.606L147.354 15.2378C148.47 14.7227 149.814 14.3683 151.417 14.2089L151.021 10.2286ZM145.684 11.6031C144.052 12.3493 142.689 13.4254 141.634 14.8313L144.834 17.2312C145.467 16.3871 146.291 15.7237 147.347 15.2407L145.684 11.6031ZM141.234 16.0312V27H145.234V16.0312H141.234ZM143.234 25H138.609V29H143.234V25ZM140.609 27V8.5625H136.609V27H140.609ZM165.875 2.57812V0.578125H163.875V2.57812H165.875ZM186.422 5.84375L185.14 7.37915L185.147 7.38487L185.154 7.39053L186.422 5.84375ZM189.25 9.65625L187.399 10.4145L187.403 10.4223L187.406 10.4301L189.25 9.65625ZM189.266 19.6094L191.116 20.3676L191.118 20.3632L189.266 19.6094ZM186.453 23.5156L187.764 25.0262L187.771 25.02L186.453 23.5156ZM181.672 26.0938L182.28 27.9992L182.289 27.9962L181.672 26.0938ZM174.859 27.0156L174.856 29.0156H174.859V27.0156ZM165.875 27H163.875V28.9965L165.872 29L165.875 27ZM179.938 22.1562L180.575 24.0518L180.583 24.0492L180.591 24.0464L179.938 22.1562ZM182.719 20.5312L181.356 19.0671L181.346 19.0767L182.719 20.5312ZM184.406 11.4531L182.541 12.1751L182.544 12.1819L184.406 11.4531ZM182.719 9L181.368 10.4752L181.379 10.4851L181.39 10.4948L182.719 9ZM170.828 6.89062V4.89062H168.828V6.89062H170.828ZM170.828 22.7188H168.828V24.7188H170.828V22.7188ZM165.875 4.57812H174.828V0.578125H165.875V4.57812ZM174.828 4.57812C177.307 4.57812 179.381 4.84564 181.08 5.34176L182.201 1.50199C180.047 0.873111 177.578 0.578125 174.828 0.578125V4.57812ZM181.08 5.34176C182.8 5.84387 184.133 6.53818 185.14 7.37915L187.703 4.30835C186.19 3.04515 184.335 2.12488 182.201 1.50199L181.08 5.34176ZM185.154 7.39053C186.172 8.2248 186.912 9.226 187.399 10.4145L191.101 8.89798C190.358 7.0865 189.214 5.54603 187.69 4.29697L185.154 7.39053ZM187.406 10.4301C187.913 11.6398 188.188 13.048 188.188 14.6875H192.188C192.188 12.5978 191.837 10.6519 191.094 8.88244L187.406 10.4301ZM188.188 14.6875C188.188 16.2223 187.922 17.6044 187.413 18.8556L191.118 20.3632C191.838 18.5935 192.188 16.6944 192.188 14.6875H188.188ZM187.415 18.8511C186.922 20.0547 186.171 21.1041 185.135 22.0112L187.771 25.02C189.256 23.7189 190.38 22.1641 191.116 20.3676L187.415 18.8511ZM185.142 22.0051C184.123 22.8896 182.78 23.6318 181.055 24.1913L182.289 27.9962C184.418 27.3057 186.262 26.3291 187.764 25.0262L185.142 22.0051ZM181.064 24.1883C179.381 24.725 177.325 25.0156 174.859 25.0156V29.0156C177.623 29.0156 180.108 28.6917 182.28 27.9992L181.064 24.1883ZM174.863 25.0156L165.878 25L165.872 29L174.856 29.0156L174.863 25.0156ZM167.875 27V2.57812H163.875V27H167.875ZM176.047 24.7188C177.689 24.7188 179.21 24.5112 180.575 24.0518L179.3 20.2607C178.436 20.5513 177.363 20.7188 176.047 20.7188V24.7188ZM180.591 24.0464C181.931 23.5831 183.115 22.9069 184.091 21.9858L181.346 19.0767C180.843 19.5514 180.173 19.9586 179.284 20.2661L180.591 24.0464ZM184.081 21.9954C185.064 21.081 185.796 19.976 186.276 18.7087L182.536 17.2913C182.266 18.0032 181.874 18.5856 181.356 19.0671L184.081 21.9954ZM186.276 18.7087C186.749 17.4611 186.969 16.1122 186.969 14.6875H182.969C182.969 15.7003 182.813 16.5597 182.536 17.2913L186.276 18.7087ZM186.969 14.6875C186.969 13.2805 186.748 11.9497 186.269 10.7243L182.544 12.1819C182.814 12.8732 182.969 13.6987 182.969 14.6875H186.969ZM186.271 10.7311C185.786 9.47659 185.044 8.39071 184.047 7.50518L181.39 10.4948C181.894 10.9426 182.277 11.4922 182.541 12.1751L186.271 10.7311ZM184.069 7.52483C183.087 6.62577 181.899 5.97479 180.559 5.53661L179.316 9.33839C180.205 9.62938 180.871 10.0201 181.368 10.4752L184.069 7.52483ZM180.559 5.53661C179.199 5.0918 177.685 4.89062 176.047 4.89062V8.89062C177.367 8.89062 178.446 9.05403 179.316 9.33839L180.559 5.53661ZM176.047 4.89062H170.828V8.89062H176.047V4.89062ZM168.828 6.89062V22.7188H172.828V6.89062H168.828ZM170.828 24.7188H176.047V20.7188H170.828V24.7188ZM194.578 8.54688V6.54688H192.578V8.54688H194.578ZM199.188 8.54688H201.188V6.54688H199.188V8.54688ZM199.469 19.8906L197.535 20.4024L197.537 20.4095L199.469 19.8906ZM200.422 21.6875L198.932 23.022L198.94 23.0305L198.948 23.0389L200.422 21.6875ZM202.234 22.8594L201.532 24.732L201.548 24.7379L201.563 24.7434L202.234 22.8594ZM206.672 23.0938L206.265 21.1355L206.258 21.1371L206.672 23.0938ZM208.25 22.625L208.986 24.4846L209.003 24.478L209.019 24.4712L208.25 22.625ZM209.641 21.8906L208.559 20.2083L208.55 20.2142L208.541 20.2203L209.641 21.8906ZM210.766 20.9688L212.225 22.3366L212.766 21.7596V20.9688H210.766ZM210.766 8.54688V6.54688H208.766V8.54688H210.766ZM215.391 8.54688H217.391V6.54688H215.391V8.54688ZM215.391 27V29H217.391V27H215.391ZM210.766 27H208.766V29H210.766V27ZM210.766 25.4219H212.766V21.9006L209.741 23.7041L210.766 25.4219ZM199.734 26.7031L199.092 28.5972L199.097 28.5989L199.734 26.7031ZM196.781 24.9375L195.348 26.3325L195.357 26.3422L195.367 26.3517L196.781 24.9375ZM195.109 22.0781L193.2 22.6737L193.202 22.6787L195.109 22.0781ZM194.578 10.5469H199.188V6.54688H194.578V10.5469ZM197.188 8.54688V17.5469H201.188V8.54688H197.188ZM197.188 17.5469C197.188 18.546 197.297 19.5022 197.535 20.4024L201.402 19.3788C201.265 18.8624 201.188 18.2561 201.188 17.5469H197.188ZM197.537 20.4095C197.8 21.3865 198.259 22.2709 198.932 23.022L201.912 20.353C201.689 20.1041 201.513 19.7906 201.4 19.3717L197.537 20.4095ZM198.948 23.0389C199.654 23.8095 200.54 24.3602 201.532 24.732L202.937 20.9867C202.428 20.7961 202.106 20.5655 201.896 20.3361L198.948 23.0389ZM201.563 24.7434C202.606 25.1147 203.792 25.2656 205.062 25.2656V21.2656C204.083 21.2656 203.384 21.1458 202.905 20.9753L201.563 24.7434ZM205.062 25.2656C205.739 25.2656 206.414 25.1926 207.086 25.0504L206.258 21.1371C205.847 21.2241 205.449 21.2656 205.062 21.2656V25.2656ZM207.078 25.052C207.737 24.9152 208.374 24.7268 208.986 24.4846L207.514 20.7654C207.126 20.919 206.71 21.0431 206.265 21.1355L207.078 25.052ZM209.019 24.4712C209.628 24.2175 210.203 23.915 210.741 23.561L208.541 20.2203C208.224 20.4288 207.872 20.6158 207.481 20.7788L209.019 24.4712ZM210.722 23.573C211.279 23.2148 211.786 22.8051 212.225 22.3366L209.307 19.6009C209.121 19.7991 208.877 20.0039 208.559 20.2083L210.722 23.573ZM212.766 20.9688V8.54688H208.766V20.9688H212.766ZM210.766 10.5469H215.391V6.54688H210.766V10.5469ZM213.391 8.54688V27H217.391V8.54688H213.391ZM215.391 25H210.766V29H215.391V25ZM212.766 27V25.4219H208.766V27H212.766ZM209.741 23.7041C208.752 24.294 207.789 24.6979 206.85 24.9368L207.837 28.8132C209.19 28.4688 210.508 27.9039 211.79 27.1396L209.741 23.7041ZM206.85 24.9368C205.843 25.1933 204.921 25.3125 204.078 25.3125V29.3125C205.298 29.3125 206.553 29.14 207.837 28.8132L206.85 24.9368ZM204.078 25.3125C202.541 25.3125 201.32 25.1263 200.372 24.8074L199.097 28.5989C200.565 29.0924 202.24 29.3125 204.078 29.3125V25.3125ZM200.377 24.8091C199.423 24.4856 198.717 24.0448 198.195 23.5233L195.367 26.3517C196.387 27.3719 197.65 28.1081 199.092 28.5972L200.377 24.8091ZM198.214 23.5425C197.69 23.0033 197.285 22.3292 197.017 21.4776L193.202 22.6787C193.642 24.077 194.352 25.3092 195.348 26.3325L198.214 23.5425ZM197.019 21.4826C196.736 20.5765 196.578 19.4913 196.578 18.2031H192.578C192.578 19.8107 192.774 21.3089 193.2 22.6737L197.019 21.4826ZM196.578 18.2031V8.54688H192.578V18.2031H196.578ZM221.266 8.5625V6.5625H219.266V8.5625H221.266ZM225.891 8.5625H227.891V6.5625H225.891V8.5625ZM225.891 10.125H223.891V13.5605L226.878 11.8642L225.891 10.125ZM229.406 8.65625L228.921 6.71596L228.917 6.71704L229.406 8.65625ZM236.609 8.85938L235.952 10.7484L235.96 10.7509L235.967 10.7534L236.609 8.85938ZM241.766 13.7344L239.91 14.4799L239.914 14.4895L239.918 14.4991L241.766 13.7344ZM242.516 27V29H244.516V27H242.516ZM237.906 27H235.906V29H237.906V27ZM237.469 15.9844L235.581 16.6462L235.587 16.661L235.592 16.6758L237.469 15.9844ZM236.234 13.9688L234.793 15.3555L234.807 15.3694L234.82 15.383L236.234 13.9688ZM234.281 12.7188L233.565 14.5861L233.58 14.592L233.596 14.5976L234.281 12.7188ZM230.172 12.4375L229.787 10.4749L229.78 10.4763L230.172 12.4375ZM228.625 12.8906L229.327 14.7633L229.338 14.7594L229.348 14.7553L228.625 12.8906ZM227.172 13.6094L228.201 15.3244L228.215 15.316L228.228 15.3075L227.172 13.6094ZM225.891 14.5781L224.516 13.1252L223.891 13.717V14.5781H225.891ZM225.891 27V29H227.891V27H225.891ZM221.266 27H219.266V29H221.266V27ZM221.266 10.5625H225.891V6.5625H221.266V10.5625ZM223.891 8.5625V10.125H227.891V8.5625H223.891ZM226.878 11.8642C227.985 11.2356 228.99 10.824 229.896 10.5955L228.917 6.71704C227.594 7.05098 226.254 7.61861 224.903 8.3858L226.878 11.8642ZM229.891 10.5965C230.87 10.3518 231.806 10.2344 232.703 10.2344V6.23438C231.454 6.23438 230.192 6.39823 228.921 6.71596L229.891 10.5965ZM232.703 10.2344C233.91 10.2344 234.987 10.4127 235.952 10.7484L237.266 6.97038C235.836 6.47269 234.309 6.23438 232.703 6.23438V10.2344ZM235.967 10.7534C236.914 11.0746 237.702 11.5437 238.358 12.1531L241.08 9.22191C239.986 8.20626 238.701 7.45667 237.252 6.96533L235.967 10.7534ZM238.358 12.1531C238.996 12.7456 239.519 13.5071 239.91 14.4799L243.621 12.9889C243.033 11.5242 242.192 10.2544 241.08 9.22191L238.358 12.1531ZM239.918 14.4991C240.298 15.4182 240.516 16.5503 240.516 17.9375H244.516C244.516 16.1372 244.233 14.4673 243.614 12.9697L239.918 14.4991ZM240.516 17.9375V27H244.516V17.9375H240.516ZM242.516 25H237.906V29H242.516V25ZM239.906 27V18.6875H235.906V27H239.906ZM239.906 18.6875C239.906 17.4865 239.733 16.345 239.345 15.293L235.592 16.6758C235.788 17.2071 235.906 17.8676 235.906 18.6875H239.906ZM239.356 15.3226C238.987 14.2687 238.425 13.3306 237.649 12.5545L234.82 15.383C235.127 15.6902 235.388 16.0959 235.581 16.6462L239.356 15.3226ZM237.676 12.582C236.918 11.7951 236.003 11.218 234.967 10.8399L233.596 14.5976C234.101 14.782 234.488 15.0382 234.793 15.3555L237.676 12.582ZM234.997 10.8514C233.974 10.4589 232.872 10.2812 231.719 10.2812V14.2812C232.461 14.2812 233.067 14.3952 233.565 14.5861L234.997 10.8514ZM231.719 10.2812C231.079 10.2812 230.435 10.3479 229.787 10.4749L230.557 14.4001C230.972 14.3188 231.358 14.2812 231.719 14.2812V10.2812ZM229.78 10.4763C229.143 10.6038 228.516 10.7877 227.902 11.0259L229.348 14.7553C229.754 14.5978 230.16 14.4796 230.564 14.3987L229.78 10.4763ZM227.923 11.018C227.295 11.2534 226.692 11.5522 226.115 11.9113L228.228 15.3075C228.589 15.0832 228.955 14.9029 229.327 14.7633L227.923 11.018ZM226.143 11.8944C225.554 12.2479 225.01 12.658 224.516 13.1252L227.265 16.0311C227.542 15.7691 227.853 15.5333 228.201 15.3244L226.143 11.8944ZM223.891 14.5781V27H227.891V14.5781H223.891ZM225.891 25H221.266V29H225.891V25ZM223.266 27V8.5625H219.266V27H223.266ZM251.094 30.125L251.766 28.2415L250.013 27.6153L249.263 29.3195L251.094 30.125ZM252.875 30.6406L253.344 28.6965L253.328 28.6926L253.312 28.689L252.875 30.6406ZM254.625 30.9844L254.948 29.0106L254.933 29.0082L254.918 29.006L254.625 30.9844ZM256.266 31.1719L256.425 29.1782L256.405 29.1767L256.385 29.1755L256.266 31.1719ZM260.859 30.7812L260.253 28.8754L260.24 28.8796L260.227 28.8839L260.859 30.7812ZM263.141 29.5938L261.878 28.0423L261.872 28.0476L261.865 28.053L263.141 29.5938ZM264.516 27.8438L262.699 27.0074L262.694 27.0183L264.516 27.8438ZM264.969 24.9531H266.969V21.1614L263.839 23.3025L264.969 24.9531ZM261.828 26.3906L261.262 24.4724L261.828 26.3906ZM259.797 26.8438L259.482 24.8687L259.477 24.8694L259.797 26.8438ZM253.406 26.3438L252.733 28.2269L252.739 28.2293L252.746 28.2317L253.406 26.3438ZM250.078 24.4375L248.759 25.9406L248.768 25.9489L250.078 24.4375ZM247.875 21.4844L246.054 22.312L246.057 22.3188L246.061 22.3256L247.875 21.4844ZM247.922 13.7969L249.727 14.6586L249.73 14.6524L247.922 13.7969ZM250.203 10.8125L248.916 9.28139L248.908 9.28822L250.203 10.8125ZM253.672 8.90625L253.035 7.01037L253.672 8.90625ZM261.875 8.70312L261.398 10.6454L261.406 10.6473L261.875 8.70312ZM263.562 9.23438L262.82 11.0913L262.842 11.1002L262.864 11.1085L263.562 9.23438ZM264.969 9.89062L263.953 11.6134L266.969 13.392V9.89062H264.969ZM264.969 8.5625V6.5625H262.969V8.5625H264.969ZM269.594 8.5625H271.594V6.5625H269.594V8.5625ZM266.578 32.5938L265.253 31.0955L265.245 31.1028L265.237 31.1103L266.578 32.5938ZM262.922 34.5938L262.335 32.6819L262.322 32.6858L262.922 34.5938ZM255.797 35.1875L255.968 33.1948L255.954 33.1936L255.939 33.1926L255.797 35.1875ZM253.594 34.9375L253.9 32.9611L253.888 32.9593L253.877 32.9576L253.594 34.9375ZM251.422 34.5469L251.847 32.5925L251.836 32.5902L251.825 32.588L251.422 34.5469ZM249.375 34.0312L247.544 33.2258L246.634 35.2937L248.798 35.9461L249.375 34.0312ZM252.391 19.7188L250.563 20.531L250.571 20.5487L250.579 20.5661L252.391 19.7188ZM253.672 21.4219L252.345 22.9183L252.353 22.9253L252.361 22.9323L253.672 21.4219ZM255.672 22.5625L254.994 24.4443L255.006 24.4483L255.017 24.4522L255.672 22.5625ZM260.203 22.7969L260.564 24.7641L260.576 24.7618L260.589 24.7593L260.203 22.7969ZM262.016 22.2812L261.313 20.4086L261.302 20.4128L262.016 22.2812ZM263.641 21.4844L262.596 19.7787L262.588 19.7835L262.581 19.7884L263.641 21.4844ZM264.969 20.4375L266.402 21.8322L266.969 21.2499V20.4375H264.969ZM264.969 14.3594H266.969V13.3981L266.218 12.7976L264.969 14.3594ZM260.25 12.4062L259.951 14.3838L259.97 14.3866L259.988 14.389L260.25 12.4062ZM255.797 12.7031L255.157 10.8081L255.15 10.8106L255.797 12.7031ZM253.703 13.8594L255 15.3819L255.002 15.3798L253.703 13.8594ZM250.421 32.0085C251.081 32.2443 251.754 32.4389 252.438 32.5922L253.312 28.689C252.788 28.5715 252.273 28.4224 251.766 28.2415L250.421 32.0085ZM252.406 32.5848C253.063 32.7434 253.705 32.8699 254.332 32.9628L254.918 29.006C254.42 28.9322 253.896 28.8295 253.344 28.6965L252.406 32.5848ZM254.302 32.9581C254.935 33.0617 255.55 33.1325 256.146 33.1683L256.385 29.1755C255.94 29.1487 255.461 29.0946 254.948 29.0106L254.302 32.9581ZM256.106 33.1655C256.666 33.2103 257.184 33.2344 257.656 33.2344V29.2344C257.316 29.2344 256.907 29.2168 256.425 29.1782L256.106 33.1655ZM257.656 33.2344C259.042 33.2344 260.333 33.065 261.492 32.6786L260.227 28.8839C259.573 29.1017 258.729 29.2344 257.656 29.2344V33.2344ZM261.466 32.6871C262.573 32.3348 263.575 31.8304 264.416 31.1345L261.865 28.053C261.498 28.3571 260.979 28.6444 260.253 28.8754L261.466 32.6871ZM264.403 31.1452C265.237 30.4662 265.897 29.6407 266.337 28.6692L262.694 27.0183C262.53 27.3801 262.273 27.7213 261.878 28.0423L264.403 31.1452ZM266.332 28.68C266.758 27.7552 266.969 26.7712 266.969 25.75H262.969C262.969 26.2079 262.877 26.6198 262.699 27.0075L266.332 28.68ZM266.969 25.75V24.9531H262.969V25.75H266.969ZM263.839 23.3025C263.549 23.5014 263.182 23.7106 262.727 23.9247L264.43 27.544C265.037 27.2582 265.597 26.9465 266.098 26.6037L263.839 23.3025ZM262.727 23.9247C262.298 24.1262 261.812 24.3102 261.262 24.4724L262.394 28.3089C263.115 28.0961 263.795 27.8425 264.43 27.544L262.727 23.9247ZM261.262 24.4724C260.717 24.6333 260.124 24.7663 259.482 24.8687L260.112 28.8188C260.907 28.692 261.669 28.5229 262.394 28.3089L261.262 24.4724ZM259.477 24.8694C258.881 24.9659 258.254 25.0156 257.594 25.0156V29.0156C258.455 29.0156 259.296 28.9507 260.116 28.8181L259.477 24.8694ZM257.594 25.0156C256.283 25.0156 255.113 24.8217 254.066 24.4558L252.746 28.2317C254.262 28.7617 255.884 29.0156 257.594 29.0156V25.0156ZM254.08 24.4606C253.009 24.0776 252.121 23.5613 251.388 22.9261L248.768 25.9489C249.91 26.9387 251.241 27.6932 252.733 28.2269L254.08 24.4606ZM251.397 22.9344C250.672 22.2976 250.105 21.5395 249.689 20.6431L246.061 22.3256C246.707 23.7209 247.609 24.9316 248.759 25.9406L251.397 22.9344ZM249.696 20.6568C249.305 19.7979 249.094 18.8135 249.094 17.6719H245.094C245.094 19.3219 245.403 20.8792 246.054 22.312L249.696 20.6568ZM249.094 17.6719C249.094 16.5088 249.317 15.5165 249.727 14.6586L246.117 12.9351C245.423 14.3897 245.094 15.9808 245.094 17.6719H249.094ZM249.73 14.6524C250.162 13.7384 250.749 12.9728 251.498 12.3368L248.908 9.28822C247.72 10.298 246.786 11.522 246.114 12.9414L249.73 14.6524ZM251.49 12.3436C252.259 11.6973 253.189 11.1782 254.309 10.8021L253.035 7.01037C251.488 7.53013 250.106 8.28191 248.916 9.28141L251.49 12.3436ZM254.309 10.8021C255.415 10.4304 256.646 10.2344 258.016 10.2344V6.23438C256.26 6.23438 254.595 6.4863 253.035 7.01037L254.309 10.8021ZM258.016 10.2344C258.599 10.2344 259.176 10.2708 259.748 10.3434L260.252 6.37531C259.511 6.28128 258.766 6.23438 258.016 6.23438V10.2344ZM259.748 10.3434C260.335 10.4179 260.884 10.5192 261.398 10.6454L262.352 6.76085C261.678 6.59539 260.978 6.46749 260.252 6.37531L259.748 10.3434ZM261.406 10.6473C261.927 10.773 262.397 10.9221 262.82 11.0913L264.305 7.37742C263.687 7.12994 263.032 6.9249 262.344 6.75896L261.406 10.6473ZM262.864 11.1085C263.307 11.2733 263.666 11.444 263.953 11.6134L265.985 8.16789C265.459 7.85808 264.881 7.59125 264.261 7.36021L262.864 11.1085ZM266.969 9.89062V8.5625H262.969V9.89062H266.969ZM264.969 10.5625H269.594V6.5625H264.969V10.5625ZM267.594 8.5625V24.8906H271.594V8.5625H267.594ZM267.594 24.8906C267.594 26.3669 267.369 27.5941 266.968 28.6087L270.688 30.0788C271.308 28.51 271.594 26.7685 271.594 24.8906H267.594ZM266.968 28.6087C266.567 29.6229 265.995 30.4399 265.253 31.0955L267.903 34.092C269.141 32.9976 270.068 31.648 270.688 30.0788L266.968 28.6087ZM265.237 31.1103C264.506 31.7711 263.557 32.3066 262.335 32.6819L263.509 36.5056C265.204 35.9851 266.692 35.1872 267.92 34.0772L265.237 31.1103ZM262.322 32.6858C261.097 33.0708 259.634 33.2812 257.906 33.2812V37.2812C259.95 37.2812 261.83 37.0333 263.522 36.5017L262.322 32.6858ZM257.906 33.2812C257.291 33.2812 256.645 33.2528 255.968 33.1948L255.626 37.1802C256.408 37.2472 257.168 37.2812 257.906 37.2812V33.2812ZM255.939 33.1926C255.266 33.1445 254.587 33.0675 253.9 32.9611L253.288 36.9139C254.08 37.0367 254.869 37.1263 255.654 37.1824L255.939 33.1926ZM253.877 32.9576C253.195 32.8602 252.518 32.7385 251.847 32.5925L250.997 36.5012C251.763 36.6677 252.534 36.8064 253.311 36.9174L253.877 32.9576ZM251.825 32.588C251.172 32.4536 250.548 32.2961 249.952 32.1164L248.798 35.9461C249.514 36.1622 250.255 36.3485 251.019 36.5058L251.825 32.588ZM251.206 34.8367L252.924 30.9305L249.263 29.3195L247.544 33.2258L251.206 34.8367ZM249.953 17.625C249.953 18.6358 250.154 19.6113 250.563 20.531L254.218 18.9065C254.044 18.5137 253.953 18.0933 253.953 17.625H249.953ZM250.579 20.5661C251.001 21.4678 251.596 22.2541 252.345 22.9183L254.999 19.9255C254.644 19.6105 254.385 19.2614 254.202 18.8714L250.579 20.5661ZM252.361 22.9323C253.123 23.5937 254.012 24.0907 254.994 24.4443L256.349 20.6807C255.769 20.4718 255.325 20.2083 254.983 19.9114L252.361 22.9323ZM255.017 24.4522C256.043 24.8081 257.15 24.9688 258.312 24.9688V20.9688C257.516 20.9688 256.863 20.8586 256.327 20.6728L255.017 24.4522ZM258.312 24.9688C259.069 24.9688 259.82 24.9005 260.564 24.7641L259.842 20.8297C259.336 20.9224 258.827 20.9688 258.312 20.9688V24.9688ZM260.589 24.7593C261.33 24.6135 262.044 24.4112 262.729 24.1497L261.302 20.4128C260.841 20.5888 260.347 20.7302 259.817 20.8345L260.589 24.7593ZM262.718 24.1539C263.419 23.891 264.081 23.5674 264.701 23.1804L262.581 19.7884C262.2 20.0263 261.779 20.234 261.313 20.4086L262.718 24.1539ZM264.685 23.1901C265.322 22.8002 265.899 22.3497 266.402 21.8322L263.535 19.0428C263.289 19.2962 262.98 19.5435 262.596 19.7787L264.685 23.1901ZM266.969 20.4375V14.3594H262.969V20.4375H266.969ZM266.218 12.7976C265.643 12.3374 265.029 11.9427 264.379 11.6174L262.59 15.1951C262.981 15.3906 263.357 15.6314 263.719 15.9211L266.218 12.7976ZM264.379 11.6174C263.762 11.3091 263.129 11.054 262.479 10.8541L261.302 14.6772C261.736 14.8106 262.165 14.9826 262.59 15.1951L264.379 11.6174ZM262.479 10.8541C261.832 10.6552 261.176 10.5112 260.512 10.4235L259.988 14.389C260.428 14.4471 260.865 14.5427 261.302 14.6772L262.479 10.8541ZM260.549 10.4287C259.905 10.3315 259.268 10.2812 258.641 10.2812V14.2812C259.055 14.2812 259.491 14.3144 259.951 14.3838L260.549 10.4287ZM258.641 10.2812C257.404 10.2812 256.234 10.4446 255.157 10.8081L256.436 14.5981C257.026 14.3991 257.752 14.2812 258.641 14.2812V10.2812ZM255.15 10.8106C254.124 11.1611 253.196 11.662 252.404 12.3389L255.002 15.3798C255.356 15.0776 255.823 14.8076 256.444 14.5956L255.15 10.8106ZM252.406 12.3369C251.634 12.9947 251.022 13.7849 250.595 14.6995L254.218 16.3942C254.394 16.0172 254.647 15.6823 255 15.3819L252.406 12.3369ZM250.595 14.6995C250.164 15.6206 249.953 16.6038 249.953 17.625H253.953C253.953 17.167 254.045 16.7648 254.218 16.3942L250.595 14.6995ZM274.75 14.1406L276.574 14.9607L276.577 14.9544L274.75 14.1406ZM280.469 9.01562L279.77 7.14181L279.765 7.14355L280.469 9.01562ZM289.969 9.03125L289.262 10.9022L289.27 10.9053L289.279 10.9084L289.969 9.03125ZM293.562 11.1875L292.196 12.6476L292.203 12.6547L293.562 11.1875ZM295.828 14.4219L293.984 15.1966L293.987 15.2032L293.99 15.2097L295.828 14.4219ZM296.609 18.9844L294.612 18.8845L294.609 18.9344V18.9844H296.609ZM296.578 19.5312V21.5312H298.344L298.563 19.7793L296.578 19.5312ZM279.141 19.5312V17.5312H276.299L277.258 20.2062L279.141 19.5312ZM280.094 21.0469L278.647 22.4278L278.655 22.4363L278.663 22.4447L280.094 21.0469ZM284.078 23.0156L283.659 24.9712L283.67 24.9736L283.681 24.9759L284.078 23.0156ZM290.156 22.9531L290.563 24.9112L290.573 24.9093L290.582 24.9073L290.156 22.9531ZM293.172 22.0938L295.001 21.2845L294.248 19.583L292.497 20.2112L293.172 22.0938ZM294.734 25.625L295.578 27.4382L297.357 26.6101L296.563 24.8157L294.734 25.625ZM292.891 26.375L293.533 28.2691L293.542 28.266L293.551 28.2627L292.891 26.375ZM290.953 26.9062L291.351 28.8662L291.363 28.8639L291.374 28.8614L290.953 26.9062ZM288.844 27.2188L288.648 25.2284L288.645 25.2287L288.844 27.2188ZM277.156 24.5312L275.886 26.0764L277.156 24.5312ZM291.719 15.9219V17.9219H294.476L293.62 15.3011L291.719 15.9219ZM290.938 14.5L289.351 15.7176L289.367 15.7382L289.383 15.7584L290.938 14.5ZM289.641 13.3438L288.563 15.0283L288.575 15.036L288.587 15.0436L289.641 13.3438ZM279.922 14.5312L278.385 13.2509L278.376 13.2618L278.367 13.2729L279.922 14.5312ZM279.141 15.9219L277.247 15.2773L276.347 17.9219H279.141V15.9219ZM275.984 17.7188C275.984 16.7502 276.18 15.8371 276.574 14.9607L272.926 13.3206C272.299 14.7149 271.984 16.1873 271.984 17.7188H275.984ZM276.577 14.9544C276.971 14.069 277.54 13.2822 278.302 12.5863L275.605 9.6324C274.45 10.6866 273.549 11.9206 272.923 13.3268L276.577 14.9544ZM278.302 12.5863C279.048 11.9052 279.992 11.3315 281.173 10.8877L279.765 7.14355C278.175 7.74141 276.775 8.56352 275.605 9.6324L278.302 12.5863ZM281.168 10.8894C282.302 10.4662 283.643 10.2344 285.219 10.2344V6.23438C283.253 6.23438 281.427 6.52343 279.77 7.14182L281.168 10.8894ZM285.219 10.2344C286.778 10.2344 288.117 10.4695 289.262 10.9022L290.676 7.16031C289.008 6.53049 287.18 6.23438 285.219 6.23438V10.2344ZM289.279 10.9084C290.476 11.3484 291.435 11.9354 292.196 12.6475L294.929 9.72746C293.732 8.60629 292.295 7.75573 290.659 7.15409L289.279 10.9084ZM292.203 12.6547C292.985 13.3784 293.574 14.2206 293.984 15.1966L297.672 13.6471C297.04 12.144 296.12 10.8299 294.922 9.72026L292.203 12.6547ZM293.99 15.2097C294.409 16.1879 294.625 17.2465 294.625 18.4062H298.625C298.625 16.7326 298.31 15.1351 297.666 13.634L293.99 15.2097ZM294.625 18.4062C294.625 18.5448 294.621 18.7038 294.612 18.8845L298.607 19.0843C298.619 18.8483 298.625 18.6219 298.625 18.4062H294.625ZM294.609 18.9844C294.609 19.1135 294.602 19.2118 294.594 19.2832L298.563 19.7793C298.595 19.5174 298.609 19.251 298.609 18.9844H294.609ZM296.578 17.5312H279.141V21.5312H296.578V17.5312ZM277.258 20.2062C277.558 21.0421 278.032 21.7837 278.647 22.4278L281.54 19.6659C281.28 19.3934 281.119 19.1246 281.023 18.8563L277.258 20.2062ZM278.663 22.4447C279.29 23.0859 280.037 23.6062 280.871 24.0232L282.66 20.4455C282.161 20.1959 281.793 19.9245 281.524 19.649L278.663 22.4447ZM280.871 24.0232C281.715 24.4452 282.651 24.7552 283.659 24.9712L284.497 21.06C283.755 20.901 283.149 20.6902 282.66 20.4455L280.871 24.0232ZM283.681 24.9759C284.709 25.1838 285.813 25.2812 286.984 25.2812V21.2812C286.031 21.2812 285.197 21.2016 284.475 21.0554L283.681 24.9759ZM286.984 25.2812C288.185 25.2812 289.379 25.1575 290.563 24.9112L289.749 20.995C288.829 21.1862 287.909 21.2812 286.984 21.2812V25.2812ZM290.582 24.9073C291.714 24.6607 292.803 24.3509 293.847 23.9763L292.497 20.2112C291.624 20.5241 290.703 20.7872 289.731 20.9989L290.582 24.9073ZM291.343 22.903L292.905 26.4343L296.563 24.8157L295.001 21.2845L291.343 22.903ZM293.89 23.8118C293.346 24.0654 292.792 24.2905 292.23 24.4873L293.551 28.2627C294.239 28.022 294.915 27.7471 295.578 27.4382L293.89 23.8118ZM292.249 24.4809C291.711 24.6631 291.139 24.8203 290.532 24.9511L291.374 28.8614C292.121 28.7005 292.841 28.5036 293.533 28.2691L292.249 24.4809ZM290.555 24.9463C289.961 25.067 289.325 25.1616 288.648 25.2284L289.04 29.2091C289.841 29.1301 290.612 29.0164 291.351 28.8662L290.555 24.9463ZM288.645 25.2287C287.988 25.2943 287.284 25.3281 286.531 25.3281V29.3281C287.403 29.3281 288.241 29.289 289.043 29.2088L288.645 25.2287ZM286.531 25.3281C284.613 25.3281 283.009 25.0961 281.688 24.6733L280.469 28.483C282.272 29.0601 284.303 29.3281 286.531 29.3281V25.3281ZM281.688 24.6733C280.318 24.235 279.247 23.6609 278.426 22.9861L275.886 26.0764C277.169 27.1308 278.713 27.9213 280.469 28.483L281.688 24.6733ZM278.426 22.9861C277.595 22.3028 276.998 21.5274 276.601 20.6555L272.961 22.3132C273.627 23.7747 274.614 25.0305 275.886 26.0764L278.426 22.9861ZM276.601 20.6555C276.194 19.7617 275.984 18.7906 275.984 17.7188H271.984C271.984 19.3344 272.306 20.8738 272.961 22.3132L276.601 20.6555ZM293.62 15.3011C293.374 14.5477 292.992 13.8594 292.492 13.2416L289.383 15.7584C289.591 16.0156 289.73 16.2752 289.818 16.5427L293.62 15.3011ZM292.524 13.2824C292.021 12.6271 291.403 12.0832 290.695 11.6439L288.587 15.0436C288.92 15.2501 289.166 15.477 289.351 15.7176L292.524 13.2824ZM290.719 11.6592C290.004 11.2016 289.208 10.8658 288.354 10.633L287.302 14.492C287.823 14.6342 288.236 14.8192 288.563 15.0283L290.719 11.6592ZM288.354 10.633C287.471 10.3921 286.536 10.2812 285.562 10.2812V14.2812C286.234 14.2812 286.81 14.3579 287.302 14.492L288.354 10.633ZM285.562 10.2812C284.538 10.2812 283.56 10.3969 282.641 10.6499L283.703 14.5064C284.222 14.3635 284.837 14.2812 285.562 14.2812V10.2812ZM282.641 10.6499C281.77 10.8896 280.961 11.224 280.233 11.6717L282.329 15.0783C282.685 14.8593 283.136 14.6625 283.703 14.5064L282.641 10.6499ZM280.233 11.6717C279.528 12.1055 278.904 12.6286 278.385 13.2509L281.458 15.8116C281.669 15.5589 281.951 15.3112 282.329 15.0783L280.233 11.6717ZM278.367 13.2729C277.878 13.8772 277.496 14.5459 277.247 15.2773L281.034 16.5664C281.118 16.3187 281.257 16.0603 281.476 15.7896L278.367 13.2729ZM279.141 17.9219H291.719V13.9219H279.141V17.9219ZM301.297 14.0625L299.486 13.2141L299.483 13.2208L299.48 13.2275L301.297 14.0625ZM303.594 11.0312L302.286 9.51829L302.278 9.52511L303.594 11.0312ZM307.203 8.98438L306.537 7.09839L306.533 7.09995L307.203 8.98438ZM316.719 8.98438L316.049 10.8688L316.053 10.8704L316.719 8.98438ZM320.328 11.0312L319.012 12.5374L319.02 12.5442L320.328 11.0312ZM322.625 14.0625L320.808 14.8975L320.811 14.9042L320.814 14.9109L322.625 14.0625ZM322.625 21.5L320.814 20.6516L320.811 20.6583L320.808 20.665L322.625 21.5ZM320.328 24.5312L319.02 23.0183L319.012 23.0251L320.328 24.5312ZM316.719 26.5781L316.053 24.6921L316.049 24.6937L316.719 26.5781ZM307.203 26.5781L306.533 28.4626L306.537 28.4641L307.203 26.5781ZM303.594 24.5312L302.278 26.0374L302.286 26.0442L303.594 24.5312ZM301.297 21.5L299.48 22.335L299.483 22.3417L299.486 22.3484L301.297 21.5ZM305.797 19.8906L303.965 20.6923L303.972 20.7097L303.98 20.7269L305.797 19.8906ZM307.094 21.6406L305.75 23.1217L305.764 23.1347L305.779 23.1475L307.094 21.6406ZM309.172 22.8438L308.475 24.7184L308.489 24.7237L308.504 24.7288L309.172 22.8438ZM314.75 22.8438L315.426 24.7261L315.432 24.7237L315.439 24.7212L314.75 22.8438ZM316.828 21.6406L318.157 23.1354L318.159 23.1339L316.828 21.6406ZM318.125 19.8906L316.303 19.0652L316.3 19.0717L316.297 19.0783L318.125 19.8906ZM318.125 15.6719L316.293 16.4735L316.298 16.4855L316.303 16.4973L318.125 15.6719ZM316.828 13.9219L315.484 15.403L315.498 15.416L315.513 15.4287L316.828 13.9219ZM314.75 12.7188L314.053 14.5934L314.067 14.5987L314.082 14.6038L314.75 12.7188ZM309.172 12.7188L309.848 14.6011L309.854 14.5987L309.861 14.5962L309.172 12.7188ZM307.094 13.9219L308.422 15.4167L308.424 15.4152L307.094 13.9219ZM305.797 15.6719L303.975 14.8464L303.97 14.8583L303.965 14.8702L305.797 15.6719ZM302.5 17.7812C302.5 16.7349 302.708 15.7814 303.114 14.8975L299.48 13.2275C298.823 14.6561 298.5 16.1818 298.5 17.7812H302.5ZM303.108 14.9109C303.529 14.0133 304.123 13.2249 304.91 12.5374L302.278 9.52511C301.086 10.5668 300.149 11.7992 299.486 13.2141L303.108 14.9109ZM304.902 12.5442C305.691 11.8615 306.671 11.2963 307.873 10.8688L306.533 7.09995C304.923 7.67245 303.496 8.47179 302.286 9.51831L304.902 12.5442ZM307.869 10.8704C309.038 10.4575 310.397 10.2344 311.969 10.2344V6.23438C310.02 6.23438 308.201 6.51121 306.537 7.09839L307.869 10.8704ZM311.969 10.2344C313.541 10.2344 314.892 10.4576 316.049 10.8688L317.389 7.09995C315.733 6.51112 313.917 6.23438 311.969 6.23438V10.2344ZM316.053 10.8704C317.265 11.298 318.239 11.8616 319.012 12.5374L321.644 9.52511C320.438 8.47176 319.006 7.67073 317.384 7.09839L316.053 10.8704ZM319.02 12.5442C319.812 13.2292 320.4 14.0112 320.808 14.8975L324.442 13.2275C323.787 11.8013 322.844 10.5624 321.636 9.51831L319.02 12.5442ZM320.814 14.9109C321.227 15.792 321.438 16.7407 321.438 17.7812H325.438C325.438 16.176 325.107 14.6455 324.436 13.2141L320.814 14.9109ZM321.438 17.7812C321.438 18.8218 321.227 19.7705 320.814 20.6516L324.436 22.3484C325.107 20.917 325.438 19.3865 325.438 17.7812H321.438ZM320.808 20.665C320.4 21.5513 319.812 22.3333 319.02 23.0183L321.636 26.0442C322.844 25.0001 323.787 23.7612 324.442 22.335L320.808 20.665ZM319.012 23.0251C318.239 23.7009 317.265 24.2645 316.053 24.6921L317.384 28.4641C319.006 27.8918 320.438 27.0907 321.644 26.0374L319.012 23.0251ZM316.049 24.6937C314.892 25.1049 313.541 25.3281 311.969 25.3281V29.3281C313.917 29.3281 315.733 29.0514 317.389 28.4626L316.049 24.6937ZM311.969 25.3281C310.397 25.3281 309.038 25.105 307.869 24.6921L306.537 28.4641C308.201 29.0513 310.02 29.3281 311.969 29.3281V25.3281ZM307.873 24.6937C306.671 24.2662 305.691 23.701 304.902 23.0183L302.286 26.0442C303.496 27.0907 304.923 27.8901 306.533 28.4626L307.873 24.6937ZM304.91 23.0251C304.123 22.3376 303.529 21.5492 303.108 20.6516L299.486 22.3484C300.149 23.7633 301.086 24.9957 302.278 26.0374L304.91 23.0251ZM303.114 20.665C302.708 19.7811 302.5 18.8276 302.5 17.7812H298.5C298.5 19.3807 298.823 20.9064 299.48 22.335L303.114 20.665ZM303.359 17.7812C303.359 18.7921 303.56 19.7686 303.965 20.6923L307.629 19.089C307.45 18.6793 307.359 18.2496 307.359 17.7812H303.359ZM303.98 20.7269C304.401 21.6402 304.998 22.4399 305.75 23.1217L308.438 20.1595C308.064 19.8206 307.797 19.4535 307.614 19.0543L303.98 20.7269ZM305.779 23.1475C306.557 23.827 307.467 24.3437 308.475 24.7184L309.869 20.9691C309.252 20.7396 308.776 20.4542 308.409 20.1338L305.779 23.1475ZM308.504 24.7288C309.578 25.1096 310.742 25.2812 311.969 25.2812V21.2812C311.112 21.2812 310.411 21.1612 309.84 20.9587L308.504 24.7288ZM311.969 25.2812C313.195 25.2812 314.357 25.1098 315.426 24.7261L314.074 20.9614C313.518 21.161 312.826 21.2812 311.969 21.2812V25.2812ZM315.439 24.7212C316.459 24.3468 317.379 23.827 318.157 23.1354L315.499 20.1458C315.152 20.4543 314.687 20.7365 314.061 20.9663L315.439 24.7212ZM318.159 23.1339C318.929 22.4476 319.538 21.6364 319.953 20.7029L316.297 19.0783C316.129 19.4573 315.873 19.8128 315.498 20.1473L318.159 23.1339ZM319.947 20.7161C320.368 19.7873 320.578 18.8025 320.578 17.7812H316.578C316.578 18.2392 316.487 18.6606 316.303 19.0652L319.947 20.7161ZM320.578 17.7812C320.578 16.76 320.368 15.7752 319.947 14.8464L316.303 16.4973C316.487 16.9019 316.578 17.3233 316.578 17.7812H320.578ZM319.957 14.8702C319.542 13.921 318.928 13.1001 318.143 12.415L315.513 15.4287C315.874 15.7436 316.125 16.0894 316.293 16.4735L319.957 14.8702ZM318.172 12.4408C317.386 11.7276 316.454 11.2007 315.418 10.8337L314.082 14.6038C314.692 14.8201 315.145 15.0953 315.484 15.403L318.172 12.4408ZM315.447 10.8441C314.372 10.4443 313.202 10.2656 311.969 10.2656V14.2656C312.819 14.2656 313.503 14.3891 314.053 14.5934L315.447 10.8441ZM311.969 10.2656C310.735 10.2656 309.564 10.4445 308.483 10.8413L309.861 14.5962C310.426 14.3889 311.119 14.2656 311.969 14.2656V10.2656ZM308.496 10.8364C307.473 11.2038 306.55 11.7277 305.763 12.4286L308.424 15.4152C308.783 15.0952 309.246 14.817 309.848 14.6011L308.496 10.8364ZM305.765 12.4271C304.999 13.1078 304.396 13.9173 303.975 14.8464L307.619 16.4973C307.802 16.0932 308.063 15.736 308.422 15.4167L305.765 12.4271ZM303.965 14.8702C303.56 15.7939 303.359 16.7704 303.359 17.7812H307.359C307.359 17.3129 307.45 16.8832 307.629 16.4735L303.965 14.8702ZM328.109 8.5625V6.5625H326.109V8.5625H328.109ZM332.734 8.5625H334.734V6.5625H332.734V8.5625ZM332.734 10.125H330.734V13.5605L333.722 11.8642L332.734 10.125ZM336.25 8.65625L335.765 6.71596L335.761 6.71704L336.25 8.65625ZM343.453 8.85938L342.796 10.7484L342.803 10.7509L342.811 10.7534L343.453 8.85938ZM348.609 13.7344L346.754 14.4799L346.757 14.4895L346.761 14.4991L348.609 13.7344ZM349.359 27V29H351.359V27H349.359ZM344.75 27H342.75V29H344.75V27ZM344.312 15.9844L342.425 16.6462L342.43 16.661L342.436 16.6758L344.312 15.9844ZM343.078 13.9688L341.637 15.3555L341.65 15.3694L341.664 15.383L343.078 13.9688ZM341.125 12.7188L340.409 14.5861L340.424 14.592L340.439 14.5976L341.125 12.7188ZM337.016 12.4375L336.631 10.4749L336.623 10.4763L337.016 12.4375ZM335.469 12.8906L336.171 14.7633L336.181 14.7594L336.192 14.7553L335.469 12.8906ZM334.016 13.6094L335.045 15.3244L335.058 15.316L335.072 15.3075L334.016 13.6094ZM332.734 14.5781L331.36 13.1252L330.734 13.717V14.5781H332.734ZM332.734 27V29H334.734V27H332.734ZM328.109 27H326.109V29H328.109V27ZM328.109 10.5625H332.734V6.5625H328.109V10.5625ZM330.734 8.5625V10.125H334.734V8.5625H330.734ZM333.722 11.8642C334.829 11.2356 335.834 10.824 336.739 10.5955L335.761 6.71704C334.437 7.05098 333.098 7.61861 331.747 8.3858L333.722 11.8642ZM336.735 10.5965C337.714 10.3518 338.65 10.2344 339.547 10.2344V6.23438C338.298 6.23438 337.036 6.39823 335.765 6.71596L336.735 10.5965ZM339.547 10.2344C340.754 10.2344 341.831 10.4127 342.796 10.7484L344.11 6.97038C342.679 6.47269 341.153 6.23438 339.547 6.23438V10.2344ZM342.811 10.7534C343.758 11.0746 344.545 11.5437 345.202 12.1531L347.923 9.22191C346.83 8.20626 345.544 7.45667 344.095 6.96533L342.811 10.7534ZM345.202 12.1531C345.84 12.7456 346.363 13.5071 346.754 14.4799L350.465 12.9889C349.877 11.5242 349.035 10.2544 347.923 9.22191L345.202 12.1531ZM346.761 14.4991C347.142 15.4182 347.359 16.5503 347.359 17.9375H351.359C351.359 16.1372 351.077 14.4673 350.457 12.9697L346.761 14.4991ZM347.359 17.9375V27H351.359V17.9375H347.359ZM349.359 25H344.75V29H349.359V25ZM346.75 27V18.6875H342.75V27H346.75ZM346.75 18.6875C346.75 17.4865 346.577 16.345 346.189 15.293L342.436 16.6758C342.632 17.2071 342.75 17.8676 342.75 18.6875H346.75ZM346.2 15.3226C345.83 14.2687 345.268 13.3306 344.492 12.5545L341.664 15.383C341.971 15.6902 342.232 16.0959 342.425 16.6462L346.2 15.3226ZM344.519 12.582C343.762 11.7951 342.847 11.218 341.811 10.8399L340.439 14.5976C340.945 14.782 341.332 15.0382 341.637 15.3555L344.519 12.582ZM341.841 10.8514C340.818 10.4589 339.716 10.2812 338.562 10.2812V14.2812C339.305 14.2812 339.911 14.3952 340.409 14.5861L341.841 10.8514ZM338.562 10.2812C337.923 10.2812 337.278 10.3479 336.631 10.4749L337.4 14.4001C337.815 14.3188 338.202 14.2812 338.562 14.2812V10.2812ZM336.623 10.4763C335.986 10.6038 335.36 10.7877 334.746 11.0259L336.192 14.7553C336.598 14.5978 337.003 14.4796 337.408 14.3987L336.623 10.4763ZM334.767 11.018C334.139 11.2534 333.536 11.5522 332.959 11.9113L335.072 15.3075C335.433 15.0832 335.799 14.9029 336.171 14.7633L334.767 11.018ZM332.987 11.8944C332.397 12.2479 331.854 12.658 331.36 13.1252L334.109 16.0311C334.386 15.7691 334.696 15.5333 335.045 15.3244L332.987 11.8944ZM330.734 14.5781V27H334.734V14.5781H330.734ZM332.734 25H328.109V29H332.734V25ZM330.109 27V8.5625H326.109V27H330.109ZM355.781 21.3438L356.81 19.6288L355.058 18.5776L354.045 20.3515L355.781 21.3438ZM359.906 23L359.447 24.9465L359.906 23ZM369.469 19.9531L368.188 21.4896L368.199 21.4982L368.209 21.5066L369.469 19.9531ZM364.797 19.7344L365 21.724L365.018 21.7222L365.035 21.7201L364.797 19.7344ZM363.188 19.8906L363.003 17.8991L363 17.8995L363.188 19.8906ZM358.297 19.5625L357.706 21.4731L357.712 21.475L358.297 19.5625ZM354.953 16.7969L353.088 17.5189L353.092 17.5291L354.953 16.7969ZM357.109 10.0781L358.262 11.7126L358.269 11.7077L358.276 11.7028L357.109 10.0781ZM360.047 8.71875L359.509 6.79246L359.504 6.79373L360.047 8.71875ZM366.219 8.375L365.987 10.3615L366.001 10.3631L366.015 10.3646L366.219 8.375ZM370.859 9.23438L370.328 11.1626L370.341 11.1662L370.355 11.1696L370.859 9.23438ZM372.766 9.84375L374.62 10.5935L375.375 8.72629L373.502 7.98439L372.766 9.84375ZM371.312 13.4375L370.616 15.3122L372.438 15.9895L373.167 14.1872L371.312 13.4375ZM367.781 12.4062L367.346 14.3582L367.356 14.3605L367.366 14.3626L367.781 12.4062ZM361.969 12.2188L362.381 14.1758L362.393 14.1732L362.406 14.1703L361.969 12.2188ZM360.516 12.7344L361.487 14.4827L361.505 14.4725L361.523 14.4619L360.516 12.7344ZM359.688 13.4688L357.995 12.4031L357.99 12.4118L357.984 12.4206L359.688 13.4688ZM359.562 14.9219L357.753 15.7735L357.773 15.8161L357.795 15.8577L359.562 14.9219ZM360 15.3906L358.871 17.0412L358.92 17.0749L358.971 17.1056L360 15.3906ZM360.797 15.6875L360.356 17.6384L360.392 17.6465L360.428 17.6532L360.797 15.6875ZM364.938 15.5469L365.133 17.5373L365.152 17.5354L365.171 17.5332L364.938 15.5469ZM366.578 15.375L366.397 13.3832L366.394 13.3835L366.578 15.375ZM371.219 15.6875L370.615 17.5943L370.622 17.5965L371.219 15.6875ZM372.234 25.3906L373.362 27.0427L373.368 27.0382L373.375 27.0336L372.234 25.3906ZM368.922 26.8125L368.419 24.8768L368.415 24.8778L368.922 26.8125ZM361.281 27.125L361.552 25.1435L361.542 25.1421L361.532 25.1408L361.281 27.125ZM358.453 26.6094L357.957 28.547L357.968 28.5497L357.979 28.5523L358.453 26.6094ZM355.922 25.8125L355.201 27.6779L355.209 27.6811L355.922 25.8125ZM353.781 24.8438L352.045 23.8515L351.022 25.6409L352.842 26.6092L353.781 24.8438ZM354.752 23.0587C356.189 23.9207 357.758 24.5477 359.447 24.9465L360.366 21.0535C359.055 20.744 357.874 20.2668 356.81 19.6288L354.752 23.0587ZM359.447 24.9465C361.1 25.3369 362.791 25.5312 364.516 25.5312V21.5312C363.094 21.5312 361.712 21.3714 360.366 21.0535L359.447 24.9465ZM364.516 25.5312C365.657 25.5312 366.688 25.454 367.575 25.2714L366.769 21.3536C366.239 21.4626 365.499 21.5312 364.516 21.5312V25.5312ZM367.575 25.2714C368.389 25.1038 369.162 24.8659 369.821 24.5123L367.929 20.9877C367.734 21.0924 367.371 21.2296 366.769 21.3536L367.575 25.2714ZM369.821 24.5123C370.437 24.1815 371.066 23.7059 371.491 23.0067L368.072 20.9308C368.108 20.8702 368.134 20.8521 368.116 20.868C368.096 20.885 368.041 20.928 367.929 20.9877L369.821 24.5123ZM371.491 23.0067C371.833 22.4437 372.047 21.7919 372.047 21.0781H368.047C368.047 21.0307 368.054 20.988 368.064 20.9557C368.073 20.9249 368.08 20.9163 368.072 20.9308L371.491 23.0067ZM372.047 21.0781C372.047 19.952 371.511 19.0344 370.728 18.3996L368.209 21.5066C368.224 21.5186 368.174 21.482 368.123 21.3829C368.069 21.2768 368.047 21.165 368.047 21.0781H372.047ZM370.749 18.4167C369.824 17.6453 368.606 17.4844 367.594 17.4844V21.4844C367.922 21.4844 368.125 21.5146 368.234 21.5418C368.343 21.5693 368.294 21.5775 368.188 21.4896L370.749 18.4167ZM367.594 17.4844C367.103 17.4844 366.591 17.5158 366.06 17.5747L366.502 21.5503C366.909 21.5051 367.272 21.4844 367.594 21.4844V17.4844ZM366.06 17.5747C365.585 17.6275 365.085 17.6855 364.559 17.7486L365.035 21.7201C365.551 21.6582 366.04 21.6016 366.502 21.5503L366.06 17.5747ZM364.594 17.7447C364.09 17.7961 363.56 17.8476 363.003 17.8991L363.372 21.8821C363.94 21.8295 364.483 21.7768 365 21.724L364.594 17.7447ZM363 17.8995C362.512 17.9455 362.012 17.9688 361.5 17.9688V21.9688C362.134 21.9688 362.759 21.9399 363.375 21.8818L363 17.8995ZM361.5 17.9688C360.384 17.9688 359.525 17.8466 358.882 17.65L357.712 21.475C358.84 21.8201 360.116 21.9688 361.5 21.9688V17.9688ZM358.888 17.6519C358.205 17.4406 357.75 17.1828 357.451 16.9285L354.862 19.9777C355.666 20.661 356.638 21.1427 357.706 21.4731L358.888 17.6519ZM357.451 16.9285C357.134 16.6598 356.936 16.3746 356.814 16.0646L353.092 17.5291C353.47 18.4899 354.074 19.3089 354.862 19.9777L357.451 16.9285ZM356.818 16.0749C356.663 15.6746 356.578 15.2283 356.578 14.7188H352.578C352.578 15.6883 352.743 16.6275 353.088 17.5189L356.818 16.0749ZM356.578 14.7188C356.578 14.1068 356.717 13.5768 356.985 13.0924L353.484 11.1576C352.877 12.2565 352.578 13.4557 352.578 14.7188H356.578ZM356.985 13.0924C357.262 12.5908 357.672 12.1288 358.262 11.7126L355.957 8.44361C354.922 9.17332 354.082 10.0759 353.484 11.1576L356.985 13.0924ZM358.276 11.7028C358.867 11.2781 359.626 10.9153 360.589 10.6438L359.504 6.79373C358.176 7.16804 356.976 7.71145 355.943 8.45348L358.276 11.7028ZM360.585 10.645C361.538 10.3789 362.64 10.2344 363.906 10.2344V6.23438C362.339 6.23438 360.868 6.41278 359.509 6.79246L360.585 10.645ZM363.906 10.2344C364.562 10.2344 365.255 10.2759 365.987 10.3615L366.451 6.38852C365.579 6.28658 364.73 6.23438 363.906 6.23438V10.2344ZM366.015 10.3646C366.774 10.4424 367.517 10.5493 368.242 10.6848L368.976 6.75271C368.14 6.59653 367.288 6.47422 366.423 6.38544L366.015 10.3646ZM368.242 10.6848C368.972 10.821 369.667 10.9805 370.328 11.1626L371.39 7.30614C370.614 7.09239 369.809 6.90817 368.976 6.75271L368.242 10.6848ZM370.355 11.1696C371.013 11.3414 371.568 11.5207 372.029 11.7031L373.502 7.98439C372.859 7.72932 372.143 7.50234 371.364 7.29914L370.355 11.1696ZM370.911 9.09402L369.458 12.6878L373.167 14.1872L374.62 10.5935L370.911 9.09402ZM372.009 11.5628C370.745 11.0927 369.474 10.7211 368.197 10.4499L367.366 14.3626C368.443 14.5914 369.526 14.9073 370.616 15.3122L372.009 11.5628ZM368.217 10.4543C366.902 10.1608 365.553 10.0156 364.172 10.0156V14.0156C365.27 14.0156 366.327 14.1309 367.346 14.3582L368.217 10.4543ZM364.172 10.0156C363.213 10.0156 362.323 10.0897 361.531 10.2672L362.406 14.1703C362.823 14.0769 363.401 14.0156 364.172 14.0156V10.0156ZM361.557 10.2617C360.83 10.4146 360.125 10.6467 359.508 11.0068L361.523 14.4619C361.656 14.3846 361.92 14.2729 362.381 14.1758L361.557 10.2617ZM359.544 10.9861C358.959 11.3115 358.396 11.7664 357.995 12.4031L361.38 14.5344C361.333 14.6086 361.323 14.5739 361.487 14.4827L359.544 10.9861ZM357.984 12.4206C357.634 12.9892 357.438 13.636 357.438 14.3281H361.438C361.438 14.3637 361.432 14.4048 361.42 14.4454C361.409 14.4853 361.395 14.5097 361.391 14.5169L357.984 12.4206ZM357.438 14.3281C357.438 14.8064 357.53 15.3001 357.753 15.7735L361.372 14.0703C361.428 14.1895 361.438 14.2874 361.438 14.3281H357.438ZM357.795 15.8577C358.067 16.3725 358.458 16.7586 358.871 17.0412L361.129 13.74C361.147 13.7518 361.245 13.8255 361.33 13.9861L357.795 15.8577ZM358.971 17.1056C359.414 17.3716 359.896 17.5344 360.356 17.6384L361.237 13.7366C361.149 13.7167 361.09 13.6979 361.054 13.6844C361.017 13.6709 361.012 13.6657 361.029 13.6756L358.971 17.1056ZM360.428 17.6532C360.921 17.7457 361.459 17.7812 362.016 17.7812V13.7812C361.614 13.7812 361.339 13.7543 361.165 13.7218L360.428 17.6532ZM362.016 17.7812C362.532 17.7812 363.067 17.7506 363.618 17.6919L363.195 13.7143C362.767 13.7599 362.374 13.7812 362.016 13.7812V17.7812ZM363.618 17.6919C364.101 17.6404 364.606 17.5889 365.133 17.5373L364.742 13.5564C364.206 13.609 363.69 13.6616 363.195 13.7143L363.618 17.6919ZM365.171 17.5332C365.685 17.4727 366.216 17.4171 366.763 17.3665L366.394 13.3835C365.816 13.437 365.252 13.496 364.704 13.5606L365.171 17.5332ZM366.759 17.3668C367.27 17.3203 367.793 17.2969 368.328 17.2969V13.2969C367.676 13.2969 367.032 13.3255 366.397 13.3832L366.759 17.3668ZM368.328 17.2969C369.282 17.2969 370.033 17.4101 370.615 17.5943L371.822 13.7807C370.758 13.4441 369.583 13.2969 368.328 13.2969V17.2969ZM370.622 17.5965C371.249 17.7925 371.679 18.0393 371.972 18.2936L374.59 15.2689C373.8 14.5857 372.855 14.1034 371.815 13.7785L370.622 17.5965ZM371.972 18.2936C372.293 18.5708 372.513 18.8767 372.66 19.2217L376.34 17.6533C375.945 16.7274 375.353 15.9292 374.59 15.2689L371.972 18.2936ZM372.66 19.2217C372.817 19.5886 372.906 20.0118 372.906 20.5156H376.906C376.906 19.5194 376.725 18.5573 376.34 17.6533L372.66 19.2217ZM372.906 20.5156C372.906 21.1621 372.76 21.7368 372.473 22.2719L375.996 24.1656C376.604 23.034 376.906 21.8066 376.906 20.5156H372.906ZM372.473 22.2719C372.194 22.791 371.757 23.2877 371.094 23.7476L373.375 27.0336C374.483 26.2644 375.379 25.3132 375.996 24.1656L372.473 22.2719ZM371.107 23.7386C370.456 24.1828 369.577 24.5758 368.419 24.8768L369.425 28.7482C370.912 28.3617 372.242 27.8068 373.362 27.0427L371.107 23.7386ZM368.415 24.8778C367.306 25.1682 365.962 25.3281 364.359 25.3281V29.3281C366.215 29.3281 367.913 29.1443 369.429 28.7472L368.415 24.8778ZM364.359 25.3281C363.382 25.3281 362.447 25.2658 361.552 25.1435L361.01 29.1065C362.095 29.255 363.212 29.3281 364.359 29.3281V25.3281ZM361.532 25.1408C360.612 25.0245 359.744 24.8658 358.928 24.6665L357.979 28.5523C358.954 28.7904 359.972 28.9755 361.031 29.1092L361.532 25.1408ZM358.949 24.6718C358.12 24.4598 357.349 24.2166 356.635 23.9439L355.209 27.6811C356.078 28.0126 356.995 28.3006 357.957 28.547L358.949 24.6718ZM356.643 23.9471C355.926 23.6699 355.287 23.3794 354.721 23.0783L352.842 26.6092C353.567 26.9956 354.355 27.351 355.201 27.6779L356.643 23.9471ZM355.518 25.836L357.518 22.336L354.045 20.3515L352.045 23.8515L355.518 25.836Z" fill="black"/>
</svg>
