<svg width="375" height="36" viewBox="0 0 375 36" fill="none" xmlns="http://www.w3.org/2000/svg">
<path d="M0.3125 2.57812H5.71875L12.3438 18.3438L13.875 22.1562L15.0781 18.3438L17.5156 12.5938L13.125 2.57812H18.2188L20.0156 7.34375L21.6875 2.57812H26.7812L22.3906 12.5938L24.875 18.4688L26.375 22.1562L27.5312 18.4062L34.1875 2.57812H39.5938L28.8125 27H23.9062L21.7344 22.1562L19.9688 17.4531L18.2031 22.1562L16 27H11.0938L0.3125 2.57812ZM41.9219 21.1875C41.9219 20.3021 42.1146 19.4948 42.5 18.7656C42.8854 18.0365 43.4635 17.4115 44.2344 16.8906C45.0052 16.3594 45.9635 15.9531 47.1094 15.6719C48.2656 15.3802 49.6094 15.2344 51.1406 15.2344C52.276 15.2344 53.4688 15.3177 54.7188 15.4844C55.9792 15.651 57.276 15.9062 58.6094 16.25C58.5573 15.6667 58.3802 15.1302 58.0781 14.6406C57.776 14.1406 57.3542 13.7135 56.8125 13.3594C56.2812 12.9948 55.6354 12.7135 54.875 12.5156C54.125 12.3177 53.2708 12.2188 52.3125 12.2188C51.7917 12.2188 51.2188 12.25 50.5938 12.3125C49.9688 12.375 49.3229 12.4688 48.6562 12.5938C47.9896 12.7188 47.3281 12.875 46.6719 13.0625C46.026 13.25 45.4219 13.474 44.8594 13.7344L43.4531 9.9375C44.151 9.6875 44.8958 9.45833 45.6875 9.25C46.4896 9.04167 47.3073 8.86458 48.1406 8.71875C48.974 8.5625 49.8073 8.44271 50.6406 8.35938C51.474 8.27604 52.2812 8.23438 53.0625 8.23438C56.5104 8.23438 59.0729 9.11458 60.75 10.875C62.4271 12.6354 63.2656 15.3333 63.2656 18.9688V27H58.6406V25.2656C58.1615 25.5469 57.6354 25.8125 57.0625 26.0625C56.5 26.3125 55.8854 26.5312 55.2188 26.7188C54.5521 26.9062 53.8333 27.0521 53.0625 27.1562C52.3021 27.2708 51.4948 27.3281 50.6406 27.3281C49.2031 27.3281 47.9375 27.1719 46.8438 26.8594C45.7604 26.5469 44.8542 26.1146 44.125 25.5625C43.3958 25.0104 42.8438 24.3646 42.4688 23.625C42.1042 22.875 41.9219 22.0625 41.9219 21.1875ZM46.7969 21.0312C46.7969 21.3333 46.875 21.625 47.0312 21.9062C47.1875 22.1771 47.4375 22.4219 47.7812 22.6406C48.125 22.849 48.5625 23.0208 49.0938 23.1562C49.6354 23.2812 50.2865 23.3438 51.0469 23.3438C51.8594 23.3438 52.6458 23.2708 53.4062 23.125C54.1667 22.9792 54.875 22.7865 55.5312 22.5469C56.1875 22.3073 56.7812 22.0312 57.3125 21.7188C57.8438 21.4062 58.2865 21.0833 58.6406 20.75V19.9375C57.9323 19.7396 57.2292 19.5729 56.5312 19.4375C55.8438 19.3021 55.1823 19.1979 54.5469 19.125C53.9219 19.0417 53.3281 18.9844 52.7656 18.9531C52.2135 18.9219 51.7292 18.9062 51.3125 18.9062C50.4479 18.9062 49.7292 18.9635 49.1562 19.0781C48.5833 19.1927 48.1198 19.349 47.7656 19.5469C47.4115 19.7344 47.1615 19.9583 47.0156 20.2188C46.8698 20.4792 46.7969 20.75 46.7969 21.0312ZM69.3906 8.5625H74.0156V11.2188C75.0365 10.4583 76.1146 9.80208 77.25 9.25C78.3854 8.69792 79.5156 8.27604 80.6406 7.98438L82 12.2188C80.2188 12.3958 78.651 12.7969 77.2969 13.4219C75.9531 14.0365 74.8594 14.9062 74.0156 16.0312V27H69.3906V8.5625ZM98.0938 12.0312H94.9375V8.5625H98.0938C98.0938 7.3125 98.2708 6.20312 98.625 5.23438C98.9792 4.25521 99.4896 3.43229 100.156 2.76562C100.833 2.08854 101.651 1.57292 102.609 1.21875C103.578 0.864583 104.667 0.6875 105.875 0.6875C106.719 0.6875 107.547 0.770833 108.359 0.9375C109.172 1.09375 109.891 1.32292 110.516 1.625L108.875 5.51562C108.625 5.36979 108.271 5.23438 107.812 5.10938C107.365 4.98438 106.87 4.92188 106.328 4.92188C105.266 4.92188 104.406 5.22396 103.75 5.82812C103.104 6.42188 102.76 7.33333 102.719 8.5625H108.547V12.0312H102.719V27H98.0938V12.0312ZM111 17.7812C111 16.4583 111.266 15.2188 111.797 14.0625C112.339 12.9062 113.104 11.8958 114.094 11.0312C115.094 10.1667 116.297 9.48438 117.703 8.98438C119.12 8.48438 120.708 8.23438 122.469 8.23438C124.229 8.23438 125.812 8.48438 127.219 8.98438C128.635 9.48438 129.839 10.1667 130.828 11.0312C131.828 11.8958 132.594 12.9062 133.125 14.0625C133.667 15.2188 133.938 16.4583 133.938 17.7812C133.938 19.1042 133.667 20.3438 133.125 21.5C132.594 22.6562 131.828 23.6667 130.828 24.5312C129.839 25.3958 128.635 26.0781 127.219 26.5781C125.812 27.0781 124.229 27.3281 122.469 27.3281C120.708 27.3281 119.12 27.0781 117.703 26.5781C116.297 26.0781 115.094 25.3958 114.094 24.5312C113.104 23.6667 112.339 22.6562 111.797 21.5C111.266 20.3438 111 19.1042 111 17.7812ZM115.859 17.7812C115.859 18.5208 116.005 19.224 116.297 19.8906C116.599 20.5469 117.031 21.1302 117.594 21.6406C118.167 22.1406 118.859 22.5417 119.672 22.8438C120.495 23.1354 121.427 23.2812 122.469 23.2812C123.51 23.2812 124.438 23.1354 125.25 22.8438C126.073 22.5417 126.766 22.1406 127.328 21.6406C127.901 21.1302 128.333 20.5469 128.625 19.8906C128.927 19.224 129.078 18.5208 129.078 17.7812C129.078 17.0417 128.927 16.3385 128.625 15.6719C128.333 15.0052 127.901 14.4219 127.328 13.9219C126.766 13.4115 126.073 13.0104 125.25 12.7188C124.438 12.4167 123.51 12.2656 122.469 12.2656C121.427 12.2656 120.495 12.4167 119.672 12.7188C118.859 13.0104 118.167 13.4115 117.594 13.9219C117.031 14.4219 116.599 15.0052 116.297 15.6719C116.005 16.3385 115.859 17.0417 115.859 17.7812ZM138.609 8.5625H143.234V11.2188C144.255 10.4583 145.333 9.80208 146.469 9.25C147.604 8.69792 148.734 8.27604 149.859 7.98438L151.219 12.2188C149.438 12.3958 147.87 12.7969 146.516 13.4219C145.172 14.0365 144.078 14.9062 143.234 16.0312V27H138.609V8.5625ZM165.875 2.57812H174.828C177.443 2.57812 179.714 2.85938 181.641 3.42188C183.568 3.98438 185.161 4.79167 186.422 5.84375C187.693 6.88542 188.635 8.15625 189.25 9.65625C189.875 11.1458 190.188 12.8229 190.188 14.6875C190.188 16.4583 189.88 18.099 189.266 19.6094C188.651 21.1094 187.714 22.4115 186.453 23.5156C185.193 24.6094 183.599 25.4688 181.672 26.0938C179.745 26.7083 177.474 27.0156 174.859 27.0156L165.875 27V2.57812ZM176.047 22.7188C177.526 22.7188 178.823 22.5312 179.938 22.1562C181.052 21.7708 181.979 21.2292 182.719 20.5312C183.469 19.8333 184.031 18.9896 184.406 18C184.781 17.0104 184.969 15.9062 184.969 14.6875C184.969 13.4896 184.781 12.4115 184.406 11.4531C184.031 10.4844 183.469 9.66667 182.719 9C181.979 8.32292 181.052 7.80208 179.938 7.4375C178.823 7.07292 177.526 6.89062 176.047 6.89062H170.828V22.7188H176.047ZM194.578 8.54688H199.188V17.5469C199.188 18.401 199.281 19.1823 199.469 19.8906C199.656 20.5885 199.974 21.1875 200.422 21.6875C200.88 22.1875 201.484 22.5781 202.234 22.8594C202.995 23.1302 203.938 23.2656 205.062 23.2656C205.594 23.2656 206.13 23.2083 206.672 23.0938C207.224 22.9792 207.75 22.8229 208.25 22.625C208.75 22.4167 209.214 22.1719 209.641 21.8906C210.078 21.6094 210.453 21.3021 210.766 20.9688V8.54688H215.391V27H210.766V25.4219C209.63 26.099 208.49 26.5833 207.344 26.875C206.198 27.1667 205.109 27.3125 204.078 27.3125C202.391 27.3125 200.943 27.1094 199.734 26.7031C198.536 26.2969 197.552 25.7083 196.781 24.9375C196.021 24.1562 195.464 23.2031 195.109 22.0781C194.755 20.9427 194.578 19.651 194.578 18.2031V8.54688ZM221.266 8.5625H225.891V10.125C227.12 9.42708 228.292 8.9375 229.406 8.65625C230.531 8.375 231.63 8.23438 232.703 8.23438C234.109 8.23438 235.411 8.44271 236.609 8.85938C237.807 9.26562 238.844 9.875 239.719 10.6875C240.594 11.5 241.276 12.5156 241.766 13.7344C242.266 14.9427 242.516 16.3438 242.516 17.9375V27H237.906V18.6875C237.906 17.6771 237.76 16.776 237.469 15.9844C237.188 15.1823 236.776 14.5104 236.234 13.9688C235.703 13.4167 235.052 13 234.281 12.7188C233.521 12.4271 232.667 12.2812 231.719 12.2812C231.219 12.2812 230.703 12.3333 230.172 12.4375C229.651 12.5417 229.135 12.6927 228.625 12.8906C228.125 13.0781 227.641 13.3177 227.172 13.6094C226.703 13.8906 226.276 14.2135 225.891 14.5781V27H221.266V8.5625ZM251.094 30.125C251.677 30.3333 252.271 30.5052 252.875 30.6406C253.479 30.7865 254.062 30.901 254.625 30.9844C255.198 31.0781 255.745 31.1406 256.266 31.1719C256.786 31.2135 257.25 31.2344 257.656 31.2344C258.885 31.2344 259.953 31.0833 260.859 30.7812C261.776 30.4896 262.536 30.0938 263.141 29.5938C263.755 29.0938 264.214 28.5104 264.516 27.8438C264.818 27.1875 264.969 26.4896 264.969 25.75V24.9531C264.573 25.224 264.109 25.4844 263.578 25.7344C263.047 25.9844 262.464 26.2031 261.828 26.3906C261.193 26.5781 260.516 26.7292 259.797 26.8438C259.089 26.9583 258.354 27.0156 257.594 27.0156C256.083 27.0156 254.688 26.7917 253.406 26.3438C252.125 25.8854 251.016 25.25 250.078 24.4375C249.141 23.6146 248.406 22.6302 247.875 21.4844C247.354 20.3385 247.094 19.0677 247.094 17.6719C247.094 16.2448 247.37 14.9531 247.922 13.7969C248.474 12.6302 249.234 11.6354 250.203 10.8125C251.182 9.98958 252.339 9.35417 253.672 8.90625C255.005 8.45833 256.453 8.23438 258.016 8.23438C258.682 8.23438 259.344 8.27604 260 8.35938C260.656 8.44271 261.281 8.55729 261.875 8.70312C262.479 8.84896 263.042 9.02604 263.562 9.23438C264.094 9.43229 264.562 9.65104 264.969 9.89062V8.5625H269.594V24.8906C269.594 26.5677 269.339 28.0521 268.828 29.3438C268.318 30.6354 267.568 31.7188 266.578 32.5938C265.599 33.4792 264.38 34.1458 262.922 34.5938C261.464 35.0521 259.792 35.2812 257.906 35.2812C257.229 35.2812 256.526 35.25 255.797 35.1875C255.068 35.1354 254.333 35.0521 253.594 34.9375C252.865 34.8333 252.141 34.7031 251.422 34.5469C250.714 34.401 250.031 34.2292 249.375 34.0312L251.094 30.125ZM251.953 17.625C251.953 18.3646 252.099 19.0625 252.391 19.7188C252.693 20.3646 253.12 20.9323 253.672 21.4219C254.224 21.901 254.891 22.2812 255.672 22.5625C256.453 22.8333 257.333 22.9688 258.312 22.9688C258.948 22.9688 259.578 22.9115 260.203 22.7969C260.839 22.6719 261.443 22.5 262.016 22.2812C262.599 22.0625 263.141 21.7969 263.641 21.4844C264.151 21.1719 264.594 20.8229 264.969 20.4375V14.3594C264.5 13.9844 264.005 13.6667 263.484 13.4062C262.964 13.1458 262.432 12.9323 261.891 12.7656C261.349 12.599 260.802 12.4792 260.25 12.4062C259.698 12.3229 259.161 12.2812 258.641 12.2812C257.578 12.2812 256.63 12.4219 255.797 12.7031C254.974 12.9844 254.276 13.3698 253.703 13.8594C253.141 14.3385 252.708 14.901 252.406 15.5469C252.104 16.1927 251.953 16.8854 251.953 17.625ZM273.984 17.7188C273.984 16.4688 274.24 15.276 274.75 14.1406C275.26 12.9948 275.995 11.9844 276.953 11.1094C277.911 10.2344 279.083 9.53646 280.469 9.01562C281.865 8.49479 283.448 8.23438 285.219 8.23438C286.979 8.23438 288.562 8.5 289.969 9.03125C291.385 9.55208 292.583 10.2708 293.562 11.1875C294.552 12.1042 295.307 13.1823 295.828 14.4219C296.359 15.6615 296.625 16.9896 296.625 18.4062C296.625 18.5833 296.62 18.776 296.609 18.9844C296.609 19.1823 296.599 19.3646 296.578 19.5312H279.141C279.339 20.0833 279.656 20.5885 280.094 21.0469C280.542 21.5052 281.099 21.901 281.766 22.2344C282.432 22.5677 283.203 22.8281 284.078 23.0156C284.953 23.1927 285.922 23.2812 286.984 23.2812C288.047 23.2812 289.104 23.1719 290.156 22.9531C291.208 22.724 292.214 22.4375 293.172 22.0938L294.734 25.625C294.13 25.9062 293.516 26.1562 292.891 26.375C292.276 26.5833 291.63 26.7604 290.953 26.9062C290.286 27.0417 289.583 27.1458 288.844 27.2188C288.115 27.2917 287.344 27.3281 286.531 27.3281C284.458 27.3281 282.641 27.0781 281.078 26.5781C279.516 26.0781 278.208 25.3958 277.156 24.5312C276.104 23.6667 275.312 22.651 274.781 21.4844C274.25 20.3177 273.984 19.0625 273.984 17.7188ZM291.719 15.9219C291.552 15.4115 291.292 14.9375 290.938 14.5C290.594 14.0521 290.161 13.6667 289.641 13.3438C289.12 13.0104 288.516 12.75 287.828 12.5625C287.141 12.375 286.385 12.2812 285.562 12.2812C284.688 12.2812 283.891 12.3802 283.172 12.5781C282.453 12.776 281.823 13.0417 281.281 13.375C280.74 13.7083 280.286 14.0938 279.922 14.5312C279.568 14.9688 279.307 15.4323 279.141 15.9219H291.719ZM300.5 17.7812C300.5 16.4583 300.766 15.2188 301.297 14.0625C301.839 12.9062 302.604 11.8958 303.594 11.0312C304.594 10.1667 305.797 9.48438 307.203 8.98438C308.62 8.48438 310.208 8.23438 311.969 8.23438C313.729 8.23438 315.312 8.48438 316.719 8.98438C318.135 9.48438 319.339 10.1667 320.328 11.0312C321.328 11.8958 322.094 12.9062 322.625 14.0625C323.167 15.2188 323.438 16.4583 323.438 17.7812C323.438 19.1042 323.167 20.3438 322.625 21.5C322.094 22.6562 321.328 23.6667 320.328 24.5312C319.339 25.3958 318.135 26.0781 316.719 26.5781C315.312 27.0781 313.729 27.3281 311.969 27.3281C310.208 27.3281 308.62 27.0781 307.203 26.5781C305.797 26.0781 304.594 25.3958 303.594 24.5312C302.604 23.6667 301.839 22.6562 301.297 21.5C300.766 20.3438 300.5 19.1042 300.5 17.7812ZM305.359 17.7812C305.359 18.5208 305.505 19.224 305.797 19.8906C306.099 20.5469 306.531 21.1302 307.094 21.6406C307.667 22.1406 308.359 22.5417 309.172 22.8438C309.995 23.1354 310.927 23.2812 311.969 23.2812C313.01 23.2812 313.938 23.1354 314.75 22.8438C315.573 22.5417 316.266 22.1406 316.828 21.6406C317.401 21.1302 317.833 20.5469 318.125 19.8906C318.427 19.224 318.578 18.5208 318.578 17.7812C318.578 17.0417 318.427 16.3385 318.125 15.6719C317.833 15.0052 317.401 14.4219 316.828 13.9219C316.266 13.4115 315.573 13.0104 314.75 12.7188C313.938 12.4167 313.01 12.2656 311.969 12.2656C310.927 12.2656 309.995 12.4167 309.172 12.7188C308.359 13.0104 307.667 13.4115 307.094 13.9219C306.531 14.4219 306.099 15.0052 305.797 15.6719C305.505 16.3385 305.359 17.0417 305.359 17.7812ZM328.109 8.5625H332.734V10.125C333.964 9.42708 335.135 8.9375 336.25 8.65625C337.375 8.375 338.474 8.23438 339.547 8.23438C340.953 8.23438 342.255 8.44271 343.453 8.85938C344.651 9.26562 345.688 9.875 346.562 10.6875C347.438 11.5 348.12 12.5156 348.609 13.7344C349.109 14.9427 349.359 16.3438 349.359 17.9375V27H344.75V18.6875C344.75 17.6771 344.604 16.776 344.312 15.9844C344.031 15.1823 343.62 14.5104 343.078 13.9688C342.547 13.4167 341.896 13 341.125 12.7188C340.365 12.4271 339.51 12.2812 338.562 12.2812C338.062 12.2812 337.547 12.3333 337.016 12.4375C336.495 12.5417 335.979 12.6927 335.469 12.8906C334.969 13.0781 334.484 13.3177 334.016 13.6094C333.547 13.8906 333.12 14.2135 332.734 14.5781V27H328.109V8.5625ZM355.781 21.3438C357.031 22.0938 358.406 22.6458 359.906 23C361.406 23.3542 362.943 23.5312 364.516 23.5312C365.578 23.5312 366.464 23.4583 367.172 23.3125C367.88 23.1667 368.448 22.9792 368.875 22.75C369.302 22.5208 369.604 22.2604 369.781 21.9688C369.958 21.6771 370.047 21.3802 370.047 21.0781C370.047 20.6406 369.854 20.2656 369.469 19.9531C369.094 19.6406 368.469 19.4844 367.594 19.4844C367.188 19.4844 366.75 19.5104 366.281 19.5625C365.812 19.6146 365.318 19.6719 364.797 19.7344C364.286 19.7865 363.75 19.8385 363.188 19.8906C362.635 19.9427 362.073 19.9688 361.5 19.9688C360.25 19.9688 359.182 19.8333 358.297 19.5625C357.422 19.2917 356.708 18.9219 356.156 18.4531C355.604 17.9844 355.203 17.4323 354.953 16.7969C354.703 16.151 354.578 15.4583 354.578 14.7188C354.578 13.7812 354.797 12.9167 355.234 12.125C355.672 11.3333 356.297 10.651 357.109 10.0781C357.922 9.49479 358.901 9.04167 360.047 8.71875C361.203 8.39583 362.49 8.23438 363.906 8.23438C364.646 8.23438 365.417 8.28125 366.219 8.375C367.031 8.45833 367.828 8.57292 368.609 8.71875C369.391 8.86458 370.141 9.03646 370.859 9.23438C371.578 9.42188 372.214 9.625 372.766 9.84375L371.312 13.4375C370.135 13 368.958 12.6562 367.781 12.4062C366.615 12.1458 365.411 12.0156 364.172 12.0156C363.307 12.0156 362.573 12.0833 361.969 12.2188C361.375 12.3438 360.891 12.5156 360.516 12.7344C360.141 12.9427 359.865 13.1875 359.688 13.4688C359.521 13.7396 359.438 14.026 359.438 14.3281C359.438 14.5469 359.479 14.7448 359.562 14.9219C359.656 15.099 359.802 15.2552 360 15.3906C360.208 15.5156 360.474 15.6146 360.797 15.6875C361.13 15.75 361.536 15.7812 362.016 15.7812C362.453 15.7812 362.917 15.7552 363.406 15.7031C363.896 15.651 364.406 15.599 364.938 15.5469C365.469 15.4844 366.016 15.4271 366.578 15.375C367.151 15.3229 367.734 15.2969 368.328 15.2969C369.432 15.2969 370.396 15.4271 371.219 15.6875C372.052 15.9479 372.74 16.3125 373.281 16.7812C373.823 17.25 374.229 17.8021 374.5 18.4375C374.771 19.0729 374.906 19.7656 374.906 20.5156C374.906 21.4844 374.682 22.3854 374.234 23.2188C373.786 24.0521 373.12 24.776 372.234 25.3906C371.349 25.9948 370.245 26.4688 368.922 26.8125C367.609 27.1562 366.089 27.3281 364.359 27.3281C363.297 27.3281 362.271 27.2604 361.281 27.125C360.292 27 359.349 26.8281 358.453 26.6094C357.557 26.3802 356.714 26.1146 355.922 25.8125C355.141 25.5104 354.427 25.1875 353.781 24.8438L355.781 21.3438Z" fill="#2D2E2F"/>
</svg>
