<svg width="375" height="36" viewBox="0 0 375 36" fill="none" xmlns="http://www.w3.org/2000/svg">
<path d="M0.3125 2.57812H5.71875L12.3438 18.3438L13.875 22.1562L15.0781 18.3438L17.5156 12.5938L13.125 2.57812H18.2188L20.0156 7.34375L21.6875 2.57812H26.7812L22.3906 12.5938L24.875 18.4688L26.375 22.1562L27.5312 18.4062L34.1875 2.57812H39.5938L28.8125 27H23.9062L21.7344 22.1562L19.9688 17.4531L18.2031 22.1562L16 27H11.0938L0.3125 2.57812ZM41.9219 21.1875C41.9219 20.3021 42.1146 19.4948 42.5 18.7656C42.8854 18.0365 43.4635 17.4115 44.2344 16.8906C45.0052 16.3594 45.9635 15.9531 47.1094 15.6719C48.2656 15.3802 49.6094 15.2344 51.1406 15.2344C52.276 15.2344 53.4688 15.3177 54.7188 15.4844C55.9792 15.651 57.276 15.9062 58.6094 16.25C58.5573 15.6667 58.3802 15.1302 58.0781 14.6406C57.776 14.1406 57.3542 13.7135 56.8125 13.3594C56.2812 12.9948 55.6354 12.7135 54.875 12.5156C54.125 12.3177 53.2708 12.2188 52.3125 12.2188C51.7917 12.2188 51.2188 12.25 50.5938 12.3125C49.9688 12.375 49.3229 12.4688 48.6562 12.5938C47.9896 12.7188 47.3281 12.875 46.6719 13.0625C46.026 13.25 45.4219 13.474 44.8594 13.7344L43.4531 9.9375C44.151 9.6875 44.8958 9.45833 45.6875 9.25C46.4896 9.04167 47.3073 8.86458 48.1406 8.71875C48.974 8.5625 49.8073 8.44271 50.6406 8.35938C51.474 8.27604 52.2812 8.23438 53.0625 8.23438C56.5104 8.23438 59.0729 9.11458 60.75 10.875C62.4271 12.6354 63.2656 15.3333 63.2656 18.9688V27H58.6406V25.2656C58.1615 25.5469 57.6354 25.8125 57.0625 26.0625C56.5 26.3125 55.8854 26.5312 55.2188 26.7188C54.5521 26.9062 53.8333 27.0521 53.0625 27.1562C52.3021 27.2708 51.4948 27.3281 50.6406 27.3281C49.2031 27.3281 47.9375 27.1719 46.8438 26.8594C45.7604 26.5469 44.8542 26.1146 44.125 25.5625C43.3958 25.0104 42.8438 24.3646 42.4688 23.625C42.1042 22.875 41.9219 22.0625 41.9219 21.1875ZM46.7969 21.0312C46.7969 21.3333 46.875 21.625 47.0312 21.9062C47.1875 22.1771 47.4375 22.4219 47.7812 22.6406C48.125 22.849 48.5625 23.0208 49.0938 23.1562C49.6354 23.2812 50.2865 23.3438 51.0469 23.3438C51.8594 23.3438 52.6458 23.2708 53.4062 23.125C54.1667 22.9792 54.875 22.7865 55.5312 22.5469C56.1875 22.3073 56.7812 22.0312 57.3125 21.7188C57.8438 21.4062 58.2865 21.0833 58.6406 20.75V19.9375C57.9323 19.7396 57.2292 19.5729 56.5312 19.4375C55.8438 19.3021 55.1823 19.1979 54.5469 19.125C53.9219 19.0417 53.3281 18.9844 52.7656 18.9531C52.2135 18.9219 51.7292 18.9062 51.3125 18.9062C50.4479 18.9062 49.7292 18.9635 49.1562 19.0781C48.5833 19.1927 48.1198 19.349 47.7656 19.5469C47.4115 19.7344 47.1615 19.9583 47.0156 20.2188C46.8698 20.4792 46.7969 20.75 46.7969 21.0312ZM69.3906 8.5625H74.0156V11.2188C75.0365 10.4583 76.1146 9.80208 77.25 9.25C78.3854 8.69792 79.5156 8.27604 80.6406 7.98438L82 12.2188C80.2188 12.3958 78.651 12.7969 77.2969 13.4219C75.9531 14.0365 74.8594 14.9062 74.0156 16.0312V27H69.3906V8.5625ZM98.0938 12.0312H94.9375V8.5625H98.0938C98.0938 7.3125 98.2708 6.20312 98.625 5.23438C98.9792 4.25521 99.4896 3.43229 100.156 2.76562C100.833 2.08854 101.651 1.57292 102.609 1.21875C103.578 0.864583 104.667 0.6875 105.875 0.6875C106.719 0.6875 107.547 0.770833 108.359 0.9375C109.172 1.09375 109.891 1.32292 110.516 1.625L108.875 5.51562C108.625 5.36979 108.271 5.23438 107.812 5.10938C107.365 4.98438 106.87 4.92188 106.328 4.92188C105.266 4.92188 104.406 5.22396 103.75 5.82812C103.104 6.42188 102.76 7.33333 102.719 8.5625H108.547V12.0312H102.719V27H98.0938V12.0312ZM111 17.7812C111 16.4583 111.266 15.2188 111.797 14.0625C112.339 12.9062 113.104 11.8958 114.094 11.0312C115.094 10.1667 116.297 9.48438 117.703 8.98438C119.12 8.48438 120.708 8.23438 122.469 8.23438C124.229 8.23438 125.812 8.48438 127.219 8.98438C128.635 9.48438 129.839 10.1667 130.828 11.0312C131.828 11.8958 132.594 12.9062 133.125 14.0625C133.667 15.2188 133.938 16.4583 133.938 17.7812C133.938 19.1042 133.667 20.3438 133.125 21.5C132.594 22.6562 131.828 23.6667 130.828 24.5312C129.839 25.3958 128.635 26.0781 127.219 26.5781C125.812 27.0781 124.229 27.3281 122.469 27.3281C120.708 27.3281 119.12 27.0781 117.703 26.5781C116.297 26.0781 115.094 25.3958 114.094 24.5312C113.104 23.6667 112.339 22.6562 111.797 21.5C111.266 20.3438 111 19.1042 111 17.7812ZM115.859 17.7812C115.859 18.5208 116.005 19.224 116.297 19.8906C116.599 20.5469 117.031 21.1302 117.594 21.6406C118.167 22.1406 118.859 22.5417 119.672 22.8438C120.495 23.1354 121.427 23.2812 122.469 23.2812C123.51 23.2812 124.438 23.1354 125.25 22.8438C126.073 22.5417 126.766 22.1406 127.328 21.6406C127.901 21.1302 128.333 20.5469 128.625 19.8906C128.927 19.224 129.078 18.5208 129.078 17.7812C129.078 17.0417 128.927 16.3385 128.625 15.6719C128.333 15.0052 127.901 14.4219 127.328 13.9219C126.766 13.4115 126.073 13.0104 125.25 12.7188C124.438 12.4167 123.51 12.2656 122.469 12.2656C121.427 12.2656 120.495 12.4167 119.672 12.7188C118.859 13.0104 118.167 13.4115 117.594 13.9219C117.031 14.4219 116.599 15.0052 116.297 15.6719C116.005 16.3385 115.859 17.0417 115.859 17.7812ZM138.609 8.5625H143.234V11.2188C144.255 10.4583 145.333 9.80208 146.469 9.25C147.604 8.69792 148.734 8.27604 149.859 7.98438L151.219 12.2188C149.438 12.3958 147.87 12.7969 146.516 13.4219C145.172 14.0365 144.078 14.9062 143.234 16.0312V27H138.609V8.5625ZM165.875 2.57812H174.828C177.443 2.57812 179.714 2.85938 181.641 3.42188C183.568 3.98438 185.161 4.79167 186.422 5.84375C187.693 6.88542 188.635 8.15625 189.25 9.65625C189.875 11.1458 190.188 12.8229 190.188 14.6875C190.188 16.4583 189.88 18.099 189.266 19.6094C188.651 21.1094 187.714 22.4115 186.453 23.5156C185.193 24.6094 183.599 25.4688 181.672 26.0938C179.745 26.7083 177.474 27.0156 174.859 27.0156L165.875 27V2.57812ZM176.047 22.7188C177.526 22.7188 178.823 22.5312 179.938 22.1562C181.052 21.7708 181.979 21.2292 182.719 20.5312C183.469 19.8333 184.031 18.9896 184.406 18C184.781 17.0104 184.969 15.9062 184.969 14.6875C184.969 13.4896 184.781 12.4115 184.406 11.4531C184.031 10.4844 183.469 9.66667 182.719 9C181.979 8.32292 181.052 7.80208 179.938 7.4375C178.823 7.07292 177.526 6.89062 176.047 6.89062H170.828V22.7188H176.047ZM194.578 8.54688H199.188V17.5469C199.188 18.401 199.281 19.1823 199.469 19.8906C199.656 20.5885 199.974 21.1875 200.422 21.6875C200.88 22.1875 201.484 22.5781 202.234 22.8594C202.995 23.1302 203.938 23.2656 205.062 23.2656C205.594 23.2656 206.13 23.2083 206.672 23.0938C207.224 22.9792 207.75 22.8229 208.25 22.625C208.75 22.4167 209.214 22.1719 209.641 21.8906C210.078 21.6094 210.453 21.3021 210.766 20.9688V8.54688H215.391V27H210.766V25.4219C209.63 26.099 208.49 26.5833 207.344 26.875C206.198 27.1667 205.109 27.3125 204.078 27.3125C202.391 27.3125 200.943 27.1094 199.734 26.7031C198.536 26.2969 197.552 25.7083 196.781 24.9375C196.021 24.1562 195.464 23.2031 195.109 22.0781C194.755 20.9427 194.578 19.651 194.578 18.2031V8.54688ZM221.266 8.5625H225.891V10.125C227.12 9.42708 228.292 8.9375 229.406 8.65625C230.531 8.375 231.63 8.23438 232.703 8.23438C234.109 8.23438 235.411 8.44271 236.609 8.85938C237.807 9.26562 238.844 9.875 239.719 10.6875C240.594 11.5 241.276 12.5156 241.766 13.7344C242.266 14.9427 242.516 16.3438 242.516 17.9375V27H237.906V18.6875C237.906 17.6771 237.76 16.776 237.469 15.9844C237.188 15.1823 236.776 14.5104 236.234 13.9688C235.703 13.4167 235.052 13 234.281 12.7188C233.521 12.4271 232.667 12.2812 231.719 12.2812C231.219 12.2812 230.703 12.3333 230.172 12.4375C229.651 12.5417 229.135 12.6927 228.625 12.8906C228.125 13.0781 227.641 13.3177 227.172 13.6094C226.703 13.8906 226.276 14.2135 225.891 14.5781V27H221.266V8.5625ZM251.094 30.125C251.677 30.3333 252.271 30.5052 252.875 30.6406C253.479 30.7865 254.062 30.901 254.625 30.9844C255.198 31.0781 255.745 31.1406 256.266 31.1719C256.786 31.2135 257.25 31.2344 257.656 31.2344C258.885 31.2344 259.953 31.0833 260.859 30.7812C261.776 30.4896 262.536 30.0938 263.141 29.5938C263.755 29.0938 264.214 28.5104 264.516 27.8438C264.818 27.1875 264.969 26.4896 264.969 25.75V24.9531C264.573 25.224 264.109 25.4844 263.578 25.7344C263.047 25.9844 262.464 26.2031 261.828 26.3906C261.193 26.5781 260.516 26.7292 259.797 26.8438C259.089 26.9583 258.354 27.0156 257.594 27.0156C256.083 27.0156 254.688 26.7917 253.406 26.3438C252.125 25.8854 251.016 25.25 250.078 24.4375C249.141 23.6146 248.406 22.6302 247.875 21.4844C247.354 20.3385 247.094 19.0677 247.094 17.6719C247.094 16.2448 247.37 14.9531 247.922 13.7969C248.474 12.6302 249.234 11.6354 250.203 10.8125C251.182 9.98958 252.339 9.35417 253.672 8.90625C255.005 8.45833 256.453 8.23438 258.016 8.23438C258.682 8.23438 259.344 8.27604 260 8.35938C260.656 8.44271 261.281 8.55729 261.875 8.70312C262.479 8.84896 263.042 9.02604 263.562 9.23438C264.094 9.43229 264.562 9.65104 264.969 9.89062V8.5625H269.594V24.8906C269.594 26.5677 269.339 28.0521 268.828 29.3438C268.318 30.6354 267.568 31.7188 266.578 32.5938C265.599 33.4792 264.38 34.1458 262.922 34.5938C261.464 35.0521 259.792 35.2812 257.906 35.2812C257.229 35.2812 256.526 35.25 255.797 35.1875C255.068 35.1354 254.333 35.0521 253.594 34.9375C252.865 34.8333 252.141 34.7031 251.422 34.5469C250.714 34.401 250.031 34.2292 249.375 34.0312L251.094 30.125ZM251.953 17.625C251.953 18.3646 252.099 19.0625 252.391 19.7188C252.693 20.3646 253.12 20.9323 253.672 21.4219C254.224 21.901 254.891 22.2812 255.672 22.5625C256.453 22.8333 257.333 22.9688 258.312 22.9688C258.948 22.9688 259.578 22.9115 260.203 22.7969C260.839 22.6719 261.443 22.5 262.016 22.2812C262.599 22.0625 263.141 21.7969 263.641 21.4844C264.151 21.1719 264.594 20.8229 264.969 20.4375V14.3594C264.5 13.9844 264.005 13.6667 263.484 13.4062C262.964 13.1458 262.432 12.9323 261.891 12.7656C261.349 12.599 260.802 12.4792 260.25 12.4062C259.698 12.3229 259.161 12.2812 258.641 12.2812C257.578 12.2812 256.63 12.4219 255.797 12.7031C254.974 12.9844 254.276 13.3698 253.703 13.8594C253.141 14.3385 252.708 14.901 252.406 15.5469C252.104 16.1927 251.953 16.8854 251.953 17.625ZM273.984 17.7188C273.984 16.4688 274.24 15.276 274.75 14.1406C275.26 12.9948 275.995 11.9844 276.953 11.1094C277.911 10.2344 279.083 9.53646 280.469 9.01562C281.865 8.49479 283.448 8.23438 285.219 8.23438C286.979 8.23438 288.562 8.5 289.969 9.03125C291.385 9.55208 292.583 10.2708 293.562 11.1875C294.552 12.1042 295.307 13.1823 295.828 14.4219C296.359 15.6615 296.625 16.9896 296.625 18.4062C296.625 18.5833 296.62 18.776 296.609 18.9844C296.609 19.1823 296.599 19.3646 296.578 19.5312H279.141C279.339 20.0833 279.656 20.5885 280.094 21.0469C280.542 21.5052 281.099 21.901 281.766 22.2344C282.432 22.5677 283.203 22.8281 284.078 23.0156C284.953 23.1927 285.922 23.2812 286.984 23.2812C288.047 23.2812 289.104 23.1719 290.156 22.9531C291.208 22.724 292.214 22.4375 293.172 22.0938L294.734 25.625C294.13 25.9062 293.516 26.1562 292.891 26.375C292.276 26.5833 291.63 26.7604 290.953 26.9062C290.286 27.0417 289.583 27.1458 288.844 27.2188C288.115 27.2917 287.344 27.3281 286.531 27.3281C284.458 27.3281 282.641 27.0781 281.078 26.5781C279.516 26.0781 278.208 25.3958 277.156 24.5312C276.104 23.6667 275.312 22.651 274.781 21.4844C274.25 20.3177 273.984 19.0625 273.984 17.7188ZM291.719 15.9219C291.552 15.4115 291.292 14.9375 290.938 14.5C290.594 14.0521 290.161 13.6667 289.641 13.3438C289.12 13.0104 288.516 12.75 287.828 12.5625C287.141 12.375 286.385 12.2812 285.562 12.2812C284.688 12.2812 283.891 12.3802 283.172 12.5781C282.453 12.776 281.823 13.0417 281.281 13.375C280.74 13.7083 280.286 14.0938 279.922 14.5312C279.568 14.9688 279.307 15.4323 279.141 15.9219H291.719ZM300.5 17.7812C300.5 16.4583 300.766 15.2188 301.297 14.0625C301.839 12.9062 302.604 11.8958 303.594 11.0312C304.594 10.1667 305.797 9.48438 307.203 8.98438C308.62 8.48438 310.208 8.23438 311.969 8.23438C313.729 8.23438 315.312 8.48438 316.719 8.98438C318.135 9.48438 319.339 10.1667 320.328 11.0312C321.328 11.8958 322.094 12.9062 322.625 14.0625C323.167 15.2188 323.438 16.4583 323.438 17.7812C323.438 19.1042 323.167 20.3438 322.625 21.5C322.094 22.6562 321.328 23.6667 320.328 24.5312C319.339 25.3958 318.135 26.0781 316.719 26.5781C315.312 27.0781 313.729 27.3281 311.969 27.3281C310.208 27.3281 308.62 27.0781 307.203 26.5781C305.797 26.0781 304.594 25.3958 303.594 24.5312C302.604 23.6667 301.839 22.6562 301.297 21.5C300.766 20.3438 300.5 19.1042 300.5 17.7812ZM305.359 17.7812C305.359 18.5208 305.505 19.224 305.797 19.8906C306.099 20.5469 306.531 21.1302 307.094 21.6406C307.667 22.1406 308.359 22.5417 309.172 22.8438C309.995 23.1354 310.927 23.2812 311.969 23.2812C313.01 23.2812 313.938 23.1354 314.75 22.8438C315.573 22.5417 316.266 22.1406 316.828 21.6406C317.401 21.1302 317.833 20.5469 318.125 19.8906C318.427 19.224 318.578 18.5208 318.578 17.7812C318.578 17.0417 318.427 16.3385 318.125 15.6719C317.833 15.0052 317.401 14.4219 316.828 13.9219C316.266 13.4115 315.573 13.0104 314.75 12.7188C313.938 12.4167 313.01 12.2656 311.969 12.2656C310.927 12.2656 309.995 12.4167 309.172 12.7188C308.359 13.0104 307.667 13.4115 307.094 13.9219C306.531 14.4219 306.099 15.0052 305.797 15.6719C305.505 16.3385 305.359 17.0417 305.359 17.7812ZM328.109 8.5625H332.734V10.125C333.964 9.42708 335.135 8.9375 336.25 8.65625C337.375 8.375 338.474 8.23438 339.547 8.23438C340.953 8.23438 342.255 8.44271 343.453 8.85938C344.651 9.26562 345.688 9.875 346.562 10.6875C347.438 11.5 348.12 12.5156 348.609 13.7344C349.109 14.9427 349.359 16.3438 349.359 17.9375V27H344.75V18.6875C344.75 17.6771 344.604 16.776 344.312 15.9844C344.031 15.1823 343.62 14.5104 343.078 13.9688C342.547 13.4167 341.896 13 341.125 12.7188C340.365 12.4271 339.51 12.2812 338.562 12.2812C338.062 12.2812 337.547 12.3333 337.016 12.4375C336.495 12.5417 335.979 12.6927 335.469 12.8906C334.969 13.0781 334.484 13.3177 334.016 13.6094C333.547 13.8906 333.12 14.2135 332.734 14.5781V27H328.109V8.5625ZM355.781 21.3438C357.031 22.0938 358.406 22.6458 359.906 23C361.406 23.3542 362.943 23.5312 364.516 23.5312C365.578 23.5312 366.464 23.4583 367.172 23.3125C367.88 23.1667 368.448 22.9792 368.875 22.75C369.302 22.5208 369.604 22.2604 369.781 21.9688C369.958 21.6771 370.047 21.3802 370.047 21.0781C370.047 20.6406 369.854 20.2656 369.469 19.9531C369.094 19.6406 368.469 19.4844 367.594 19.4844C367.188 19.4844 366.75 19.5104 366.281 19.5625C365.812 19.6146 365.318 19.6719 364.797 19.7344C364.286 19.7865 363.75 19.8385 363.188 19.8906C362.635 19.9427 362.073 19.9688 361.5 19.9688C360.25 19.9688 359.182 19.8333 358.297 19.5625C357.422 19.2917 356.708 18.9219 356.156 18.4531C355.604 17.9844 355.203 17.4323 354.953 16.7969C354.703 16.151 354.578 15.4583 354.578 14.7188C354.578 13.7812 354.797 12.9167 355.234 12.125C355.672 11.3333 356.297 10.651 357.109 10.0781C357.922 9.49479 358.901 9.04167 360.047 8.71875C361.203 8.39583 362.49 8.23438 363.906 8.23438C364.646 8.23438 365.417 8.28125 366.219 8.375C367.031 8.45833 367.828 8.57292 368.609 8.71875C369.391 8.86458 370.141 9.03646 370.859 9.23438C371.578 9.42188 372.214 9.625 372.766 9.84375L371.312 13.4375C370.135 13 368.958 12.6562 367.781 12.4062C366.615 12.1458 365.411 12.0156 364.172 12.0156C363.307 12.0156 362.573 12.0833 361.969 12.2188C361.375 12.3438 360.891 12.5156 360.516 12.7344C360.141 12.9427 359.865 13.1875 359.688 13.4688C359.521 13.7396 359.438 14.026 359.438 14.3281C359.438 14.5469 359.479 14.7448 359.562 14.9219C359.656 15.099 359.802 15.2552 360 15.3906C360.208 15.5156 360.474 15.6146 360.797 15.6875C361.13 15.75 361.536 15.7812 362.016 15.7812C362.453 15.7812 362.917 15.7552 363.406 15.7031C363.896 15.651 364.406 15.599 364.938 15.5469C365.469 15.4844 366.016 15.4271 366.578 15.375C367.151 15.3229 367.734 15.2969 368.328 15.2969C369.432 15.2969 370.396 15.4271 371.219 15.6875C372.052 15.9479 372.74 16.3125 373.281 16.7812C373.823 17.25 374.229 17.8021 374.5 18.4375C374.771 19.0729 374.906 19.7656 374.906 20.5156C374.906 21.4844 374.682 22.3854 374.234 23.2188C373.786 24.0521 373.12 24.776 372.234 25.3906C371.349 25.9948 370.245 26.4688 368.922 26.8125C367.609 27.1562 366.089 27.3281 364.359 27.3281C363.297 27.3281 362.271 27.2604 361.281 27.125C360.292 27 359.349 26.8281 358.453 26.6094C357.557 26.3802 356.714 26.1146 355.922 25.8125C355.141 25.5104 354.427 25.1875 353.781 24.8438L355.781 21.3438Z" fill="#CBE6FF"/>
<path d="M0.3125 2.57812V1.57812H-1.22207L-0.602322 2.98198L0.3125 2.57812ZM5.71875 2.57812L6.64066 2.19072L6.38324 1.57812H5.71875V2.57812ZM12.3438 18.3438L13.2717 17.971L13.2687 17.9637L13.2657 17.9563L12.3438 18.3438ZM13.875 22.1562L12.947 22.529L13.9881 25.1209L14.8286 22.4572L13.875 22.1562ZM15.0781 18.3438L14.1574 17.9535L14.1388 17.9973L14.1245 18.0428L15.0781 18.3438ZM17.5156 12.5938L18.4363 12.984L18.6046 12.5871L18.4315 12.1923L17.5156 12.5938ZM13.125 2.57812V1.57812H11.5948L12.2091 2.97962L13.125 2.57812ZM18.2188 2.57812L19.1544 2.22532L18.9104 1.57812H18.2188V2.57812ZM20.0156 7.34375L19.0799 7.69655L20.0495 10.268L20.9592 7.67479L20.0156 7.34375ZM21.6875 2.57812V1.57812H20.9786L20.7439 2.24709L21.6875 2.57812ZM26.7812 2.57812L27.6971 2.97962L28.3115 1.57812H26.7812V2.57812ZM22.3906 12.5938L21.4748 12.1923L21.3019 12.5866L21.4696 12.9832L22.3906 12.5938ZM24.875 18.4688L25.8014 18.0919L25.796 18.0793L24.875 18.4688ZM26.375 22.1562L25.4487 22.533L26.5048 25.1292L27.3306 22.4509L26.375 22.1562ZM27.5312 18.4062L26.6094 18.0186L26.5902 18.0643L26.5756 18.1116L27.5312 18.4062ZM34.1875 2.57812V1.57812H33.5232L33.2657 2.19047L34.1875 2.57812ZM39.5938 2.57812L40.5086 2.98198L41.1283 1.57812H39.5938V2.57812ZM28.8125 27V28H29.4641L29.7273 27.4039L28.8125 27ZM23.9062 27L22.9938 27.4091L23.2587 28H23.9062V27ZM21.7344 22.1562L20.7982 22.5077L20.8091 22.5369L20.8219 22.5654L21.7344 22.1562ZM19.9688 17.4531L20.905 17.1017L19.9688 14.6079L19.0325 17.1017L19.9688 17.4531ZM18.2031 22.1562L19.1134 22.5703L19.1274 22.5394L19.1393 22.5077L18.2031 22.1562ZM16 27V28H16.6437L16.9103 27.414L16 27ZM11.0938 27L10.1789 27.4039L10.4421 28H11.0938V27ZM0.3125 3.57812H5.71875V1.57812H0.3125V3.57812ZM4.79684 2.96553L11.4218 18.7312L13.2657 17.9563L6.64066 2.19072L4.79684 2.96553ZM11.4158 18.7165L12.947 22.529L14.803 21.7835L13.2717 17.971L11.4158 18.7165ZM14.8286 22.4572L16.0318 18.6447L14.1245 18.0428L12.9214 21.8553L14.8286 22.4572ZM15.9988 18.734L18.4363 12.984L16.5949 12.2035L14.1574 17.9535L15.9988 18.734ZM18.4315 12.1923L14.0409 2.17663L12.2091 2.97962L16.5998 12.9952L18.4315 12.1923ZM13.125 3.57812H18.2188V1.57812H13.125V3.57812ZM17.2831 2.93093L19.0799 7.69655L20.9513 6.99095L19.1544 2.22532L17.2831 2.93093ZM20.9592 7.67479L22.6311 2.90916L20.7439 2.24709L19.072 7.01271L20.9592 7.67479ZM21.6875 3.57812H26.7812V1.57812H21.6875V3.57812ZM25.8654 2.17663L21.4748 12.1923L23.3065 12.9952L27.6971 2.97962L25.8654 2.17663ZM21.4696 12.9832L23.954 18.8582L25.796 18.0793L23.3117 12.2043L21.4696 12.9832ZM23.9487 18.8455L25.4487 22.533L27.3013 21.7795L25.8013 18.092L23.9487 18.8455ZM27.3306 22.4509L28.4869 18.7009L26.5756 18.1116L25.4194 21.8616L27.3306 22.4509ZM28.4531 18.7939L35.1093 2.96578L33.2657 2.19047L26.6094 18.0186L28.4531 18.7939ZM34.1875 3.57812H39.5938V1.57812H34.1875V3.57812ZM38.6789 2.17427L27.8977 26.5961L29.7273 27.4039L40.5086 2.98198L38.6789 2.17427ZM28.8125 26H23.9062V28H28.8125V26ZM24.8187 26.5909L22.6468 21.7471L20.8219 22.5654L22.9938 27.4091L24.8187 26.5909ZM22.6706 21.8048L20.905 17.1017L19.0325 17.8046L20.7982 22.5077L22.6706 21.8048ZM19.0325 17.1017L17.2669 21.8048L19.1393 22.5077L20.905 17.8046L19.0325 17.1017ZM17.2929 21.7422L15.0897 26.586L16.9103 27.414L19.1134 22.5703L17.2929 21.7422ZM16 26H11.0938V28H16V26ZM12.0086 26.5961L1.22732 2.17427L-0.602322 2.98198L10.1789 27.4039L12.0086 26.5961ZM42.5 18.7656L41.6159 18.2983L42.5 18.7656ZM44.2344 16.8906L44.7943 17.7192L44.8018 17.714L44.2344 16.8906ZM47.1094 15.6719L47.3478 16.6431L47.354 16.6415L47.1094 15.6719ZM54.7188 15.4844L54.5866 16.4756L54.5877 16.4757L54.7188 15.4844ZM58.6094 16.25L58.3597 17.2183L59.7314 17.572L59.6054 16.1611L58.6094 16.25ZM58.0781 14.6406L57.2222 15.1578L57.2271 15.1657L58.0781 14.6406ZM56.8125 13.3594L56.2467 14.1839L56.2559 14.1902L56.2653 14.1963L56.8125 13.3594ZM54.875 12.5156L54.6198 13.4825L54.6231 13.4834L54.875 12.5156ZM46.6719 13.0625L46.3972 12.101L46.3931 12.1022L46.6719 13.0625ZM44.8594 13.7344L43.9216 14.0817L44.2975 15.0965L45.2795 14.6418L44.8594 13.7344ZM43.4531 9.9375L43.1159 8.99608L42.1643 9.33694L42.5154 10.2848L43.4531 9.9375ZM45.6875 9.25L45.4361 8.28211L45.433 8.28293L45.6875 9.25ZM48.1406 8.71875L48.313 9.70385L48.3249 9.70162L48.1406 8.71875ZM60.75 10.875L60.026 11.5648L60.75 10.875ZM63.2656 27V28H64.2656V27H63.2656ZM58.6406 27H57.6406V28H58.6406V27ZM58.6406 25.2656H59.6406V23.5191L58.1344 24.4032L58.6406 25.2656ZM57.0625 26.0625L56.6625 25.1459L56.6564 25.1487L57.0625 26.0625ZM53.0625 27.1562L52.9286 26.1653L52.921 26.1663L52.9135 26.1674L53.0625 27.1562ZM46.8438 26.8594L46.5666 27.8202L46.569 27.8209L46.8438 26.8594ZM42.4688 23.625L41.5694 24.0622L41.5731 24.0697L41.5768 24.0772L42.4688 23.625ZM47.0312 21.9062L46.1571 22.3919L46.161 22.399L46.1651 22.406L47.0312 21.9062ZM47.7812 22.6406L47.2444 23.4843L47.2536 23.4902L47.2629 23.4958L47.7812 22.6406ZM49.0938 23.1562L48.8467 24.1253L48.8578 24.1281L48.8689 24.1306L49.0938 23.1562ZM53.4062 23.125L53.2179 22.1429L53.4062 23.125ZM58.6406 20.75L59.326 21.4782L59.6406 21.1821V20.75H58.6406ZM58.6406 19.9375H59.6406V19.1786L58.9097 18.9744L58.6406 19.9375ZM56.5312 19.4375L56.338 20.4187L56.3408 20.4192L56.5312 19.4375ZM54.5469 19.125L54.4147 20.1162L54.4238 20.1174L54.4329 20.1185L54.5469 19.125ZM52.7656 18.9531L52.7091 19.9515L52.7102 19.9516L52.7656 18.9531ZM49.1562 19.0781L49.3524 20.0587L49.1562 19.0781ZM47.7656 19.5469L48.2335 20.4307L48.2435 20.4254L48.2534 20.4198L47.7656 19.5469ZM42.9219 21.1875C42.9219 20.4527 43.0803 19.8076 43.3841 19.2329L41.6159 18.2983C41.1488 19.182 40.9219 20.1515 40.9219 21.1875H42.9219ZM43.3841 19.2329C43.6834 18.6667 44.1419 18.16 44.7942 17.7192L43.6745 16.062C42.7852 16.6629 42.0875 17.4062 41.6159 18.2983L43.3841 19.2329ZM44.8018 17.714C45.4506 17.2669 46.2903 16.9026 47.3478 16.643L46.871 14.7007C45.6368 15.0036 44.5598 15.4519 43.6669 16.0672L44.8018 17.714ZM47.354 16.6415C48.4114 16.3748 49.6698 16.2344 51.1406 16.2344V14.2344C49.5489 14.2344 48.1199 14.3857 46.8648 14.7022L47.354 16.6415ZM51.1406 16.2344C52.2273 16.2344 53.3757 16.3141 54.5866 16.4756L54.8509 14.4931C53.5618 14.3213 52.3248 14.2344 51.1406 14.2344V16.2344ZM54.5877 16.4757C55.805 16.6367 57.0622 16.8838 58.3597 17.2183L58.859 15.2817C57.4899 14.9287 56.1533 14.6654 54.8498 14.493L54.5877 16.4757ZM59.6054 16.1611C59.5398 15.4259 59.3143 14.7397 58.9292 14.1155L57.2271 15.1657C57.4461 15.5207 57.5748 15.9074 57.6133 16.3389L59.6054 16.1611ZM58.934 14.1235C58.5463 13.4818 58.0133 12.9497 57.3597 12.5224L56.2653 14.1963C56.695 14.4774 57.0058 14.7995 57.2222 15.1577L58.934 14.1235ZM57.3783 12.5349C56.7332 12.0921 55.9756 11.7688 55.1269 11.5479L54.6231 13.4834C55.2952 13.6583 55.8293 13.8975 56.2467 14.1839L57.3783 12.5349ZM55.1302 11.5487C54.2801 11.3244 53.3376 11.2188 52.3125 11.2188V13.2188C53.204 13.2188 53.9699 13.311 54.6198 13.4825L55.1302 11.5487ZM52.3125 11.2188C51.7525 11.2188 51.1458 11.2523 50.4942 11.3175L50.6933 13.3075C51.2917 13.2477 51.8308 13.2188 52.3125 13.2188V11.2188ZM50.4942 11.3175C49.8387 11.383 49.1645 11.481 48.472 11.6109L48.8405 13.5766C49.4813 13.4565 50.0988 13.367 50.6933 13.3075L50.4942 11.3175ZM48.472 11.6109C47.7746 11.7416 47.083 11.905 46.3972 12.101L46.9466 14.024C47.5732 13.845 48.2045 13.6959 48.8405 13.5766L48.472 11.6109ZM46.3931 12.1022C45.7029 12.3025 45.0511 12.5436 44.4393 12.8269L45.2795 14.6418C45.7926 14.4043 46.3492 14.1975 46.9507 14.0228L46.3931 12.1022ZM45.7971 13.3871L44.3909 9.59019L42.5154 10.2848L43.9216 14.0817L45.7971 13.3871ZM43.7904 10.8789C44.4584 10.6396 45.1754 10.4188 45.942 10.2171L45.433 8.28293C44.6162 8.49786 43.8436 8.73539 43.1159 8.99608L43.7904 10.8789ZM45.9389 10.2179C46.7143 10.0165 47.5057 9.84506 48.313 9.70378L47.9682 7.73372C47.1089 7.8841 46.2648 8.06686 45.4361 8.28212L45.9389 10.2179ZM48.3249 9.70162C49.1305 9.55057 49.9356 9.43487 50.7401 9.35441L50.5411 7.36434C49.679 7.45055 48.8174 7.57443 47.9563 7.73588L48.3249 9.70162ZM50.7401 9.35441C51.5427 9.27415 52.3168 9.23438 53.0625 9.23438V7.23438C52.2457 7.23438 51.4052 7.27793 50.5411 7.36434L50.7401 9.35441ZM53.0625 9.23438C56.3532 9.23438 58.6052 10.0734 60.026 11.5648L61.474 10.1852C59.5407 8.15581 56.6676 7.23438 53.0625 7.23438V9.23438ZM60.026 11.5648C61.4553 13.0651 62.2656 15.4652 62.2656 18.9688H64.2656C64.2656 15.2014 63.3989 12.2058 61.474 10.1852L60.026 11.5648ZM62.2656 18.9688V27H64.2656V18.9688H62.2656ZM63.2656 26H58.6406V28H63.2656V26ZM59.6406 27V25.2656H57.6406V27H59.6406ZM58.1344 24.4032C57.6935 24.662 57.2034 24.9099 56.6626 25.146L57.4624 26.979C58.0674 26.7151 58.6294 26.4317 59.1468 26.128L58.1344 24.4032ZM56.6564 25.1487C56.1428 25.3769 55.5741 25.58 54.948 25.7561L55.4895 27.6814C56.1968 27.4825 56.8572 27.2481 57.4686 26.9763L56.6564 25.1487ZM54.948 25.7561C54.3313 25.9295 53.6587 26.0666 52.9286 26.1653L53.1964 28.1472C54.0079 28.0376 54.7729 27.883 55.4895 27.6814L54.948 25.7561ZM52.9135 26.1674C52.2075 26.2738 51.4503 26.3281 50.6406 26.3281V28.3281C51.5393 28.3281 52.3967 28.2679 53.2115 28.1451L52.9135 26.1674ZM50.6406 26.3281C49.2728 26.3281 48.103 26.1791 47.1185 25.8979L46.569 27.8209C47.772 28.1646 49.1335 28.3281 50.6406 28.3281V26.3281ZM47.1209 25.8986C46.129 25.6124 45.3401 25.2282 44.7286 24.7652L43.5214 26.3598C44.3682 27.001 45.3919 27.4813 46.5666 27.8202L47.1209 25.8986ZM44.7286 24.7652C44.1079 24.2952 43.6602 23.7635 43.3607 23.1728L41.5768 24.0772C42.0273 24.9657 42.6838 25.7256 43.5214 26.3598L44.7286 24.7652ZM43.3681 23.1878C43.073 22.5808 42.9219 21.9187 42.9219 21.1875H40.9219C40.9219 22.2063 41.1353 23.1692 41.5694 24.0622L43.3681 23.1878ZM45.7969 21.0312C45.7969 21.5143 45.9239 21.9721 46.1571 22.3919L47.9054 21.4206C47.8261 21.2779 47.7969 21.1523 47.7969 21.0312H45.7969ZM46.1651 22.406C46.4225 22.8521 46.8046 23.2044 47.2444 23.4843L48.3181 21.797C48.0704 21.6393 47.9525 21.502 47.8974 21.4065L46.1651 22.406ZM47.2629 23.4958C47.7154 23.77 48.2521 23.9737 48.8467 24.1253L49.3408 22.1872C48.8729 22.068 48.5346 21.9279 48.2996 21.7854L47.2629 23.4958ZM48.8689 24.1306C49.5056 24.2776 50.2364 24.3438 51.0469 24.3438V22.3438C50.3366 22.3438 49.7652 22.2849 49.3186 22.1819L48.8689 24.1306ZM51.0469 24.3438C51.9195 24.3438 52.7691 24.2654 53.5946 24.1071L53.2179 22.1429C52.5225 22.2763 51.7993 22.3438 51.0469 22.3438V24.3438ZM53.5946 24.1071C54.402 23.9523 55.1626 23.746 55.8742 23.4862L55.1883 21.6075C54.5874 21.8269 53.9313 22.0061 53.2179 22.1429L53.5946 24.1071ZM55.8742 23.4862C56.58 23.2286 57.2297 22.9277 57.8195 22.5807L56.8055 20.8568C56.3328 21.1348 55.795 21.386 55.1883 21.6075L55.8742 23.4862ZM57.8195 22.5807C58.3988 22.2399 58.9054 21.8741 59.326 21.4782L57.9553 20.0218C57.6675 20.2926 57.2887 20.5726 56.8055 20.8568L57.8195 22.5807ZM59.6406 20.75V19.9375H57.6406V20.75H59.6406ZM58.9097 18.9744C58.1763 18.7695 57.447 18.5965 56.7217 18.4558L56.3408 20.4192C57.0113 20.5493 57.6882 20.7097 58.3715 20.9006L58.9097 18.9744ZM56.7245 18.4564C56.0132 18.3162 55.3252 18.2078 54.6609 18.1315L54.4329 20.1185C55.0393 20.1881 55.6743 20.2879 56.338 20.4186L56.7245 18.4564ZM54.679 18.1338C54.0315 18.0474 53.4121 17.9875 52.8211 17.9547L52.7102 19.9516C53.2442 19.9813 53.8122 20.0359 54.4147 20.1162L54.679 18.1338ZM52.8221 17.9547C52.2569 17.9227 51.7529 17.9062 51.3125 17.9062V19.9062C51.7054 19.9062 52.1702 19.921 52.7091 19.9515L52.8221 17.9547ZM51.3125 17.9062C50.4102 17.9062 49.6204 17.9655 48.9601 18.0975L49.3524 20.0587C49.838 19.9616 50.4856 19.9062 51.3125 19.9062V17.9062ZM48.9601 18.0975C48.3259 18.2244 47.7534 18.4081 47.2778 18.6739L48.2534 20.4198C48.4862 20.2898 48.8408 20.161 49.3524 20.0587L48.9601 18.0975ZM47.2977 18.6631C46.8303 18.9106 46.4101 19.2534 46.1431 19.7301L47.8881 20.7074C47.9128 20.6633 47.9926 20.5582 48.2335 20.4307L47.2977 18.6631ZM46.1431 19.7301C45.919 20.1304 45.7969 20.5684 45.7969 21.0312H47.7969C47.7969 20.9316 47.8206 20.8279 47.8881 20.7074L46.1431 19.7301ZM69.3906 8.5625V7.5625H68.3906V8.5625H69.3906ZM74.0156 8.5625H75.0156V7.5625H74.0156V8.5625ZM74.0156 11.2188H73.0156V13.2106L74.613 12.0207L74.0156 11.2188ZM80.6406 7.98438L81.5928 7.67871L81.304 6.77932L80.3897 7.01638L80.6406 7.98438ZM82 12.2188L82.0989 13.2138L83.3304 13.0914L82.9521 11.9131L82 12.2188ZM77.2969 13.4219L77.7128 14.3313L77.7159 14.3298L77.2969 13.4219ZM74.0156 16.0312L73.2156 15.4312L73.0156 15.6979V16.0312H74.0156ZM74.0156 27V28H75.0156V27H74.0156ZM69.3906 27H68.3906V28H69.3906V27ZM69.3906 9.5625H74.0156V7.5625H69.3906V9.5625ZM73.0156 8.5625V11.2188H75.0156V8.5625H73.0156ZM74.613 12.0207C75.5841 11.2974 76.6086 10.6738 77.6873 10.1493L76.8127 8.35068C75.6205 8.93036 74.4889 9.61929 73.4182 10.4168L74.613 12.0207ZM77.6873 10.1493C78.7681 9.62379 79.8361 9.22603 80.8916 8.95237L80.3897 7.01638C79.1952 7.32606 78.0027 7.77205 76.8127 8.35068L77.6873 10.1493ZM79.6885 8.29004L81.0479 12.5244L82.9521 11.9131L81.5928 7.67871L79.6885 8.29004ZM81.9011 11.2237C80.0305 11.4096 78.351 11.834 76.8778 12.5139L77.7159 14.3298C78.9511 13.7598 80.407 13.3821 82.0989 13.2138L81.9011 11.2237ZM76.8809 12.5125C75.3933 13.1929 74.1647 14.1658 73.2156 15.4312L74.8156 16.6313C75.5541 15.6467 76.5129 14.8801 77.7128 14.3313L76.8809 12.5125ZM73.0156 16.0312V27H75.0156V16.0312H73.0156ZM74.0156 26H69.3906V28H74.0156V26ZM70.3906 27V8.5625H68.3906V27H70.3906ZM98.0938 12.0312H99.0938V11.0312H98.0938V12.0312ZM94.9375 12.0312H93.9375V13.0312H94.9375V12.0312ZM94.9375 8.5625V7.5625H93.9375V8.5625H94.9375ZM98.0938 8.5625V9.5625H99.0938V8.5625H98.0938ZM98.625 5.23438L99.5642 5.57774L99.5654 5.57451L98.625 5.23438ZM100.156 2.76562L99.4491 2.05852L100.156 2.76562ZM102.609 1.21875L102.266 0.279542L102.263 0.280756L102.609 1.21875ZM108.359 0.9375L108.158 1.91718L108.171 1.91951L108.359 0.9375ZM110.516 1.625L111.437 2.01355L111.806 1.13811L110.951 0.724651L110.516 1.625ZM108.875 5.51562L108.371 6.3794L109.354 6.95287L109.796 5.90418L108.875 5.51562ZM107.812 5.10938L107.544 6.07259L107.549 6.07414L107.812 5.10938ZM103.75 5.82812L104.427 6.56429L104.427 6.56382L103.75 5.82812ZM102.719 8.5625L101.719 8.52862L101.684 9.5625H102.719V8.5625ZM108.547 8.5625H109.547V7.5625H108.547V8.5625ZM108.547 12.0312V13.0312H109.547V12.0312H108.547ZM102.719 12.0312V11.0312H101.719V12.0312H102.719ZM102.719 27V28H103.719V27H102.719ZM98.0938 27H97.0938V28H98.0938V27ZM98.0938 11.0312H94.9375V13.0312H98.0938V11.0312ZM95.9375 12.0312V8.5625H93.9375V12.0312H95.9375ZM94.9375 9.5625H98.0938V7.5625H94.9375V9.5625ZM99.0938 8.5625C99.0938 7.40557 99.2578 6.41594 99.5642 5.57774L97.6858 4.89101C97.2839 5.99031 97.0938 7.21943 97.0938 8.5625H99.0938ZM99.5654 5.57451C99.8749 4.71875 100.311 4.02526 100.863 3.47273L99.4491 2.05852C98.6683 2.83933 98.0834 3.79167 97.6846 4.89424L99.5654 5.57451ZM100.863 3.47273C101.432 2.90447 102.124 2.46428 102.956 2.15674L102.263 0.280756C101.178 0.68155 100.235 1.27261 99.4491 2.05852L100.863 3.47273ZM102.953 2.15795C103.794 1.85025 104.764 1.6875 105.875 1.6875V-0.3125C104.569 -0.3125 103.362 -0.121082 102.266 0.279548L102.953 2.15795ZM105.875 1.6875C106.652 1.6875 107.413 1.76423 108.158 1.9171L108.56 -0.0421027C107.681 -0.222566 106.785 -0.3125 105.875 -0.3125V1.6875ZM108.171 1.91951C108.914 2.06239 109.547 2.26748 110.08 2.52535L110.951 0.724651C110.234 0.378355 109.43 0.125112 108.548 -0.0445064L108.171 1.91951ZM109.594 1.23645L107.954 5.12707L109.796 5.90418L111.437 2.01355L109.594 1.23645ZM109.379 4.65185C109.021 4.44295 108.572 4.27993 108.076 4.14461L107.549 6.07414C107.97 6.18882 108.229 6.29663 108.371 6.3794L109.379 4.65185ZM108.081 4.14618C107.533 3.99313 106.946 3.92188 106.328 3.92188V5.92188C106.793 5.92188 107.196 5.97562 107.544 6.07257L108.081 4.14618ZM106.328 3.92188C105.066 3.92188 103.948 4.28676 103.073 5.09243L104.427 6.56382C104.865 6.16116 105.466 5.92188 106.328 5.92188V3.92188ZM103.073 5.09196C102.162 5.92981 101.766 7.14106 101.719 8.52862L103.718 8.59638C103.754 7.5256 104.046 6.91394 104.427 6.56429L103.073 5.09196ZM102.719 9.5625H108.547V7.5625H102.719V9.5625ZM107.547 8.5625V12.0312H109.547V8.5625H107.547ZM108.547 11.0312H102.719V13.0312H108.547V11.0312ZM101.719 12.0312V27H103.719V12.0312H101.719ZM102.719 26H98.0938V28H102.719V26ZM99.0938 27V12.0312H97.0938V27H99.0938ZM111.797 14.0625L110.891 13.6383L110.888 13.645L111.797 14.0625ZM114.094 11.0312L113.44 10.2748L113.436 10.2782L114.094 11.0312ZM117.703 8.98438L117.37 8.04138L117.368 8.04216L117.703 8.98438ZM127.219 8.98438L126.884 9.92659L126.886 9.92737L127.219 8.98438ZM130.828 11.0312L130.17 11.7843L130.174 11.7877L130.828 11.0312ZM133.125 14.0625L132.216 14.48L132.219 14.4867L133.125 14.0625ZM133.125 21.5L132.219 21.0758L132.216 21.0825L133.125 21.5ZM130.828 24.5312L130.174 23.7748L130.17 23.7782L130.828 24.5312ZM127.219 26.5781L126.886 25.6351L126.884 25.6359L127.219 26.5781ZM117.703 26.5781L117.368 27.5203L117.37 27.5211L117.703 26.5781ZM114.094 24.5312L113.436 25.2843L113.44 25.2877L114.094 24.5312ZM111.797 21.5L110.888 21.9175L110.891 21.9242L111.797 21.5ZM116.297 19.8906L115.381 20.2914L115.385 20.3001L115.388 20.3088L116.297 19.8906ZM117.594 21.6406L116.922 22.3812L116.929 22.3877L116.936 22.394L117.594 21.6406ZM119.672 22.8438L119.323 23.7811L119.331 23.7837L119.338 23.7863L119.672 22.8438ZM125.25 22.8438L125.588 23.785L125.595 23.7825L125.25 22.8438ZM127.328 21.6406L127.992 22.388L127.993 22.3873L127.328 21.6406ZM128.625 19.8906L127.714 19.4779L127.711 19.4845L128.625 19.8906ZM128.625 15.6719L127.709 16.0727L127.714 16.0846L128.625 15.6719ZM127.328 13.9219L126.656 14.6624L126.663 14.6689L126.671 14.6753L127.328 13.9219ZM125.25 12.7188L124.902 13.6561L124.909 13.6587L124.916 13.6613L125.25 12.7188ZM119.672 12.7188L120.01 13.66L120.016 13.6575L119.672 12.7188ZM117.594 13.9219L118.258 14.6693L118.259 14.6685L117.594 13.9219ZM116.297 15.6719L115.386 15.2591L115.381 15.2711L116.297 15.6719ZM112 17.7812C112 16.5966 112.237 15.5001 112.706 14.48L110.888 13.645C110.294 14.9374 110 16.3201 110 17.7812H112ZM112.702 14.4867C113.184 13.4598 113.863 12.5604 114.752 11.7843L113.436 10.2782C112.345 11.2313 111.494 12.3527 110.891 13.6383L112.702 14.4867ZM114.748 11.7877C115.643 11.0141 116.734 10.3903 118.038 9.92659L117.368 8.04216C115.86 8.57841 114.545 9.31923 113.44 10.2748L114.748 11.7877ZM118.036 9.92737C119.329 9.47096 120.803 9.23438 122.469 9.23438V7.23438C120.614 7.23438 118.91 7.49779 117.37 8.04138L118.036 9.92737ZM122.469 9.23438C124.135 9.23438 125.602 9.471 126.884 9.92659L127.554 8.04216C126.023 7.49775 124.323 7.23438 122.469 7.23438V9.23438ZM126.886 9.92737C128.2 10.3912 129.289 11.0141 130.17 11.7843L131.486 10.2782C130.388 9.31921 129.071 8.57755 127.552 8.04138L126.886 9.92737ZM130.174 11.7877C131.07 12.5625 131.747 13.4587 132.216 14.48L134.034 13.645C133.44 12.3538 132.586 11.2291 131.482 10.2748L130.174 11.7877ZM132.219 14.4867C132.697 15.5054 132.938 16.5995 132.938 17.7812H134.938C134.938 16.3171 134.637 14.9321 134.031 13.6383L132.219 14.4867ZM132.938 17.7812C132.938 18.963 132.697 20.0571 132.219 21.0758L134.031 21.9242C134.637 20.6304 134.938 19.2454 134.938 17.7812H132.938ZM132.216 21.0825C131.747 22.1038 131.07 23 130.174 23.7748L131.482 25.2877C132.586 24.3334 133.44 23.2087 134.034 21.9175L132.216 21.0825ZM130.17 23.7782C129.289 24.5484 128.2 25.1713 126.886 25.6351L127.552 27.5211C129.071 26.9849 130.388 26.2433 131.486 25.2843L130.17 23.7782ZM126.884 25.6359C125.602 26.0915 124.135 26.3281 122.469 26.3281V28.3281C124.323 28.3281 126.023 28.0648 127.554 27.5203L126.884 25.6359ZM122.469 26.3281C120.803 26.3281 119.329 26.0915 118.036 25.6351L117.37 27.5211C118.91 28.0647 120.614 28.3281 122.469 28.3281V26.3281ZM118.038 25.6359C116.734 25.1722 115.643 24.5484 114.748 23.7748L113.44 25.2877C114.545 26.2433 115.86 26.9841 117.368 27.5203L118.038 25.6359ZM114.752 23.7782C113.863 23.0021 113.184 22.1027 112.702 21.0758L110.891 21.9242C111.494 23.2098 112.345 24.3312 113.436 25.2843L114.752 23.7782ZM112.706 21.0825C112.237 20.0624 112 18.9659 112 17.7812H110C110 19.2424 110.294 20.6251 110.888 21.9175L112.706 21.0825ZM114.859 17.7812C114.859 18.6565 115.033 19.4963 115.381 20.2914L117.213 19.4898C116.978 18.9516 116.859 18.3852 116.859 17.7812H114.859ZM115.388 20.3088C115.75 21.0935 116.265 21.785 116.922 22.3812L118.266 20.9001C117.798 20.4754 117.448 20.0002 117.205 19.4725L115.388 20.3088ZM116.936 22.394C117.612 22.9838 118.413 23.4427 119.323 23.7811L120.02 21.9064C119.305 21.6406 118.721 21.2974 118.251 20.8872L116.936 22.394ZM119.338 23.7863C120.286 24.1225 121.335 24.2812 122.469 24.2812V22.2812C121.52 22.2812 120.703 22.1483 120.006 21.9012L119.338 23.7863ZM122.469 24.2812C123.602 24.2812 124.647 24.1226 125.588 23.7849L124.912 21.9026C124.228 22.1482 123.418 22.2812 122.469 22.2812V24.2812ZM125.595 23.7825C126.516 23.4442 127.322 22.9838 127.992 22.388L126.664 20.8932C126.209 21.2974 125.63 21.6391 124.905 21.905L125.595 23.7825ZM127.993 22.3873C128.665 21.7889 129.186 21.0916 129.539 20.2968L127.711 19.4845C127.481 20.0021 127.137 20.4715 126.663 20.894L127.993 22.3873ZM129.536 20.3034C129.897 19.5056 130.078 18.6616 130.078 17.7812H128.078C128.078 18.38 127.957 18.9423 127.714 19.4779L129.536 20.3034ZM130.078 17.7812C130.078 16.9009 129.897 16.0569 129.536 15.2591L127.714 16.0846C127.957 16.6202 128.078 17.1825 128.078 17.7812H130.078ZM129.541 15.2711C129.188 14.4631 128.665 13.761 127.986 13.1685L126.671 14.6753C127.137 15.0828 127.479 15.5473 127.709 16.0727L129.541 15.2711ZM128 13.1813C127.326 12.5695 126.513 12.1056 125.584 11.7762L124.916 13.6613C125.632 13.9153 126.205 14.2534 126.656 14.6624L128 13.1813ZM125.598 11.7814C124.655 11.4305 123.606 11.2656 122.469 11.2656V13.2656C123.415 13.2656 124.22 13.4029 124.902 13.6561L125.598 11.7814ZM122.469 11.2656C121.331 11.2656 120.279 11.4306 119.327 11.78L120.016 13.6575C120.71 13.4028 121.523 13.2656 122.469 13.2656V11.2656ZM119.334 11.7776C118.416 12.1071 117.608 12.5696 116.929 13.1752L118.259 14.6685C118.725 14.2533 119.303 13.9137 120.01 13.6599L119.334 11.7776ZM116.929 13.1745C116.265 13.7648 115.748 14.4612 115.386 15.2591L117.208 16.0846C117.45 15.5492 117.797 15.0789 118.258 14.6693L116.929 13.1745ZM115.381 15.2711C115.033 16.0662 114.859 16.906 114.859 17.7812H116.859C116.859 17.1773 116.978 16.6109 117.213 16.0727L115.381 15.2711ZM138.609 8.5625V7.5625H137.609V8.5625H138.609ZM143.234 8.5625H144.234V7.5625H143.234V8.5625ZM143.234 11.2188H142.234V13.2106L143.832 12.0207L143.234 11.2188ZM149.859 7.98438L150.812 7.67871L150.523 6.77932L149.608 7.01638L149.859 7.98438ZM151.219 12.2188L151.318 13.2138L152.549 13.0914L152.171 11.9131L151.219 12.2188ZM146.516 13.4219L146.932 14.3313L146.935 14.3298L146.516 13.4219ZM143.234 16.0312L142.434 15.4312L142.234 15.6979V16.0312H143.234ZM143.234 27V28H144.234V27H143.234ZM138.609 27H137.609V28H138.609V27ZM138.609 9.5625H143.234V7.5625H138.609V9.5625ZM142.234 8.5625V11.2188H144.234V8.5625H142.234ZM143.832 12.0207C144.803 11.2974 145.827 10.6738 146.906 10.1493L146.031 8.35068C144.839 8.93036 143.708 9.61929 142.637 10.4168L143.832 12.0207ZM146.906 10.1493C147.987 9.62379 149.055 9.22603 150.11 8.95237L149.608 7.01638C148.414 7.32606 147.221 7.77205 146.031 8.35068L146.906 10.1493ZM148.907 8.29004L150.267 12.5244L152.171 11.9131L150.812 7.67871L148.907 8.29004ZM151.12 11.2237C149.249 11.4096 147.57 11.834 146.097 12.5139L146.935 14.3298C148.17 13.7598 149.626 13.3821 151.318 13.2138L151.12 11.2237ZM146.1 12.5125C144.612 13.1929 143.383 14.1658 142.434 15.4312L144.034 16.6313C144.773 15.6467 145.732 14.8801 146.932 14.3313L146.1 12.5125ZM142.234 16.0312V27H144.234V16.0312H142.234ZM143.234 26H138.609V28H143.234V26ZM139.609 27V8.5625H137.609V27H139.609ZM165.875 2.57812V1.57812H164.875V2.57812H165.875ZM186.422 5.84375L185.781 6.61148L185.788 6.61714L186.422 5.84375ZM189.25 9.65625L188.325 10.0354L188.328 10.0432L189.25 9.65625ZM189.266 19.6094L190.191 19.9885L190.192 19.9863L189.266 19.6094ZM186.453 23.5156L187.109 24.2709L187.112 24.2678L186.453 23.5156ZM181.672 26.0938L181.976 27.0465L181.98 27.045L181.672 26.0938ZM174.859 27.0156L174.858 28.0156H174.859V27.0156ZM165.875 27H164.875V27.9983L165.873 28L165.875 27ZM179.938 22.1562L180.256 23.1041L180.264 23.1013L179.938 22.1562ZM182.719 20.5312L182.038 19.7992L182.032 19.804L182.719 20.5312ZM184.406 11.4531L183.474 11.8141L183.475 11.8175L184.406 11.4531ZM182.719 9L182.043 9.73759L182.049 9.74254L182.054 9.74741L182.719 9ZM170.828 6.89062V5.89062H169.828V6.89062H170.828ZM170.828 22.7188H169.828V23.7188H170.828V22.7188ZM165.875 3.57812H174.828V1.57812H165.875V3.57812ZM174.828 3.57812C177.375 3.57812 179.547 3.85251 181.36 4.38182L181.921 2.46193C179.88 1.86624 177.511 1.57812 174.828 1.57812V3.57812ZM181.36 4.38182C183.184 4.91412 184.647 5.66493 185.781 6.61145L187.063 5.07605C185.676 3.91841 183.951 3.05463 181.921 2.46193L181.36 4.38182ZM185.788 6.61714C186.932 7.55511 187.774 8.69113 188.325 10.0354L190.175 9.27712C189.497 7.62137 188.453 6.21573 187.056 5.07036L185.788 6.61714ZM188.328 10.0432C188.894 11.3928 189.188 12.9355 189.188 14.6875H191.188C191.188 12.7104 190.856 10.8989 190.172 9.26935L188.328 10.0432ZM189.188 14.6875C189.188 16.3403 188.901 17.8517 188.339 19.2325L190.192 19.9863C190.859 18.3462 191.188 16.5764 191.188 14.6875H189.188ZM188.34 19.2302C187.786 20.582 186.942 21.7578 185.794 22.7634L187.112 24.2678C188.485 23.0652 189.516 21.6367 190.191 19.9885L188.34 19.2302ZM185.798 22.7603C184.658 23.7495 183.189 24.5503 181.363 25.1425L181.98 27.045C184.008 26.3872 185.728 25.4692 187.109 24.2709L185.798 22.7603ZM181.368 25.141C179.563 25.7167 177.399 26.0156 174.859 26.0156V28.0156C177.549 28.0156 179.926 27.7 181.976 27.0465L181.368 25.141ZM174.861 26.0156L165.877 26L165.873 28L174.858 28.0156L174.861 26.0156ZM166.875 27V2.57812H164.875V27H166.875ZM176.047 23.7188C177.608 23.7188 179.016 23.5212 180.256 23.104L179.619 21.2085C178.629 21.5413 177.444 21.7188 176.047 21.7188V23.7188ZM180.264 23.1013C181.492 22.677 182.547 22.068 183.405 21.2585L182.032 19.804C181.411 20.3903 180.613 20.8647 179.611 21.2112L180.264 23.1013ZM183.4 21.2633C184.266 20.4572 184.914 19.4828 185.341 18.3544L183.471 17.6456C183.149 18.4964 182.671 19.2095 182.038 19.7992L183.4 21.2633ZM185.341 18.3544C185.765 17.2358 185.969 16.0092 185.969 14.6875H183.969C183.969 15.8033 183.797 16.7851 183.471 17.6456L185.341 18.3544ZM185.969 14.6875C185.969 13.385 185.765 12.1806 185.337 11.0887L183.475 11.8175C183.798 12.6424 183.969 13.5941 183.969 14.6875H185.969ZM185.339 11.0921C184.909 9.98048 184.256 9.02869 183.383 8.25259L182.054 9.74741C182.681 10.3046 183.154 10.9883 183.474 11.8141L185.339 11.0921ZM183.394 8.26241C182.533 7.47434 181.475 6.88844 180.248 6.48706L179.627 8.38794C180.629 8.71573 181.425 9.17149 182.043 9.73759L183.394 8.26241ZM180.248 6.48706C179.011 6.08236 177.605 5.89062 176.047 5.89062V7.89062C177.447 7.89062 178.635 8.06348 179.627 8.38794L180.248 6.48706ZM176.047 5.89062H170.828V7.89062H176.047V5.89062ZM169.828 6.89062V22.7188H171.828V6.89062H169.828ZM170.828 23.7188H176.047V21.7188H170.828V23.7188ZM194.578 8.54688V7.54688H193.578V8.54688H194.578ZM199.188 8.54688H200.188V7.54688H199.188V8.54688ZM199.469 19.8906L198.502 20.1465L198.503 20.1501L199.469 19.8906ZM200.422 21.6875L199.677 22.3548L199.685 22.3632L200.422 21.6875ZM202.234 22.8594L201.883 23.7957L201.891 23.7986L201.899 23.8014L202.234 22.8594ZM206.672 23.0938L206.469 22.1146L206.465 22.1154L206.672 23.0938ZM208.25 22.625L208.618 23.5548L208.626 23.5515L208.635 23.5481L208.25 22.625ZM209.641 21.8906L209.1 21.0494L209.091 21.0555L209.641 21.8906ZM210.766 20.9688L211.495 21.6527L211.766 21.3642V20.9688H210.766ZM210.766 8.54688V7.54688H209.766V8.54688H210.766ZM215.391 8.54688H216.391V7.54688H215.391V8.54688ZM215.391 27V28H216.391V27H215.391ZM210.766 27H209.766V28H210.766V27ZM210.766 25.4219H211.766V23.6612L210.253 24.563L210.766 25.4219ZM199.734 26.7031L199.413 27.6502L199.416 27.651L199.734 26.7031ZM196.781 24.9375L196.065 25.6351L196.074 25.6446L196.781 24.9375ZM195.109 22.0781L194.155 22.3759L194.156 22.3784L195.109 22.0781ZM194.578 9.54688H199.188V7.54688H194.578V9.54688ZM198.188 8.54688V17.5469H200.188V8.54688H198.188ZM198.188 17.5469C198.188 18.4735 198.289 19.3422 198.502 20.1465L200.435 19.6347C200.273 19.0223 200.188 18.3286 200.188 17.5469H198.188ZM198.503 20.1501C198.728 20.9875 199.117 21.7292 199.677 22.3547L201.167 21.0203C200.831 20.6458 200.585 20.1896 200.435 19.6312L198.503 20.1501ZM199.685 22.3632C200.267 22.9985 201.012 23.4691 201.883 23.7957L202.585 21.923C201.956 21.6871 201.493 21.3765 201.159 21.0118L199.685 22.3632ZM201.899 23.8014C202.8 24.1224 203.865 24.2656 205.062 24.2656V22.2656C204.01 22.2656 203.189 22.138 202.57 21.9173L201.899 23.8014ZM205.062 24.2656C205.666 24.2656 206.272 24.2005 206.879 24.0721L206.465 22.1154C205.988 22.2162 205.521 22.2656 205.062 22.2656V24.2656ZM206.875 24.0729C207.481 23.9472 208.062 23.7749 208.618 23.5548L207.882 21.6952C207.438 21.871 206.967 22.0111 206.469 22.1146L206.875 24.0729ZM208.635 23.5481C209.189 23.3171 209.708 23.0434 210.191 22.7258L209.091 21.0555C208.719 21.3003 208.311 21.5162 207.865 21.7019L208.635 23.5481ZM210.181 22.7318C210.679 22.4121 211.119 22.0536 211.495 21.6527L210.036 20.2848C209.787 20.5506 209.478 20.8066 209.1 21.0494L210.181 22.7318ZM211.766 20.9688V8.54688H209.766V20.9688H211.766ZM210.766 9.54688H215.391V7.54688H210.766V9.54688ZM214.391 8.54688V27H216.391V8.54688H214.391ZM215.391 26H210.766V28H215.391V26ZM211.766 27V25.4219H209.766V27H211.766ZM210.253 24.563C209.191 25.1965 208.139 25.6406 207.097 25.9059L207.59 27.8441C208.84 27.5261 210.069 27.0014 211.278 26.2808L210.253 24.563ZM207.097 25.9059C206.02 26.18 205.015 26.3125 204.078 26.3125V28.3125C205.204 28.3125 206.375 28.1534 207.59 27.8441L207.097 25.9059ZM204.078 26.3125C202.466 26.3125 201.132 26.1179 200.053 25.7553L199.416 27.651C200.754 28.1009 202.315 28.3125 204.078 28.3125V26.3125ZM200.056 25.7561C198.98 25.3912 198.135 24.8766 197.488 24.2304L196.074 25.6446C196.97 26.5401 198.093 27.2025 199.413 27.6501L200.056 25.7561ZM197.498 24.24C196.855 23.5798 196.374 22.7662 196.063 21.7778L194.156 22.3784C194.553 23.6401 195.186 24.7327 196.065 25.635L197.498 24.24ZM196.064 21.7803C195.746 20.7596 195.578 19.5712 195.578 18.2031H193.578C193.578 19.7309 193.765 21.1258 194.155 22.3759L196.064 21.7803ZM195.578 18.2031V8.54688H193.578V18.2031H195.578ZM221.266 8.5625V7.5625H220.266V8.5625H221.266ZM225.891 8.5625H226.891V7.5625H225.891V8.5625ZM225.891 10.125H224.891V11.8428L226.384 10.9946L225.891 10.125ZM229.406 8.65625L229.164 7.68611L229.162 7.68664L229.406 8.65625ZM236.609 8.85938L236.281 9.8039L236.288 9.8064L236.609 8.85938ZM241.766 13.7344L240.838 14.1072L240.842 14.1167L241.766 13.7344ZM242.516 27V28H243.516V27H242.516ZM237.906 27H236.906V28H237.906V27ZM237.469 15.9844L236.525 16.3153L236.528 16.3227L236.53 16.3301L237.469 15.9844ZM236.234 13.9688L235.514 14.6621L235.52 14.6691L235.527 14.6759L236.234 13.9688ZM234.281 12.7188L233.923 13.6524L233.931 13.6554L233.938 13.6582L234.281 12.7188ZM230.172 12.4375L229.979 11.4562L229.976 11.4569L230.172 12.4375ZM228.625 12.8906L228.976 13.827L228.987 13.823L228.625 12.8906ZM227.172 13.6094L227.686 14.4669L227.693 14.4627L227.7 14.4584L227.172 13.6094ZM225.891 14.5781L225.203 13.8517L224.891 14.1475V14.5781H225.891ZM225.891 27V28H226.891V27H225.891ZM221.266 27H220.266V28H221.266V27ZM221.266 9.5625H225.891V7.5625H221.266V9.5625ZM224.891 8.5625V10.125H226.891V8.5625H224.891ZM226.384 10.9946C227.553 10.3313 228.641 9.88076 229.651 9.62586L229.162 7.68664C227.943 7.99424 226.687 8.52285 225.397 9.2554L226.384 10.9946ZM229.649 9.62639C230.701 9.36338 231.718 9.23438 232.703 9.23438V7.23438C231.542 7.23438 230.362 7.38662 229.164 7.68611L229.649 9.62639ZM232.703 9.23438C234.01 9.23438 235.199 9.42772 236.281 9.80387L236.938 7.91488C235.624 7.4577 234.209 7.23438 232.703 7.23438V9.23438ZM236.288 9.8064C237.361 10.1701 238.273 10.7094 239.038 11.4203L240.399 9.95471C239.415 9.04063 238.254 8.36115 236.931 7.91235L236.288 9.8064ZM239.038 11.4203C239.795 12.1228 240.398 13.0113 240.838 14.1071L242.694 13.3616C242.155 12.0199 241.393 10.8772 240.399 9.95471L239.038 11.4203ZM240.842 14.1167C241.282 15.1804 241.516 16.447 241.516 17.9375H243.516C243.516 16.2405 243.249 14.705 242.69 13.352L240.842 14.1167ZM241.516 17.9375V27H243.516V17.9375H241.516ZM242.516 26H237.906V28H242.516V26ZM238.906 27V18.6875H236.906V27H238.906ZM238.906 18.6875C238.906 17.5818 238.747 16.5605 238.407 15.6387L236.53 16.3301C236.774 16.9916 236.906 17.7724 236.906 18.6875H238.906ZM238.412 15.6535C238.087 14.7255 237.6 13.9205 236.941 13.2616L235.527 14.6759C235.952 15.1003 236.288 15.6391 236.525 16.3153L238.412 15.6535ZM236.955 13.2754C236.311 12.6059 235.528 12.109 234.624 11.7793L233.938 13.6582C234.577 13.891 235.096 14.2274 235.514 14.6621L236.955 13.2754ZM234.639 11.7851C233.748 11.443 232.769 11.2812 231.719 11.2812V13.2812C232.564 13.2812 233.294 13.4112 233.923 13.6524L234.639 11.7851ZM231.719 11.2812C231.149 11.2812 230.569 11.3406 229.979 11.4562L230.364 13.4188C230.837 13.3261 231.288 13.2812 231.719 13.2812V11.2812ZM229.976 11.4569C229.397 11.5727 228.826 11.7402 228.263 11.9583L228.987 13.823C229.445 13.6452 229.905 13.5106 230.368 13.4181L229.976 11.4569ZM228.274 11.9543C227.71 12.1657 227.166 12.435 226.644 12.7603L227.7 14.4584C228.115 14.2005 228.54 13.9905 228.976 13.827L228.274 11.9543ZM226.657 12.7519C226.128 13.0693 225.643 13.4358 225.203 13.8517L226.578 15.3046C226.909 14.9913 227.278 14.712 227.686 14.4669L226.657 12.7519ZM224.891 14.5781V27H226.891V14.5781H224.891ZM225.891 26H221.266V28H225.891V26ZM222.266 27V8.5625H220.266V27H222.266ZM251.094 30.125L251.43 29.1833L250.553 28.8701L250.178 29.7223L251.094 30.125ZM252.875 30.6406L253.11 29.6685L253.102 29.6666L253.094 29.6648L252.875 30.6406ZM254.625 30.9844L254.786 29.9975L254.779 29.9963L254.772 29.9952L254.625 30.9844ZM256.266 31.1719L256.345 30.1751L256.335 30.1743L256.326 30.1737L256.266 31.1719ZM260.859 30.7812L260.556 29.8282L260.543 29.8326L260.859 30.7812ZM263.141 29.5938L262.51 28.818L262.503 28.8234L263.141 29.5938ZM264.516 27.8438L263.607 27.4256L263.605 27.431L264.516 27.8438ZM264.969 24.9531H265.969V23.0572L264.404 24.1278L264.969 24.9531ZM261.828 26.3906L261.545 25.4315L261.828 26.3906ZM259.797 26.8438L259.639 25.8562L259.637 25.8566L259.797 26.8438ZM253.406 26.3438L253.069 27.2853L253.076 27.2877L253.406 26.3438ZM250.078 24.4375L249.418 25.1891L249.423 25.1932L250.078 24.4375ZM247.875 21.4844L246.965 21.8982L246.968 21.905L247.875 21.4844ZM247.922 13.7969L248.824 14.2278L248.826 14.2246L247.922 13.7969ZM250.203 10.8125L249.56 10.0469L249.556 10.0504L250.203 10.8125ZM253.672 8.90625L253.353 7.95831L253.672 8.90625ZM261.875 8.70312L261.636 9.67427L261.64 9.67521L261.875 8.70312ZM263.562 9.23438L263.191 10.1629L263.202 10.1673L263.213 10.1715L263.562 9.23438ZM264.969 9.89062L264.461 10.752L265.969 11.6413V9.89062H264.969ZM264.969 8.5625V7.5625H263.969V8.5625H264.969ZM269.594 8.5625H270.594V7.5625H269.594V8.5625ZM266.578 32.5938L265.916 31.8446L265.907 31.852L266.578 32.5938ZM262.922 34.5938L262.628 33.6378L262.622 33.6398L262.922 34.5938ZM255.797 35.1875L255.882 34.1912L255.875 34.1905L255.868 34.19L255.797 35.1875ZM253.594 34.9375L253.747 33.9492L253.735 33.9476L253.594 34.9375ZM251.422 34.5469L251.634 33.5696L251.624 33.5674L251.422 34.5469ZM249.375 34.0312L248.46 33.6285L248.005 34.6625L249.086 34.9887L249.375 34.0312ZM252.391 19.7188L251.477 20.1249L251.481 20.1337L251.485 20.1424L252.391 19.7188ZM253.672 21.4219L253.008 22.1701L253.016 22.1771L253.672 21.4219ZM255.672 22.5625L255.333 23.5035L255.344 23.5073L255.672 22.5625ZM260.203 22.7969L260.383 23.7806L260.396 23.7781L260.203 22.7969ZM262.016 22.2812L261.664 21.3449L261.659 21.347L262.016 22.2812ZM263.641 21.4844L263.118 20.6315L263.111 20.6364L263.641 21.4844ZM264.969 20.4375L265.685 21.1349L265.969 20.8437V20.4375H264.969ZM264.969 14.3594H265.969V13.8788L265.593 13.5785L264.969 14.3594ZM260.25 12.4062L260.101 13.395L260.11 13.3964L260.119 13.3976L260.25 12.4062ZM255.797 12.7031L255.477 11.7556L255.473 11.7569L255.797 12.7031ZM253.703 13.8594L254.352 14.6206L254.353 14.6196L253.703 13.8594ZM250.757 31.0667C251.379 31.2888 252.012 31.4721 252.656 31.6164L253.094 29.6648C252.529 29.5384 251.975 29.3779 251.43 29.1833L250.757 31.0667ZM252.64 31.6127C253.271 31.7649 253.884 31.8855 254.478 31.9736L254.772 29.9952C254.241 29.9166 253.687 29.808 253.11 29.6685L252.64 31.6127ZM254.464 31.9712C255.066 32.0699 255.647 32.1366 256.206 32.1701L256.326 30.1737C255.842 30.1447 255.329 30.0863 254.786 29.9975L254.464 31.9712ZM256.186 32.1687C256.726 32.2119 257.217 32.2344 257.656 32.2344V30.2344C257.283 30.2344 256.847 30.2152 256.345 30.1751L256.186 32.1687ZM257.656 32.2344C258.964 32.2344 260.143 32.0742 261.176 31.7299L260.543 29.8326C259.763 30.0925 258.807 30.2344 257.656 30.2344V32.2344ZM261.163 31.7342C262.175 31.4122 263.056 30.9621 263.778 30.3641L262.503 28.8234C262.017 29.2254 261.378 29.567 260.556 29.8283L261.163 31.7342ZM263.772 30.3695C264.496 29.78 265.055 29.0756 265.426 28.2565L263.605 27.431C263.372 27.9453 263.014 28.4075 262.51 28.818L263.772 30.3695ZM265.424 28.2619C265.788 27.4713 265.969 26.6304 265.969 25.75H263.969C263.969 26.3488 263.848 26.9037 263.607 27.4256L265.424 28.2619ZM265.969 25.75V24.9531H263.969V25.75H265.969ZM264.404 24.1278C264.061 24.3627 263.646 24.5975 263.152 24.8296L264.004 26.6392C264.573 26.3713 265.085 26.0852 265.533 25.7784L264.404 24.1278ZM263.152 24.8296C262.673 25.0553 262.138 25.2566 261.545 25.4315L262.111 27.3497C262.789 27.1496 263.421 26.9135 264.004 26.6392L263.152 24.8296ZM261.545 25.4315C260.955 25.6057 260.32 25.7477 259.639 25.8562L259.954 27.8313C260.711 27.7106 261.431 27.5505 262.111 27.3497L261.545 25.4315ZM259.637 25.8566C258.985 25.9621 258.304 26.0156 257.594 26.0156V28.0156C258.404 28.0156 259.192 27.9545 259.957 27.8309L259.637 25.8566ZM257.594 26.0156C256.183 26.0156 254.9 25.8067 253.736 25.3998L253.076 27.2877C254.475 27.7767 255.984 28.0156 257.594 28.0156V26.0156ZM253.743 25.4022C252.567 24.9815 251.568 24.4057 250.733 23.6818L249.423 25.1932C250.463 26.0943 251.683 26.7893 253.069 27.2853L253.743 25.4022ZM250.738 23.686C249.906 22.9561 249.256 22.0849 248.782 21.0637L246.968 21.905C247.557 23.1755 248.375 24.2731 249.418 25.189L250.738 23.686ZM248.785 21.0706C248.33 20.0682 248.094 18.9406 248.094 17.6719H246.094C246.094 19.1948 246.379 20.6088 246.965 21.8982L248.785 21.0706ZM248.094 17.6719C248.094 16.3768 248.343 15.2348 248.824 14.2278L247.019 13.366C246.396 14.6714 246.094 16.1128 246.094 17.6719H248.094ZM248.826 14.2246C249.318 13.1843 249.992 12.3041 250.851 11.5746L249.556 10.0504C248.477 10.9667 247.63 12.0761 247.018 13.3691L248.826 14.2246ZM250.847 11.578C251.721 10.8434 252.764 10.2662 253.99 9.85419L253.353 7.95831C251.913 8.44215 250.644 9.13574 249.56 10.047L250.847 11.578ZM253.99 9.85419C255.21 9.44435 256.549 9.23438 258.016 9.23438V7.23438C256.357 7.23438 254.8 7.47232 253.353 7.95831L253.99 9.85419ZM258.016 9.23438C258.641 9.23438 259.26 9.27342 259.874 9.35141L260.126 7.36734C259.428 7.27866 258.724 7.23438 258.016 7.23438V9.23438ZM259.874 9.35141C260.495 9.43032 261.083 9.53824 261.636 9.67426L262.114 7.73199C261.48 7.57634 260.817 7.4551 260.126 7.36734L259.874 9.35141ZM261.64 9.67521C262.203 9.81099 262.719 9.97409 263.191 10.1629L263.934 8.3059C263.364 8.07799 262.755 7.88693 262.11 7.73104L261.64 9.67521ZM263.213 10.1715C263.7 10.3528 264.114 10.5475 264.461 10.752L265.477 9.02926C265.011 8.75456 264.487 8.51177 263.912 8.29729L263.213 10.1715ZM265.969 9.89062V8.5625H263.969V9.89062H265.969ZM264.969 9.5625H269.594V7.5625H264.969V9.5625ZM268.594 8.5625V24.8906H270.594V8.5625H268.594ZM268.594 24.8906C268.594 26.4673 268.354 27.8231 267.898 28.9762L269.758 29.7113C270.323 28.2811 270.594 26.6681 270.594 24.8906H268.594ZM267.898 28.9762C267.443 30.1291 266.781 31.0793 265.916 31.8446L267.241 33.3429C268.354 32.3582 269.193 31.1417 269.758 29.7113L267.898 28.9762ZM265.907 31.852C265.052 32.6252 263.968 33.2262 262.628 33.6378L263.215 35.5497C264.792 35.0655 266.145 34.3332 267.249 33.3355L265.907 31.852ZM262.622 33.6398C261.28 34.0615 259.713 34.2812 257.906 34.2812V36.2812C259.871 36.2812 261.647 36.0427 263.222 35.5477L262.622 33.6398ZM257.906 34.2812C257.26 34.2812 256.585 34.2514 255.882 34.1912L255.711 36.1838C256.467 36.2486 257.198 36.2812 257.906 36.2812V34.2812ZM255.868 34.19C255.167 34.14 254.46 34.0598 253.747 33.9493L253.441 35.9257C254.207 36.0444 254.968 36.1309 255.726 36.185L255.868 34.19ZM253.735 33.9476C253.03 33.8468 252.33 33.7208 251.634 33.5697L251.209 35.5241C251.952 35.6854 252.699 35.8199 253.452 35.9274L253.735 33.9476ZM251.624 33.5674C250.943 33.4273 250.29 33.2627 249.664 33.0738L249.086 34.9887C249.773 35.1957 250.484 35.3748 251.22 35.5263L251.624 33.5674ZM250.29 34.434L252.009 30.5277L250.178 29.7223L248.46 33.6285L250.29 34.434ZM250.953 17.625C250.953 18.5002 251.127 19.3369 251.477 20.1249L253.304 19.3126C253.071 18.7881 252.953 18.229 252.953 17.625H250.953ZM251.485 20.1424C251.847 20.9162 252.358 21.5932 253.008 22.1701L254.335 20.6737C253.882 20.2714 253.539 19.813 253.296 19.2951L251.485 20.1424ZM253.016 22.1771C253.673 22.7474 254.451 23.186 255.333 23.5034L256.011 21.6216C255.33 21.3765 254.774 21.0547 254.327 20.6667L253.016 22.1771ZM255.344 23.5073C256.248 23.8207 257.242 23.9688 258.312 23.9688V21.9688C257.425 21.9688 256.658 21.846 255.999 21.6177L255.344 23.5073ZM258.312 23.9688C259.008 23.9688 259.699 23.906 260.383 23.7805L260.023 21.8133C259.457 21.9169 258.887 21.9688 258.312 21.9688V23.9688ZM260.396 23.7781C261.084 23.6427 261.743 23.4556 262.372 23.2155L261.659 21.347C261.142 21.5444 260.593 21.701 260.01 21.8157L260.396 23.7781ZM262.367 23.2176C263.009 22.9767 263.611 22.6821 264.171 22.3324L263.111 20.6364C262.67 20.9116 262.189 21.1483 261.665 21.3449L262.367 23.2176ZM264.163 22.3372C264.736 21.986 265.246 21.5863 265.685 21.1349L264.252 19.7401C263.941 20.0595 263.566 20.3577 263.118 20.6315L264.163 22.3372ZM265.969 20.4375V14.3594H263.969V20.4375H265.969ZM265.593 13.5785C265.071 13.1609 264.517 12.8047 263.932 12.5118L263.037 14.3007C263.493 14.5286 263.929 14.8079 264.344 15.1402L265.593 13.5785ZM263.932 12.5118C263.363 12.2274 262.78 11.9931 262.185 11.8098L261.597 13.7214C262.084 13.8714 262.564 14.0642 263.037 14.3007L263.932 12.5118ZM262.185 11.8098C261.591 11.6271 260.989 11.4952 260.381 11.4149L260.119 13.3976C260.615 13.4631 261.107 13.5708 261.597 13.7214L262.185 11.8098ZM260.399 11.4175C259.801 11.3272 259.215 11.2812 258.641 11.2812V13.2812C259.108 13.2812 259.595 13.3186 260.101 13.395L260.399 11.4175ZM258.641 11.2812C257.491 11.2812 256.432 11.4332 255.477 11.7556L256.117 13.6506C256.828 13.4105 257.665 13.2812 258.641 13.2812V11.2812ZM255.473 11.7569C254.549 12.0727 253.736 12.5159 253.053 13.0991L254.353 14.6196C254.816 14.2237 255.399 13.896 256.12 13.6494L255.473 11.7569ZM253.055 13.0981C252.387 13.6666 251.865 14.343 251.5 15.1232L253.312 15.9706C253.551 15.4591 253.894 15.0104 254.352 14.6206L253.055 13.0981ZM251.5 15.1232C251.134 15.9066 250.953 16.7446 250.953 17.625H252.953C252.953 17.0262 253.074 16.4788 253.312 15.9706L251.5 15.1232ZM274.75 14.1406L275.662 14.5506L275.663 14.5475L274.75 14.1406ZM280.469 9.01562L280.119 8.07872L280.117 8.07959L280.469 9.01562ZM289.969 9.03125L289.615 9.96676L289.624 9.96983L289.969 9.03125ZM293.562 11.1875L292.879 11.9175L292.883 11.9211L293.562 11.1875ZM295.828 14.4219L294.906 14.8092L294.909 14.8158L295.828 14.4219ZM296.609 18.9844L295.611 18.9344L295.609 18.9594V18.9844H296.609ZM296.578 19.5312V20.5312H297.461L297.57 19.6553L296.578 19.5312ZM279.141 19.5312V18.5312H277.72L278.199 19.8687L279.141 19.5312ZM280.094 21.0469L279.37 21.7374L279.379 21.7458L280.094 21.0469ZM284.078 23.0156L283.869 23.9935L283.88 23.9958L284.078 23.0156ZM290.156 22.9531L290.36 23.9322L290.369 23.9302L290.156 22.9531ZM293.172 22.0938L294.086 21.6891L293.71 20.8384L292.834 21.1525L293.172 22.0938ZM294.734 25.625L295.156 26.5316L296.046 26.1175L295.649 25.2204L294.734 25.625ZM292.891 26.375L293.212 27.3221L293.221 27.3189L292.891 26.375ZM290.953 26.9062L291.152 27.8863L291.164 27.8838L290.953 26.9062ZM288.844 27.2188L288.746 26.2236L288.744 26.2237L288.844 27.2188ZM277.156 24.5312L276.521 25.3038L277.156 24.5312ZM291.719 15.9219V16.9219H293.097L292.669 15.6115L291.719 15.9219ZM290.938 14.5L290.144 15.1088L290.152 15.1191L290.16 15.1292L290.938 14.5ZM289.641 13.3438L289.102 14.186L289.108 14.1899L289.114 14.1937L289.641 13.3438ZM279.922 14.5312L279.154 13.8911L279.149 13.8965L279.145 13.9021L279.922 14.5312ZM279.141 15.9219L278.194 15.5996L277.744 16.9219H279.141V15.9219ZM274.984 17.7188C274.984 16.6095 275.21 15.5566 275.662 14.5506L273.838 13.7306C273.269 14.9955 272.984 16.328 272.984 17.7188H274.984ZM275.663 14.5475C276.116 13.5319 276.767 12.6333 277.627 11.8479L276.279 10.3709C275.222 11.3355 274.405 12.4577 273.837 13.7337L275.663 14.5475ZM277.627 11.8479C278.48 11.0698 279.538 10.434 280.821 9.95166L280.117 8.07959C278.629 8.63893 277.343 9.39895 276.279 10.3709L277.627 11.8479ZM280.818 9.95253C282.083 9.48047 283.545 9.23438 285.219 9.23438V7.23438C283.351 7.23438 281.646 7.50911 280.119 8.07872L280.818 9.95253ZM285.219 9.23438C286.879 9.23438 288.34 9.48476 289.615 9.96672L290.322 8.09578C288.785 7.51524 287.08 7.23438 285.219 7.23438V9.23438ZM289.624 9.96983C290.93 10.4503 292.009 11.1031 292.879 11.9175L294.246 10.4575C293.158 9.43856 291.84 8.6539 290.314 8.09267L289.624 9.96983ZM292.883 11.9211C293.768 12.7413 294.441 13.7015 294.906 14.8092L296.75 14.0345C296.174 12.6631 295.336 11.4671 294.242 10.4539L292.883 11.9211ZM294.909 14.8158C295.384 15.9247 295.625 17.1181 295.625 18.4062H297.625C297.625 16.8611 297.335 15.3983 296.747 14.028L294.909 14.8158ZM295.625 18.4062C295.625 18.5641 295.62 18.7399 295.611 18.9344L297.608 19.0343C297.619 18.8122 297.625 18.6026 297.625 18.4062H295.625ZM295.609 18.9844C295.609 19.1479 295.601 19.2882 295.586 19.4072L297.57 19.6553C297.597 19.441 297.609 19.2167 297.609 18.9844H295.609ZM296.578 18.5312H279.141V20.5312H296.578V18.5312ZM278.199 19.8687C278.448 20.5627 278.844 21.1861 279.37 21.7374L280.817 20.3564C280.468 19.991 280.229 19.6039 280.082 19.1938L278.199 19.8687ZM279.379 21.7458C279.916 22.2956 280.568 22.7536 281.318 23.1288L282.213 21.3399C281.63 21.0485 281.168 20.7149 280.809 20.3479L279.379 21.7458ZM281.318 23.1288C282.074 23.5065 282.927 23.7917 283.869 23.9934L284.288 22.0378C283.479 21.8646 282.791 21.6289 282.213 21.3399L281.318 23.1288ZM283.88 23.9958C284.831 24.1883 285.867 24.2812 286.984 24.2812V22.2812C285.976 22.2812 285.075 22.1972 284.276 22.0355L283.88 23.9958ZM286.984 24.2812C288.116 24.2812 289.242 24.1647 290.36 23.9322L289.953 21.9741C288.967 22.1791 287.978 22.2812 286.984 22.2812V24.2812ZM290.369 23.9302C291.461 23.6924 292.508 23.3942 293.51 23.035L292.834 21.1525C291.919 21.4808 290.956 21.7556 289.943 21.976L290.369 23.9302ZM292.257 22.4984L293.82 26.0296L295.649 25.2204L294.086 21.6891L292.257 22.4984ZM294.312 24.7184C293.738 24.9858 293.154 25.2234 292.56 25.4311L293.221 27.3189C293.877 27.0891 294.523 26.8267 295.156 26.5316L294.312 24.7184ZM292.57 25.4279C291.994 25.6232 291.385 25.7904 290.743 25.9287L291.164 27.8838C291.876 27.7305 292.559 27.5435 293.212 27.3221L292.57 25.4279ZM290.754 25.9263C290.124 26.0543 289.454 26.1537 288.746 26.2236L288.942 28.2139C289.712 28.138 290.449 28.029 291.152 27.8862L290.754 25.9263ZM288.744 26.2237C288.051 26.293 287.314 26.3281 286.531 26.3281V28.3281C287.373 28.3281 288.178 28.2903 288.943 28.2138L288.744 26.2237ZM286.531 26.3281C284.536 26.3281 282.825 26.0871 281.383 25.6257L280.773 27.5305C282.456 28.0691 284.381 28.3281 286.531 28.3281V26.3281ZM281.383 25.6257C279.917 25.1565 278.728 24.5284 277.791 23.7587L276.521 25.3038C277.689 26.2633 279.114 26.9997 280.773 27.5305L281.383 25.6257ZM277.791 23.7587C276.849 22.9847 276.155 22.0892 275.691 21.07L273.871 21.8988C274.47 23.2129 275.359 24.3486 276.521 25.3038L277.791 23.7587ZM275.691 21.07C275.222 20.0397 274.984 18.9266 274.984 17.7188H272.984C272.984 19.1984 273.278 20.5957 273.871 21.8988L275.691 21.07ZM292.669 15.6115C292.463 14.9796 292.142 14.3985 291.715 13.8708L290.16 15.1292C290.441 15.4765 290.641 15.8434 290.768 16.2323L292.669 15.6115ZM291.731 13.8912C291.308 13.3396 290.782 12.8749 290.168 12.4938L289.114 14.1937C289.541 14.4584 289.88 14.7646 290.144 15.1088L291.731 13.8912ZM290.18 12.5015C289.562 12.106 288.862 11.8079 288.091 11.5977L287.565 13.5273C288.169 13.6921 288.678 13.9148 289.102 14.186L290.18 12.5015ZM288.091 11.5977C287.306 11.3836 286.461 11.2812 285.562 11.2812V13.2812C286.31 13.2812 286.975 13.3664 287.565 13.5273L288.091 11.5977ZM285.562 11.2812C284.613 11.2812 283.725 11.3886 282.906 11.614L283.437 13.5422C284.056 13.3718 284.762 13.2812 285.562 13.2812V11.2812ZM282.906 11.614C282.112 11.8328 281.392 12.1328 280.757 12.5233L281.805 14.2267C282.254 13.9505 282.794 13.7193 283.437 13.5422L282.906 11.614ZM280.757 12.5233C280.134 12.9069 279.595 13.3612 279.154 13.8911L280.69 15.1714C280.978 14.8263 281.345 14.5098 281.805 14.2267L280.757 12.5233ZM279.145 13.9021C278.723 14.423 278.402 14.9891 278.194 15.5996L280.087 16.2441C280.213 15.8755 280.412 15.5145 280.699 15.1604L279.145 13.9021ZM279.141 16.9219H291.719V14.9219H279.141V16.9219ZM301.297 14.0625L300.391 13.6383L300.388 13.645L301.297 14.0625ZM303.594 11.0312L302.94 10.2748L302.936 10.2782L303.594 11.0312ZM307.203 8.98438L306.87 8.04138L306.868 8.04216L307.203 8.98438ZM316.719 8.98438L316.384 9.92659L316.386 9.92737L316.719 8.98438ZM320.328 11.0312L319.67 11.7843L319.674 11.7877L320.328 11.0312ZM322.625 14.0625L321.716 14.48L321.719 14.4867L322.625 14.0625ZM322.625 21.5L321.719 21.0758L321.716 21.0825L322.625 21.5ZM320.328 24.5312L319.674 23.7748L319.67 23.7782L320.328 24.5312ZM316.719 26.5781L316.386 25.6351L316.384 25.6359L316.719 26.5781ZM307.203 26.5781L306.868 27.5203L306.87 27.5211L307.203 26.5781ZM303.594 24.5312L302.936 25.2843L302.94 25.2877L303.594 24.5312ZM301.297 21.5L300.388 21.9175L300.391 21.9242L301.297 21.5ZM305.797 19.8906L304.881 20.2914L304.885 20.3001L304.888 20.3088L305.797 19.8906ZM307.094 21.6406L306.422 22.3812L306.429 22.3877L306.436 22.394L307.094 21.6406ZM309.172 22.8438L308.823 23.7811L308.831 23.7837L308.838 23.7863L309.172 22.8438ZM314.75 22.8438L315.088 23.785L315.095 23.7825L314.75 22.8438ZM316.828 21.6406L317.492 22.388L317.493 22.3873L316.828 21.6406ZM318.125 19.8906L317.214 19.4779L317.211 19.4845L318.125 19.8906ZM318.125 15.6719L317.209 16.0727L317.214 16.0846L318.125 15.6719ZM316.828 13.9219L316.156 14.6624L316.163 14.6689L316.171 14.6753L316.828 13.9219ZM314.75 12.7188L314.402 13.6561L314.409 13.6587L314.416 13.6613L314.75 12.7188ZM309.172 12.7188L309.51 13.66L309.516 13.6575L309.172 12.7188ZM307.094 13.9219L307.758 14.6693L307.759 14.6685L307.094 13.9219ZM305.797 15.6719L304.886 15.2591L304.881 15.2711L305.797 15.6719ZM301.5 17.7812C301.5 16.5966 301.737 15.5001 302.206 14.48L300.388 13.645C299.794 14.9374 299.5 16.3201 299.5 17.7812H301.5ZM302.202 14.4867C302.684 13.4598 303.363 12.5604 304.252 11.7843L302.936 10.2782C301.845 11.2313 300.994 12.3527 300.391 13.6383L302.202 14.4867ZM304.248 11.7877C305.143 11.0141 306.234 10.3903 307.538 9.92659L306.868 8.04216C305.36 8.57841 304.045 9.31923 302.94 10.2748L304.248 11.7877ZM307.536 9.92737C308.829 9.47096 310.303 9.23438 311.969 9.23438V7.23438C310.114 7.23438 308.41 7.49779 306.87 8.04138L307.536 9.92737ZM311.969 9.23438C313.635 9.23438 315.102 9.471 316.384 9.92659L317.054 8.04216C315.523 7.49775 313.823 7.23438 311.969 7.23438V9.23438ZM316.386 9.92737C317.7 10.3912 318.789 11.0141 319.67 11.7843L320.986 10.2782C319.888 9.31921 318.571 8.57755 317.052 8.04138L316.386 9.92737ZM319.674 11.7877C320.57 12.5625 321.247 13.4587 321.716 14.48L323.534 13.645C322.94 12.3538 322.086 11.2291 320.982 10.2748L319.674 11.7877ZM321.719 14.4867C322.197 15.5054 322.438 16.5995 322.438 17.7812H324.438C324.438 16.3171 324.137 14.9321 323.531 13.6383L321.719 14.4867ZM322.438 17.7812C322.438 18.963 322.197 20.0571 321.719 21.0758L323.531 21.9242C324.137 20.6304 324.438 19.2454 324.438 17.7812H322.438ZM321.716 21.0825C321.247 22.1038 320.57 23 319.674 23.7748L320.982 25.2877C322.086 24.3334 322.94 23.2087 323.534 21.9175L321.716 21.0825ZM319.67 23.7782C318.789 24.5484 317.7 25.1713 316.386 25.6351L317.052 27.5211C318.571 26.9849 319.888 26.2433 320.986 25.2843L319.67 23.7782ZM316.384 25.6359C315.102 26.0915 313.635 26.3281 311.969 26.3281V28.3281C313.823 28.3281 315.523 28.0648 317.054 27.5203L316.384 25.6359ZM311.969 26.3281C310.303 26.3281 308.829 26.0915 307.536 25.6351L306.87 27.5211C308.41 28.0647 310.114 28.3281 311.969 28.3281V26.3281ZM307.538 25.6359C306.234 25.1722 305.143 24.5484 304.248 23.7748L302.94 25.2877C304.045 26.2433 305.36 26.9841 306.868 27.5203L307.538 25.6359ZM304.252 23.7782C303.363 23.0021 302.684 22.1027 302.202 21.0758L300.391 21.9242C300.994 23.2098 301.845 24.3312 302.936 25.2843L304.252 23.7782ZM302.206 21.0825C301.737 20.0624 301.5 18.9659 301.5 17.7812H299.5C299.5 19.2424 299.794 20.6251 300.388 21.9175L302.206 21.0825ZM304.359 17.7812C304.359 18.6565 304.533 19.4963 304.881 20.2914L306.713 19.4898C306.478 18.9516 306.359 18.3852 306.359 17.7812H304.359ZM304.888 20.3088C305.25 21.0935 305.765 21.785 306.422 22.3812L307.766 20.9001C307.298 20.4754 306.948 20.0002 306.705 19.4725L304.888 20.3088ZM306.436 22.394C307.112 22.9838 307.913 23.4427 308.823 23.7811L309.52 21.9064C308.805 21.6406 308.221 21.2974 307.751 20.8872L306.436 22.394ZM308.838 23.7863C309.786 24.1225 310.835 24.2812 311.969 24.2812V22.2812C311.02 22.2812 310.203 22.1483 309.506 21.9012L308.838 23.7863ZM311.969 24.2812C313.102 24.2812 314.147 24.1226 315.088 23.7849L314.412 21.9026C313.728 22.1482 312.918 22.2812 311.969 22.2812V24.2812ZM315.095 23.7825C316.016 23.4442 316.822 22.9838 317.492 22.388L316.164 20.8932C315.709 21.2974 315.13 21.6391 314.405 21.905L315.095 23.7825ZM317.493 22.3873C318.165 21.7889 318.686 21.0916 319.039 20.2968L317.211 19.4845C316.981 20.0021 316.637 20.4715 316.163 20.894L317.493 22.3873ZM319.036 20.3034C319.397 19.5056 319.578 18.6616 319.578 17.7812H317.578C317.578 18.38 317.457 18.9423 317.214 19.4779L319.036 20.3034ZM319.578 17.7812C319.578 16.9009 319.397 16.0569 319.036 15.2591L317.214 16.0846C317.457 16.6202 317.578 17.1825 317.578 17.7812H319.578ZM319.041 15.2711C318.688 14.4631 318.165 13.761 317.486 13.1685L316.171 14.6753C316.637 15.0828 316.979 15.5473 317.209 16.0727L319.041 15.2711ZM317.5 13.1813C316.826 12.5695 316.013 12.1056 315.084 11.7762L314.416 13.6613C315.132 13.9153 315.705 14.2534 316.156 14.6624L317.5 13.1813ZM315.098 11.7814C314.155 11.4305 313.106 11.2656 311.969 11.2656V13.2656C312.915 13.2656 313.72 13.4029 314.402 13.6561L315.098 11.7814ZM311.969 11.2656C310.831 11.2656 309.779 11.4306 308.827 11.78L309.516 13.6575C310.21 13.4028 311.023 13.2656 311.969 13.2656V11.2656ZM308.834 11.7776C307.916 12.1071 307.108 12.5696 306.429 13.1752L307.759 14.6685C308.225 14.2533 308.803 13.9137 309.51 13.6599L308.834 11.7776ZM306.429 13.1745C305.765 13.7648 305.248 14.4612 304.886 15.2591L306.708 16.0846C306.95 15.5492 307.297 15.0789 307.758 14.6693L306.429 13.1745ZM304.881 15.2711C304.533 16.0662 304.359 16.906 304.359 17.7812H306.359C306.359 17.1773 306.478 16.6109 306.713 16.0727L304.881 15.2711ZM328.109 8.5625V7.5625H327.109V8.5625H328.109ZM332.734 8.5625H333.734V7.5625H332.734V8.5625ZM332.734 10.125H331.734V11.8428L333.228 10.9946L332.734 10.125ZM336.25 8.65625L336.007 7.68611L336.005 7.68664L336.25 8.65625ZM343.453 8.85938L343.125 9.8039L343.132 9.8064L343.453 8.85938ZM348.609 13.7344L347.681 14.1072L347.685 14.1167L348.609 13.7344ZM349.359 27V28H350.359V27H349.359ZM344.75 27H343.75V28H344.75V27ZM344.312 15.9844L343.369 16.3153L343.371 16.3227L343.374 16.3301L344.312 15.9844ZM343.078 13.9688L342.358 14.6621L342.364 14.6691L342.371 14.6759L343.078 13.9688ZM341.125 12.7188L340.767 13.6524L340.775 13.6554L340.782 13.6582L341.125 12.7188ZM337.016 12.4375L336.823 11.4562L336.82 11.4569L337.016 12.4375ZM335.469 12.8906L335.82 13.827L335.83 13.823L335.469 12.8906ZM334.016 13.6094L334.53 14.4669L334.537 14.4627L334.544 14.4584L334.016 13.6094ZM332.734 14.5781L332.047 13.8517L331.734 14.1475V14.5781H332.734ZM332.734 27V28H333.734V27H332.734ZM328.109 27H327.109V28H328.109V27ZM328.109 9.5625H332.734V7.5625H328.109V9.5625ZM331.734 8.5625V10.125H333.734V8.5625H331.734ZM333.228 10.9946C334.396 10.3313 335.484 9.88076 336.495 9.62586L336.005 7.68664C334.786 7.99424 333.531 8.52285 332.241 9.2554L333.228 10.9946ZM336.493 9.62639C337.545 9.36338 338.562 9.23438 339.547 9.23438V7.23438C338.386 7.23438 337.205 7.38662 336.007 7.68611L336.493 9.62639ZM339.547 9.23438C340.853 9.23438 342.043 9.42772 343.125 9.80387L343.782 7.91488C342.467 7.4577 341.053 7.23438 339.547 7.23438V9.23438ZM343.132 9.8064C344.204 10.1701 345.116 10.7094 345.882 11.4203L347.243 9.95471C346.259 9.04063 345.098 8.36115 343.774 7.91235L343.132 9.8064ZM345.882 11.4203C346.639 12.1228 347.241 13.0113 347.681 14.1071L349.537 13.3616C348.998 12.0199 348.236 10.8772 347.243 9.95471L345.882 11.4203ZM347.685 14.1167C348.126 15.1804 348.359 16.447 348.359 17.9375H350.359C350.359 16.2405 350.093 14.705 349.533 13.352L347.685 14.1167ZM348.359 17.9375V27H350.359V17.9375H348.359ZM349.359 26H344.75V28H349.359V26ZM345.75 27V18.6875H343.75V27H345.75ZM345.75 18.6875C345.75 17.5818 345.59 16.5605 345.251 15.6387L343.374 16.3301C343.618 16.9916 343.75 17.7724 343.75 18.6875H345.75ZM345.256 15.6535C344.931 14.7255 344.444 13.9205 343.785 13.2616L342.371 14.6759C342.795 15.1003 343.132 15.6391 343.369 16.3153L345.256 15.6535ZM343.799 13.2754C343.154 12.6059 342.371 12.109 341.468 11.7793L340.782 13.6582C341.42 13.891 341.939 14.2274 342.358 14.6621L343.799 13.2754ZM341.483 11.7851C340.591 11.443 339.613 11.2812 338.562 11.2812V13.2812C339.408 13.2812 340.138 13.4112 340.767 13.6524L341.483 11.7851ZM338.562 11.2812C337.993 11.2812 337.413 11.3406 336.823 11.4562L337.208 13.4188C337.681 13.3261 338.132 13.2812 338.562 13.2812V11.2812ZM336.82 11.4569C336.241 11.5727 335.67 11.7402 335.107 11.9583L335.83 13.823C336.289 13.6452 336.749 13.5106 337.212 13.4181L336.82 11.4569ZM335.118 11.9543C334.554 12.1657 334.01 12.435 333.487 12.7603L334.544 14.4584C334.959 14.2005 335.384 13.9905 335.82 13.827L335.118 11.9543ZM333.501 12.7519C332.972 13.0693 332.487 13.4358 332.047 13.8517L333.422 15.3046C333.753 14.9913 334.122 14.712 334.53 14.4669L333.501 12.7519ZM331.734 14.5781V27H333.734V14.5781H331.734ZM332.734 26H328.109V28H332.734V26ZM329.109 27V8.5625H327.109V27H329.109ZM355.781 21.3438L356.296 20.4863L355.42 19.9607L354.913 20.8476L355.781 21.3438ZM359.906 23L359.676 23.9732L359.906 23ZM369.469 19.9531L368.829 20.7214L368.839 20.7299L369.469 19.9531ZM364.797 19.7344L364.898 20.7292L364.907 20.7283L364.916 20.7273L364.797 19.7344ZM363.188 19.8906L363.095 18.8949L363.094 18.895L363.188 19.8906ZM358.297 19.5625L358.001 20.5178L358.004 20.5188L358.297 19.5625ZM354.953 16.7969L354.021 17.1579L354.023 17.163L354.953 16.7969ZM357.109 10.0781L357.686 10.8954L357.693 10.8904L357.109 10.0781ZM360.047 8.71875L359.778 7.7556L359.776 7.75624L360.047 8.71875ZM366.219 8.375L366.103 9.36824L366.11 9.36906L366.117 9.36978L366.219 8.375ZM370.859 9.23438L370.594 10.1986L370.607 10.202L370.859 9.23438ZM372.766 9.84375L373.693 10.2186L374.07 9.28502L373.134 8.91407L372.766 9.84375ZM371.312 13.4375L370.964 14.3748L371.875 14.7135L372.24 13.8124L371.312 13.4375ZM367.781 12.4062L367.563 13.3823L367.573 13.3844L367.781 12.4062ZM361.969 12.2188L362.175 13.1974L362.187 13.1945L361.969 12.2188ZM360.516 12.7344L361.001 13.6085L361.01 13.6034L361.019 13.5982L360.516 12.7344ZM359.688 13.4688L358.841 12.9359L358.836 12.9447L359.688 13.4688ZM359.562 14.9219L358.658 15.3477L358.668 15.369L358.679 15.3898L359.562 14.9219ZM360 15.3906L359.435 16.2159L359.46 16.2328L359.486 16.2481L360 15.3906ZM360.797 15.6875L360.577 16.6629L360.595 16.667L360.613 16.6704L360.797 15.6875ZM364.938 15.5469L365.035 16.5421L365.045 16.5412L365.054 16.54L364.938 15.5469ZM366.578 15.375L366.488 14.3791L366.486 14.3793L366.578 15.375ZM371.219 15.6875L370.917 16.6409L370.92 16.642L371.219 15.6875ZM372.234 25.3906L372.798 26.2167L372.805 26.2121L372.234 25.3906ZM368.922 26.8125L368.67 25.8446L368.669 25.8451L368.922 26.8125ZM361.281 27.125L361.417 26.1342L361.407 26.1329L361.281 27.125ZM358.453 26.6094L358.205 27.5782L358.216 27.5808L358.453 26.6094ZM355.922 25.8125L355.561 26.7452L355.565 26.7468L355.922 25.8125ZM353.781 24.8438L352.913 24.3476L352.402 25.2423L353.311 25.7265L353.781 24.8438ZM355.267 22.2012C356.61 23.0072 358.082 23.5968 359.676 23.9732L360.136 22.0268C358.731 21.6949 357.452 21.1803 356.296 20.4863L355.267 22.2012ZM359.676 23.9732C361.253 24.3455 362.867 24.5312 364.516 24.5312V22.5312C363.018 22.5312 361.559 22.3628 360.136 22.0268L359.676 23.9732ZM364.516 24.5312C365.617 24.5312 366.576 24.4562 367.374 24.292L366.97 22.333C366.351 22.4605 365.539 22.5312 364.516 22.5312V24.5312ZM367.374 24.292C368.135 24.1352 368.805 23.9225 369.348 23.6312L368.402 21.8688C368.091 22.0358 367.626 22.1981 366.97 22.333L367.374 24.292ZM369.348 23.6312C369.87 23.3512 370.335 22.9831 370.636 22.4877L368.926 21.4498C368.873 21.5377 368.735 21.6905 368.402 21.8688L369.348 23.6312ZM370.636 22.4877C370.896 22.0604 371.047 21.5861 371.047 21.0781H369.047C369.047 21.1743 369.021 21.2938 368.926 21.4498L370.636 22.4877ZM371.047 21.0781C371.047 20.2963 370.683 19.65 370.099 19.1764L368.839 20.7299C369.026 20.8812 369.047 20.9849 369.047 21.0781H371.047ZM370.109 19.1849C369.459 18.643 368.537 18.4844 367.594 18.4844V20.4844C368.4 20.4844 368.729 20.6383 368.829 20.7213L370.109 19.1849ZM367.594 18.4844C367.145 18.4844 366.671 18.5131 366.171 18.5686L366.392 20.5564C366.829 20.5077 367.23 20.4844 367.594 20.4844V18.4844ZM366.171 18.5686C365.699 18.6211 365.201 18.6787 364.678 18.7415L364.916 20.7273C365.434 20.6651 365.926 20.6081 366.392 20.5564L366.171 18.5686ZM364.695 18.7395C364.188 18.7913 363.655 18.8431 363.095 18.8949L363.28 20.8864C363.845 20.834 364.385 20.7816 364.898 20.7292L364.695 18.7395ZM363.094 18.895C362.574 18.9441 362.043 18.9688 361.5 18.9688V20.9688C362.103 20.9688 362.697 20.9413 363.281 20.8862L363.094 18.895ZM361.5 18.9688C360.317 18.9688 359.353 18.8399 358.589 18.6062L358.004 20.5188C359.011 20.8267 360.183 20.9688 361.5 20.9688V18.9688ZM358.593 18.6072C357.814 18.3661 357.229 18.0523 356.803 17.6908L355.509 19.2154C356.187 19.7914 357.03 20.2172 358.001 20.5178L358.593 18.6072ZM356.803 17.6908C356.369 17.3221 356.07 16.9035 355.884 16.4308L354.023 17.163C354.337 17.9611 354.839 18.6467 355.509 19.2154L356.803 17.6908ZM355.886 16.4359C355.683 15.9128 355.578 15.3433 355.578 14.7188H353.578C353.578 15.5733 353.723 16.3893 354.021 17.1579L355.886 16.4359ZM355.578 14.7188C355.578 13.944 355.757 13.2468 356.11 12.6087L354.359 11.6413C353.837 12.5866 353.578 13.6185 353.578 14.7188H355.578ZM356.11 12.6087C356.467 11.9621 356.984 11.3899 357.686 10.8954L356.533 9.26087C355.609 9.91218 354.877 10.7046 354.359 11.6413L356.11 12.6087ZM357.693 10.8904C358.395 10.3865 359.263 9.97848 360.318 9.68126L359.776 7.75624C358.539 8.10485 357.449 8.60312 356.526 9.2658L357.693 10.8904ZM360.316 9.68189C361.37 9.38736 362.565 9.23438 363.906 9.23438V7.23438C362.415 7.23438 361.036 7.40431 359.778 7.75561L360.316 9.68189ZM363.906 9.23438C364.604 9.23438 365.336 9.27859 366.103 9.36824L366.335 7.38176C365.498 7.28391 364.688 7.23438 363.906 7.23438V9.23438ZM366.117 9.36978C366.903 9.45039 367.672 9.56111 368.426 9.70177L368.793 7.73573C367.984 7.58472 367.16 7.46628 366.321 7.38022L366.117 9.36978ZM368.426 9.70177C369.181 9.84279 369.904 10.0085 370.594 10.1985L371.125 8.27026C370.377 8.06442 369.6 7.88638 368.793 7.73573L368.426 9.70177ZM370.607 10.202C371.296 10.3816 371.891 10.5728 372.397 10.7734L373.134 8.91407C372.536 8.67716 371.861 8.46211 371.112 8.26676L370.607 10.202ZM371.839 9.46889L370.385 13.0626L372.24 13.8124L373.693 10.2186L371.839 9.46889ZM371.661 12.5002C370.44 12.0464 369.216 11.6887 367.989 11.4281L367.573 13.3844C368.701 13.6238 369.831 13.9536 370.964 14.3748L371.661 12.5002ZM367.999 11.4303C366.758 11.1533 365.482 11.0156 364.172 11.0156V13.0156C365.341 13.0156 366.471 13.1384 367.563 13.3822L367.999 11.4303ZM364.172 11.0156C363.26 11.0156 362.448 11.0865 361.75 11.243L362.187 13.1945C362.698 13.0801 363.354 13.0156 364.172 13.0156V11.0156ZM361.763 11.2402C361.103 11.3792 360.508 11.5812 360.012 11.8706L361.019 13.5982C361.273 13.4501 361.647 13.3083 362.175 13.1973L361.763 11.2402ZM360.03 11.8602C359.55 12.1271 359.13 12.4769 358.841 12.9359L360.534 14.0016C360.599 13.8981 360.732 13.7583 361.001 13.6085L360.03 11.8602ZM358.836 12.9447C358.578 13.3644 358.438 13.831 358.438 14.3281H360.438C360.438 14.221 360.464 14.1148 360.539 13.9928L358.836 12.9447ZM358.438 14.3281C358.438 14.6766 358.505 15.0225 358.658 15.3477L360.467 14.4961C360.454 14.4671 360.438 14.4171 360.438 14.3281H358.438ZM358.679 15.3898C358.862 15.7357 359.13 16.0069 359.435 16.2159L360.565 14.5653C360.474 14.5035 360.451 14.4622 360.446 14.454L358.679 15.3898ZM359.486 16.2481C359.811 16.4436 360.185 16.5745 360.577 16.6629L361.017 14.7121C360.763 14.6547 360.605 14.5876 360.514 14.5331L359.486 16.2481ZM360.613 16.6704C361.026 16.7479 361.498 16.7812 362.016 16.7812V14.7812C361.575 14.7812 361.235 14.7521 360.981 14.7046L360.613 16.6704ZM362.016 16.7812C362.493 16.7812 362.992 16.7529 363.512 16.6975L363.3 14.7087C362.842 14.7575 362.414 14.7812 362.016 14.7812V16.7812ZM363.512 16.6975C363.999 16.6457 364.506 16.5939 365.035 16.5421L364.84 14.5516C364.306 14.604 363.793 14.6563 363.3 14.7087L363.512 16.6975ZM365.054 16.54C365.577 16.4785 366.116 16.4221 366.67 16.3707L366.486 14.3793C365.916 14.4321 365.361 14.4902 364.821 14.5537L365.054 16.54ZM366.669 16.3709C367.211 16.3216 367.764 16.2969 368.328 16.2969V14.2969C367.705 14.2969 367.092 14.3242 366.488 14.3791L366.669 16.3709ZM368.328 16.2969C369.357 16.2969 370.215 16.4186 370.917 16.6409L371.52 14.7341C370.577 14.4356 369.508 14.2969 368.328 14.2969V16.2969ZM370.92 16.642C371.651 16.8702 372.209 17.1759 372.627 17.5374L373.936 16.0251C373.27 15.4491 372.453 15.0256 371.517 14.733L370.92 16.642ZM372.627 17.5374C373.058 17.9104 373.371 18.3394 373.58 18.8296L375.42 18.0454C375.087 17.2648 374.588 16.5896 373.936 16.0251L372.627 17.5374ZM373.58 18.8296C373.794 19.3307 373.906 19.8887 373.906 20.5156H375.906C375.906 19.6425 375.748 18.8151 375.42 18.0454L373.58 18.8296ZM373.906 20.5156C373.906 21.3233 373.721 22.0611 373.354 22.7453L375.115 23.6922C375.643 22.7097 375.906 21.6455 375.906 20.5156H373.906ZM373.354 22.7453C372.99 23.4215 372.438 24.0319 371.664 24.5691L372.805 26.2121C373.801 25.5202 374.583 24.6826 375.115 23.6922L373.354 22.7453ZM371.671 24.5646C370.903 25.0888 369.911 25.5223 368.67 25.8446L369.173 27.7804C370.578 27.4152 371.795 26.9008 372.798 26.2166L371.671 24.5646ZM368.669 25.8451C367.458 26.1622 366.025 26.3281 364.359 26.3281V28.3281C366.152 28.3281 367.761 28.1503 369.175 27.7799L368.669 25.8451ZM364.359 26.3281C363.339 26.3281 362.359 26.2631 361.417 26.1342L361.146 28.1158C362.183 28.2577 363.254 28.3281 364.359 28.3281V26.3281ZM361.407 26.1329C360.452 26.0123 359.546 25.847 358.69 25.6379L358.216 27.5808C359.151 27.8093 360.132 27.9877 361.156 28.1171L361.407 26.1329ZM358.701 25.6406C357.839 25.42 357.031 25.1656 356.278 24.8782L355.565 26.7468C356.396 27.0636 357.276 27.3404 358.205 27.5782L358.701 25.6406ZM356.283 24.8798C355.533 24.5901 354.857 24.2835 354.251 23.961L353.311 25.7265C353.997 26.0915 354.748 26.4307 355.561 26.7452L356.283 24.8798ZM354.649 25.3399L356.649 21.8399L354.913 20.8476L352.913 24.3476L354.649 25.3399Z" fill="black"/>
</svg>
